<svg width="1134" height="702" viewBox="0 0 1134 702" fill="none" xmlns="http://www.w3.org/2000/svg">
<rect x="3.5" y="3.5" width="1125" height="695" rx="64.5" fill="#B7A334"/>
<rect x="3.5" y="3.5" width="1125" height="695" rx="64.5" stroke="black" stroke-width="7"/>
<path d="M268.75 152.5C273.052 152.5 277.257 151.224 280.834 148.834C284.41 146.445 287.198 143.048 288.844 139.073C290.491 135.099 290.921 130.726 290.082 126.507C289.243 122.288 287.171 118.412 284.13 115.37C281.088 112.329 277.212 110.257 272.993 109.418C268.774 108.579 264.401 109.009 260.427 110.656C256.452 112.302 253.055 115.09 250.666 118.666C248.276 122.243 247 126.448 247 130.75C247 136.518 249.292 142.051 253.37 146.13C257.449 150.208 262.982 152.5 268.75 152.5ZM268.75 123.5C270.184 123.5 271.586 123.925 272.778 124.722C273.97 125.518 274.899 126.651 275.448 127.976C275.997 129.3 276.14 130.758 275.861 132.164C275.581 133.571 274.89 134.863 273.877 135.877C272.863 136.89 271.571 137.581 270.164 137.861C268.758 138.14 267.3 137.997 265.976 137.448C264.651 136.899 263.518 135.97 262.722 134.778C261.925 133.586 261.5 132.184 261.5 130.75C261.5 128.827 262.264 126.983 263.623 125.623C264.983 124.264 266.827 123.5 268.75 123.5Z" fill="black"/>
<path d="M319.5 80H174.5C170.654 80 166.966 81.5277 164.247 84.247C161.528 86.9662 160 90.6544 160 94.5V239.5C160 243.346 161.528 247.034 164.247 249.753C166.966 252.472 170.654 254 174.5 254H319.5C323.346 254 327.034 252.472 329.753 249.753C332.472 247.034 334 243.346 334 239.5V94.5C334 90.6544 332.472 86.9662 329.753 84.247C327.034 81.5277 323.346 80 319.5 80ZM319.5 239.5H174.5V196L210.75 159.75L251.278 200.278C253.994 202.978 257.669 204.494 261.5 204.494C265.331 204.494 269.006 202.978 271.722 200.278L283.25 188.75L319.5 225V239.5ZM319.5 204.483L293.472 178.455C290.756 175.754 287.081 174.239 283.25 174.239C279.419 174.239 275.744 175.754 273.028 178.455L261.5 189.983L220.972 149.455C218.256 146.754 214.581 145.239 210.75 145.239C206.919 145.239 203.244 146.754 200.528 149.455L174.5 175.483V94.5H319.5V204.483Z" fill="black"/>
<path d="M268.75 414.5C273.052 414.5 277.257 413.224 280.834 410.834C284.41 408.445 287.198 405.048 288.844 401.073C290.491 397.099 290.921 392.726 290.082 388.507C289.243 384.288 287.171 380.412 284.13 377.37C281.088 374.329 277.212 372.257 272.993 371.418C268.774 370.579 264.401 371.009 260.427 372.656C256.452 374.302 253.055 377.09 250.666 380.666C248.276 384.243 247 388.448 247 392.75C247 398.518 249.292 404.051 253.37 408.13C257.449 412.208 262.982 414.5 268.75 414.5ZM268.75 385.5C270.184 385.5 271.586 385.925 272.778 386.722C273.97 387.518 274.899 388.651 275.448 389.976C275.997 391.3 276.14 392.758 275.861 394.164C275.581 395.571 274.89 396.863 273.877 397.877C272.863 398.89 271.571 399.581 270.164 399.861C268.758 400.14 267.3 399.997 265.976 399.448C264.651 398.899 263.518 397.97 262.722 396.778C261.925 395.586 261.5 394.184 261.5 392.75C261.5 390.827 262.264 388.983 263.623 387.623C264.983 386.264 266.827 385.5 268.75 385.5Z" fill="black"/>
<path d="M319.5 342H174.5C170.654 342 166.966 343.528 164.247 346.247C161.528 348.966 160 352.654 160 356.5V501.5C160 505.346 161.528 509.034 164.247 511.753C166.966 514.472 170.654 516 174.5 516H319.5C323.346 516 327.034 514.472 329.753 511.753C332.472 509.034 334 505.346 334 501.5V356.5C334 352.654 332.472 348.966 329.753 346.247C327.034 343.528 323.346 342 319.5 342ZM319.5 501.5H174.5V458L210.75 421.75L251.278 462.278C253.994 464.978 257.669 466.494 261.5 466.494C265.331 466.494 269.006 464.978 271.722 462.278L283.25 450.75L319.5 487V501.5ZM319.5 466.483L293.472 440.455C290.756 437.754 287.081 436.239 283.25 436.239C279.419 436.239 275.744 437.754 273.028 440.455L261.5 451.983L220.972 411.455C218.256 408.754 214.581 407.239 210.75 407.239C206.919 407.239 203.244 408.754 200.528 411.455L174.5 437.483V356.5H319.5V466.483Z" fill="black"/>
<rect x="179" y="559.929" width="146" height="8.05867" rx="4.02934" fill="#2D2C2C"/>
<rect x="179" y="559.929" width="146" height="8.05867" rx="4.02934" stroke="black"/>
<rect x="179" y="580.075" width="146" height="8.05867" rx="4.02934" fill="#2D2C2C"/>
<rect x="179" y="580.075" width="146" height="8.05867" rx="4.02934" stroke="black"/>
<rect x="179" y="598.879" width="104.938" height="8.05867" rx="4.02934" fill="#2D2C2C"/>
<rect x="179" y="598.879" width="104.938" height="8.05867" rx="4.02934" stroke="black"/>
<rect x="179" y="284.143" width="146" height="8.05867" rx="4.02934" fill="#2D2C2C"/>
<rect x="179" y="284.143" width="146" height="8.05867" rx="4.02934" stroke="black"/>
<rect x="179" y="304.29" width="146" height="8.05867" rx="4.02934" fill="#2D2C2C"/>
<rect x="179" y="304.29" width="146" height="8.05867" rx="4.02934" stroke="black"/>
<rect x="179" y="323.093" width="104.938" height="8.05867" rx="4.02934" fill="#2D2C2C"/>
<rect x="179" y="323.093" width="104.938" height="8.05867" rx="4.02934" stroke="black"/>
<rect x="478" y="559.929" width="146" height="8.05867" rx="4.02934" fill="#2D2C2C"/>
<rect x="478" y="559.929" width="146" height="8.05867" rx="4.02934" stroke="black"/>
<rect x="478" y="580.075" width="146" height="8.05867" rx="4.02934" fill="#2D2C2C"/>
<rect x="478" y="580.075" width="146" height="8.05867" rx="4.02934" stroke="black"/>
<rect x="478" y="598.879" width="104.938" height="8.05867" rx="4.02934" fill="#2D2C2C"/>
<rect x="478" y="598.879" width="104.938" height="8.05867" rx="4.02934" stroke="black"/>
<rect x="478" y="284.143" width="146" height="8.05867" rx="4.02934" fill="#2D2C2C"/>
<rect x="478" y="284.143" width="146" height="8.05867" rx="4.02934" stroke="black"/>
<rect x="478" y="304.29" width="146" height="8.05867" rx="4.02934" fill="#2D2C2C"/>
<rect x="478" y="304.29" width="146" height="8.05867" rx="4.02934" stroke="black"/>
<rect x="478" y="323.093" width="104.938" height="8.05867" rx="4.02934" fill="#2D2C2C"/>
<rect x="478" y="323.093" width="104.938" height="8.05867" rx="4.02934" stroke="black"/>
<rect x="794" y="559.929" width="146" height="8.05867" rx="4.02934" fill="#2D2C2C"/>
<rect x="794" y="559.929" width="146" height="8.05867" rx="4.02934" stroke="black"/>
<rect x="794" y="580.075" width="146" height="8.05867" rx="4.02934" fill="#2D2C2C"/>
<rect x="794" y="580.075" width="146" height="8.05867" rx="4.02934" stroke="black"/>
<rect x="794" y="598.879" width="104.938" height="8.05867" rx="4.02934" fill="#2D2C2C"/>
<rect x="794" y="598.879" width="104.938" height="8.05867" rx="4.02934" stroke="black"/>
<rect x="794" y="284.143" width="146" height="8.05867" rx="4.02934" fill="#2D2C2C"/>
<rect x="794" y="284.143" width="146" height="8.05867" rx="4.02934" stroke="black"/>
<rect x="794" y="304.29" width="146" height="8.05867" rx="4.02934" fill="#2D2C2C"/>
<rect x="794" y="304.29" width="146" height="8.05867" rx="4.02934" stroke="black"/>
<rect x="794" y="323.093" width="104.938" height="8.05867" rx="4.02934" fill="#2D2C2C"/>
<rect x="794" y="323.093" width="104.938" height="8.05867" rx="4.02934" stroke="black"/>
<path d="M577.75 148.5C582.052 148.5 586.257 147.224 589.834 144.834C593.41 142.445 596.198 139.048 597.844 135.073C599.491 131.099 599.921 126.726 599.082 122.507C598.243 118.288 596.171 114.412 593.13 111.37C590.088 108.329 586.212 106.257 581.993 105.418C577.774 104.579 573.401 105.009 569.427 106.656C565.452 108.302 562.055 111.09 559.666 114.666C557.276 118.243 556 122.448 556 126.75C556 132.518 558.292 138.051 562.37 142.13C566.449 146.208 571.982 148.5 577.75 148.5ZM577.75 119.5C579.184 119.5 580.586 119.925 581.778 120.722C582.97 121.518 583.899 122.651 584.448 123.976C584.997 125.3 585.14 126.758 584.861 128.164C584.581 129.571 583.89 130.863 582.877 131.877C581.863 132.89 580.571 133.581 579.164 133.861C577.758 134.14 576.3 133.997 574.976 133.448C573.651 132.899 572.518 131.97 571.722 130.778C570.925 129.586 570.5 128.184 570.5 126.75C570.5 124.827 571.264 122.983 572.623 121.623C573.983 120.264 575.827 119.5 577.75 119.5Z" fill="black"/>
<path d="M628.5 76H483.5C479.654 76 475.966 77.5277 473.247 80.247C470.528 82.9662 469 86.6544 469 90.5V235.5C469 239.346 470.528 243.034 473.247 245.753C475.966 248.472 479.654 250 483.5 250H628.5C632.346 250 636.034 248.472 638.753 245.753C641.472 243.034 643 239.346 643 235.5V90.5C643 86.6544 641.472 82.9662 638.753 80.247C636.034 77.5277 632.346 76 628.5 76ZM628.5 235.5H483.5V192L519.75 155.75L560.278 196.278C562.994 198.978 566.669 200.494 570.5 200.494C574.331 200.494 578.006 198.978 580.722 196.278L592.25 184.75L628.5 221V235.5ZM628.5 200.483L602.472 174.455C599.756 171.754 596.081 170.239 592.25 170.239C588.419 170.239 584.744 171.754 582.028 174.455L570.5 185.983L529.972 145.455C527.256 142.754 523.581 141.239 519.75 141.239C515.919 141.239 512.244 142.754 509.528 145.455L483.5 171.483V90.5H628.5V200.483Z" fill="black"/>
<path d="M577.75 410.5C582.052 410.5 586.257 409.224 589.834 406.834C593.41 404.445 596.198 401.048 597.844 397.073C599.491 393.099 599.921 388.726 599.082 384.507C598.243 380.288 596.171 376.412 593.13 373.37C590.088 370.329 586.212 368.257 581.993 367.418C577.774 366.579 573.401 367.009 569.427 368.656C565.452 370.302 562.055 373.09 559.666 376.666C557.276 380.243 556 384.448 556 388.75C556 394.518 558.292 400.051 562.37 404.13C566.449 408.208 571.982 410.5 577.75 410.5ZM577.75 381.5C579.184 381.5 580.586 381.925 581.778 382.722C582.97 383.518 583.899 384.651 584.448 385.976C584.997 387.3 585.14 388.758 584.861 390.164C584.581 391.571 583.89 392.863 582.877 393.877C581.863 394.89 580.571 395.581 579.164 395.861C577.758 396.14 576.3 395.997 574.976 395.448C573.651 394.899 572.518 393.97 571.722 392.778C570.925 391.586 570.5 390.184 570.5 388.75C570.5 386.827 571.264 384.983 572.623 383.623C573.983 382.264 575.827 381.5 577.75 381.5Z" fill="black"/>
<path d="M628.5 338H483.5C479.654 338 475.966 339.528 473.247 342.247C470.528 344.966 469 348.654 469 352.5V497.5C469 501.346 470.528 505.034 473.247 507.753C475.966 510.472 479.654 512 483.5 512H628.5C632.346 512 636.034 510.472 638.753 507.753C641.472 505.034 643 501.346 643 497.5V352.5C643 348.654 641.472 344.966 638.753 342.247C636.034 339.528 632.346 338 628.5 338ZM628.5 497.5H483.5V454L519.75 417.75L560.278 458.278C562.994 460.978 566.669 462.494 570.5 462.494C574.331 462.494 578.006 460.978 580.722 458.278L592.25 446.75L628.5 483V497.5ZM628.5 462.483L602.472 436.455C599.756 433.754 596.081 432.239 592.25 432.239C588.419 432.239 584.744 433.754 582.028 436.455L570.5 447.983L529.972 407.455C527.256 404.754 523.581 403.239 519.75 403.239C515.919 403.239 512.244 404.754 509.528 407.455L483.5 433.483V352.5H628.5V462.483Z" fill="black"/>
<path d="M888.75 148.5C893.052 148.5 897.257 147.224 900.834 144.834C904.41 142.445 907.198 139.048 908.844 135.073C910.491 131.099 910.921 126.726 910.082 122.507C909.243 118.288 907.171 114.412 904.13 111.37C901.088 108.329 897.212 106.257 892.993 105.418C888.774 104.579 884.401 105.009 880.427 106.656C876.452 108.302 873.055 111.09 870.666 114.666C868.276 118.243 867 122.448 867 126.75C867 132.518 869.292 138.051 873.37 142.13C877.449 146.208 882.982 148.5 888.75 148.5ZM888.75 119.5C890.184 119.5 891.586 119.925 892.778 120.722C893.97 121.518 894.899 122.651 895.448 123.976C895.997 125.3 896.14 126.758 895.861 128.164C895.581 129.571 894.89 130.863 893.877 131.877C892.863 132.89 891.571 133.581 890.164 133.861C888.758 134.14 887.3 133.997 885.976 133.448C884.651 132.899 883.518 131.97 882.722 130.778C881.925 129.586 881.5 128.184 881.5 126.75C881.5 124.827 882.264 122.983 883.623 121.623C884.983 120.264 886.827 119.5 888.75 119.5Z" fill="black"/>
<path d="M939.5 76H794.5C790.654 76 786.966 77.5277 784.247 80.247C781.528 82.9662 780 86.6544 780 90.5V235.5C780 239.346 781.528 243.034 784.247 245.753C786.966 248.472 790.654 250 794.5 250H939.5C943.346 250 947.034 248.472 949.753 245.753C952.472 243.034 954 239.346 954 235.5V90.5C954 86.6544 952.472 82.9662 949.753 80.247C947.034 77.5277 943.346 76 939.5 76ZM939.5 235.5H794.5V192L830.75 155.75L871.278 196.278C873.994 198.978 877.669 200.494 881.5 200.494C885.331 200.494 889.006 198.978 891.722 196.278L903.25 184.75L939.5 221V235.5ZM939.5 200.483L913.472 174.455C910.756 171.754 907.081 170.239 903.25 170.239C899.419 170.239 895.744 171.754 893.028 174.455L881.5 185.983L840.972 145.455C838.256 142.754 834.581 141.239 830.75 141.239C826.919 141.239 823.244 142.754 820.528 145.455L794.5 171.483V90.5H939.5V200.483Z" fill="black"/>
<path d="M888.75 410.5C893.052 410.5 897.257 409.224 900.834 406.834C904.41 404.445 907.198 401.048 908.844 397.073C910.491 393.099 910.921 388.726 910.082 384.507C909.243 380.288 907.171 376.412 904.13 373.37C901.088 370.329 897.212 368.257 892.993 367.418C888.774 366.579 884.401 367.009 880.427 368.656C876.452 370.302 873.055 373.09 870.666 376.666C868.276 380.243 867 384.448 867 388.75C867 394.518 869.292 400.051 873.37 404.13C877.449 408.208 882.982 410.5 888.75 410.5ZM888.75 381.5C890.184 381.5 891.586 381.925 892.778 382.722C893.97 383.518 894.899 384.651 895.448 385.976C895.997 387.3 896.14 388.758 895.861 390.164C895.581 391.571 894.89 392.863 893.877 393.877C892.863 394.89 891.571 395.581 890.164 395.861C888.758 396.14 887.3 395.997 885.976 395.448C884.651 394.899 883.518 393.97 882.722 392.778C881.925 391.586 881.5 390.184 881.5 388.75C881.5 386.827 882.264 384.983 883.623 383.623C884.983 382.264 886.827 381.5 888.75 381.5Z" fill="black"/>
<path d="M939.5 338H794.5C790.654 338 786.966 339.528 784.247 342.247C781.528 344.966 780 348.654 780 352.5V497.5C780 501.346 781.528 505.034 784.247 507.753C786.966 510.472 790.654 512 794.5 512H939.5C943.346 512 947.034 510.472 949.753 507.753C952.472 505.034 954 501.346 954 497.5V352.5C954 348.654 952.472 344.966 949.753 342.247C947.034 339.528 943.346 338 939.5 338ZM939.5 497.5H794.5V454L830.75 417.75L871.278 458.278C873.994 460.978 877.669 462.494 881.5 462.494C885.331 462.494 889.006 460.978 891.722 458.278L903.25 446.75L939.5 483V497.5ZM939.5 462.483L913.472 436.455C910.756 433.754 907.081 432.239 903.25 432.239C899.419 432.239 895.744 433.754 893.028 436.455L881.5 447.983L840.972 407.455C838.256 404.754 834.581 403.239 830.75 403.239C826.919 403.239 823.244 404.754 820.528 407.455L794.5 433.483V352.5H939.5V462.483Z" fill="black"/>
<circle cx="394" cy="629" r="24" fill="white" stroke="black" stroke-width="2"/>
<circle cx="531" cy="629" r="24" fill="black" stroke="black" stroke-width="2"/>
<path d="M526.738 635.98V634.38C526.738 633.54 526.898 632.827 527.218 632.24C527.538 631.64 527.945 631.12 528.438 630.68C528.932 630.24 529.458 629.84 530.018 629.48C530.592 629.107 531.125 628.733 531.618 628.36C532.112 627.987 532.518 627.567 532.838 627.1C533.158 626.633 533.318 626.08 533.318 625.44C533.318 624.88 533.112 624.393 532.698 623.98C532.285 623.567 531.685 623.36 530.898 623.36C530.378 623.36 529.932 623.473 529.558 623.7C529.198 623.913 528.918 624.193 528.718 624.54C528.532 624.873 528.438 625.233 528.438 625.62H526.678C526.678 624.9 526.838 624.26 527.158 623.7C527.518 623.073 528.032 622.593 528.698 622.26C529.378 621.927 530.118 621.76 530.918 621.76C531.692 621.76 532.385 621.9 532.998 622.18C533.625 622.46 534.118 622.873 534.478 623.42C534.852 623.967 535.038 624.64 535.038 625.44C535.038 626.253 534.878 626.953 534.558 627.54C534.238 628.127 533.832 628.64 533.338 629.08C532.845 629.52 532.312 629.927 531.738 630.3C531.178 630.673 530.652 631.053 530.158 631.44C529.665 631.813 529.258 632.24 528.938 632.72C528.618 633.187 528.458 633.74 528.458 634.38H535.258V635.98H526.738Z" fill="white"/>
<circle cx="669" cy="629" r="24" fill="white" stroke="black" stroke-width="2"/>
<path d="M670.347 635.98V632.64H664.167V631.04L670.347 621.98H672.067V631.04H674.147V632.66H672.067V635.98H670.347ZM666.007 631.04H670.347V624.82L666.007 631.04Z" fill="black"/>
<circle cx="462" cy="629" r="24" fill="white" stroke="black" stroke-width="2"/>
<path d="M458.353 636V634.4H460.893V625.76H458.393V624.16C459.18 624.16 459.766 624.113 460.153 624.02C460.553 623.913 460.82 623.707 460.953 623.4C461.086 623.093 461.153 622.633 461.153 622.02H462.653V634.4H465.313V636H458.353Z" fill="black"/>
<circle cx="600" cy="629" r="24" fill="white" stroke="black" stroke-width="2"/>
<path d="M599.906 636.24C599.186 636.24 598.5 636.12 597.846 635.88C597.206 635.64 596.66 635.287 596.206 634.82C595.753 634.353 595.433 633.787 595.246 633.12C595.206 632.933 595.173 632.747 595.146 632.56C595.12 632.36 595.106 632.153 595.106 631.94L596.786 631.8C596.786 632.027 596.82 632.273 596.886 632.54C597.086 633.327 597.46 633.873 598.006 634.18C598.553 634.487 599.193 634.64 599.926 634.64C600.526 634.64 601.053 634.52 601.506 634.28C601.973 634.027 602.34 633.687 602.606 633.26C602.873 632.82 603.006 632.32 603.006 631.76C603.006 630.787 602.686 630.067 602.046 629.6C601.42 629.133 600.613 628.9 599.626 628.9H597.726V627.54L601.826 623.6H596.186V622H603.946V623.7L600.086 627.54C601.126 627.54 601.986 627.74 602.666 628.14C603.36 628.527 603.873 629.047 604.206 629.7C604.553 630.353 604.726 631.067 604.726 631.84C604.726 632.76 604.5 633.553 604.046 634.22C603.606 634.873 603.02 635.373 602.286 635.72C601.566 636.067 600.773 636.24 599.906 636.24Z" fill="black"/>
<circle cx="25" cy="25" r="24" transform="matrix(-1 0 0 1 763 604)" fill="white" stroke="black" stroke-width="2"/>
<rect width="1.59063" height="11.9297" transform="matrix(-0.682986 -0.730431 0.682986 -0.730431 383.076 629.365)" fill="black"/>
<path d="M383 629.286L384.086 628.124L392.234 636.838L391.148 638L383 629.286Z" fill="black"/>
<rect width="1.59063" height="11.9297" transform="matrix(-0.682986 -0.730431 0.682986 -0.730431 393.086 629.365)" fill="black"/>
<path d="M393.01 629.286L394.097 628.124L402.245 636.838L401.158 638L393.01 629.286Z" fill="black"/>
<rect width="1.59063" height="11.9297" transform="matrix(0.682986 -0.730431 -0.682986 -0.730431 747.169 629.876)" fill="black"/>
<path d="M747.245 629.797L746.158 628.635L738.01 637.349L739.097 638.51L747.245 629.797Z" fill="black"/>
<rect width="1.59063" height="11.9297" transform="matrix(0.682986 -0.730431 -0.682986 -0.730431 737.158 629.876)" fill="black"/>
<path d="M737.234 629.797L736.148 628.635L728 637.349L729.086 638.51L737.234 629.797Z" fill="black"/>
<rect x="5.5" y="3.5" width="1125" height="665" rx="64.5" fill="#FFE100"/>
<rect x="5.5" y="3.5" width="1125" height="665" rx="64.5" stroke="black" stroke-width="7"/>
<path d="M270.75 152.5C275.052 152.5 279.257 151.224 282.834 148.834C286.41 146.445 289.198 143.048 290.844 139.073C292.491 135.099 292.921 130.726 292.082 126.507C291.243 122.288 289.171 118.412 286.13 115.37C283.088 112.329 279.212 110.257 274.993 109.418C270.774 108.579 266.401 109.009 262.427 110.656C258.452 112.302 255.055 115.09 252.666 118.666C250.276 122.243 249 126.448 249 130.75C249 136.518 251.292 142.051 255.37 146.13C259.449 150.208 264.982 152.5 270.75 152.5ZM270.75 123.5C272.184 123.5 273.586 123.925 274.778 124.722C275.97 125.518 276.899 126.651 277.448 127.976C277.997 129.3 278.14 130.758 277.861 132.164C277.581 133.571 276.89 134.863 275.877 135.877C274.863 136.89 273.571 137.581 272.164 137.861C270.758 138.14 269.3 137.997 267.976 137.448C266.651 136.899 265.518 135.97 264.722 134.778C263.925 133.586 263.5 132.184 263.5 130.75C263.5 128.827 264.264 126.983 265.623 125.623C266.983 124.264 268.827 123.5 270.75 123.5Z" fill="black"/>
<path d="M321.5 80H176.5C172.654 80 168.966 81.5277 166.247 84.247C163.528 86.9662 162 90.6544 162 94.5V239.5C162 243.346 163.528 247.034 166.247 249.753C168.966 252.472 172.654 254 176.5 254H321.5C325.346 254 329.034 252.472 331.753 249.753C334.472 247.034 336 243.346 336 239.5V94.5C336 90.6544 334.472 86.9662 331.753 84.247C329.034 81.5277 325.346 80 321.5 80ZM321.5 239.5H176.5V196L212.75 159.75L253.278 200.278C255.994 202.978 259.669 204.494 263.5 204.494C267.331 204.494 271.006 202.978 273.722 200.278L285.25 188.75L321.5 225V239.5ZM321.5 204.483L295.472 178.455C292.756 175.754 289.081 174.239 285.25 174.239C281.419 174.239 277.744 175.754 275.028 178.455L263.5 189.983L222.972 149.455C220.256 146.754 216.581 145.239 212.75 145.239C208.919 145.239 205.244 146.754 202.528 149.455L176.5 175.483V94.5H321.5V204.483Z" fill="black"/>
<path d="M270.75 414.5C275.052 414.5 279.257 413.224 282.834 410.834C286.41 408.445 289.198 405.048 290.844 401.073C292.491 397.099 292.921 392.726 292.082 388.507C291.243 384.288 289.171 380.412 286.13 377.37C283.088 374.329 279.212 372.257 274.993 371.418C270.774 370.579 266.401 371.009 262.427 372.656C258.452 374.302 255.055 377.09 252.666 380.666C250.276 384.243 249 388.448 249 392.75C249 398.518 251.292 404.051 255.37 408.13C259.449 412.208 264.982 414.5 270.75 414.5ZM270.75 385.5C272.184 385.5 273.586 385.925 274.778 386.722C275.97 387.518 276.899 388.651 277.448 389.976C277.997 391.3 278.14 392.758 277.861 394.164C277.581 395.571 276.89 396.863 275.877 397.877C274.863 398.89 273.571 399.581 272.164 399.861C270.758 400.14 269.3 399.997 267.976 399.448C266.651 398.899 265.518 397.97 264.722 396.778C263.925 395.586 263.5 394.184 263.5 392.75C263.5 390.827 264.264 388.983 265.623 387.623C266.983 386.264 268.827 385.5 270.75 385.5Z" fill="black"/>
<path d="M321.5 342H176.5C172.654 342 168.966 343.528 166.247 346.247C163.528 348.966 162 352.654 162 356.5V501.5C162 505.346 163.528 509.034 166.247 511.753C168.966 514.472 172.654 516 176.5 516H321.5C325.346 516 329.034 514.472 331.753 511.753C334.472 509.034 336 505.346 336 501.5V356.5C336 352.654 334.472 348.966 331.753 346.247C329.034 343.528 325.346 342 321.5 342ZM321.5 501.5H176.5V458L212.75 421.75L253.278 462.278C255.994 464.978 259.669 466.494 263.5 466.494C267.331 466.494 271.006 464.978 273.722 462.278L285.25 450.75L321.5 487V501.5ZM321.5 466.483L295.472 440.455C292.756 437.754 289.081 436.239 285.25 436.239C281.419 436.239 277.744 437.754 275.028 440.455L263.5 451.983L222.972 411.455C220.256 408.754 216.581 407.239 212.75 407.239C208.919 407.239 205.244 408.754 202.528 411.455L176.5 437.483V356.5H321.5V466.483Z" fill="black"/>
<rect x="181" y="536" width="146" height="7.71429" rx="3.85714" fill="#2D2C2C"/>
<rect x="181" y="536" width="146" height="7.71429" rx="3.85714" stroke="black"/>
<rect x="181" y="555.286" width="146" height="7.71429" rx="3.85714" fill="#2D2C2C"/>
<rect x="181" y="555.286" width="146" height="7.71429" rx="3.85714" stroke="black"/>
<rect x="181" y="573.286" width="104.938" height="7.71429" rx="3.85714" fill="#2D2C2C"/>
<rect x="181" y="573.286" width="104.938" height="7.71429" rx="3.85714" stroke="black"/>
<rect x="181" y="272" width="146" height="7.71429" rx="3.85714" fill="#2D2C2C"/>
<rect x="181" y="272" width="146" height="7.71429" rx="3.85714" stroke="black"/>
<rect x="181" y="291.286" width="146" height="7.71429" rx="3.85714" fill="#2D2C2C"/>
<rect x="181" y="291.286" width="146" height="7.71429" rx="3.85714" stroke="black"/>
<rect x="181" y="309.286" width="104.938" height="7.71429" rx="3.85714" fill="#2D2C2C"/>
<rect x="181" y="309.286" width="104.938" height="7.71429" rx="3.85714" stroke="black"/>
<rect x="480" y="536" width="146" height="7.71429" rx="3.85714" fill="#2D2C2C"/>
<rect x="480" y="536" width="146" height="7.71429" rx="3.85714" stroke="black"/>
<rect x="480" y="555.286" width="146" height="7.71429" rx="3.85714" fill="#2D2C2C"/>
<rect x="480" y="555.286" width="146" height="7.71429" rx="3.85714" stroke="black"/>
<rect x="480" y="573.286" width="104.938" height="7.71429" rx="3.85714" fill="#2D2C2C"/>
<rect x="480" y="573.286" width="104.938" height="7.71429" rx="3.85714" stroke="black"/>
<rect x="480" y="272" width="146" height="7.71429" rx="3.85714" fill="#2D2C2C"/>
<rect x="480" y="272" width="146" height="7.71429" rx="3.85714" stroke="black"/>
<rect x="480" y="291.286" width="146" height="7.71429" rx="3.85714" fill="#2D2C2C"/>
<rect x="480" y="291.286" width="146" height="7.71429" rx="3.85714" stroke="black"/>
<rect x="480" y="309.286" width="104.938" height="7.71429" rx="3.85714" fill="#2D2C2C"/>
<rect x="480" y="309.286" width="104.938" height="7.71429" rx="3.85714" stroke="black"/>
<rect x="796" y="536" width="146" height="7.71429" rx="3.85714" fill="#2D2C2C"/>
<rect x="796" y="536" width="146" height="7.71429" rx="3.85714" stroke="black"/>
<rect x="796" y="555.286" width="146" height="7.71429" rx="3.85714" fill="#2D2C2C"/>
<rect x="796" y="555.286" width="146" height="7.71429" rx="3.85714" stroke="black"/>
<rect x="796" y="573.286" width="104.938" height="7.71429" rx="3.85714" fill="#2D2C2C"/>
<rect x="796" y="573.286" width="104.938" height="7.71429" rx="3.85714" stroke="black"/>
<rect x="796" y="272" width="146" height="7.71429" rx="3.85714" fill="#2D2C2C"/>
<rect x="796" y="272" width="146" height="7.71429" rx="3.85714" stroke="black"/>
<rect x="796" y="291.286" width="146" height="7.71429" rx="3.85714" fill="#2D2C2C"/>
<rect x="796" y="291.286" width="146" height="7.71429" rx="3.85714" stroke="black"/>
<rect x="796" y="309.286" width="104.938" height="7.71429" rx="3.85714" fill="#2D2C2C"/>
<rect x="796" y="309.286" width="104.938" height="7.71429" rx="3.85714" stroke="black"/>
<path d="M579.75 148.5C584.052 148.5 588.257 147.224 591.834 144.834C595.41 142.445 598.198 139.048 599.844 135.073C601.491 131.099 601.921 126.726 601.082 122.507C600.243 118.288 598.171 114.412 595.13 111.37C592.088 108.329 588.212 106.257 583.993 105.418C579.774 104.579 575.401 105.009 571.427 106.656C567.452 108.302 564.055 111.09 561.666 114.666C559.276 118.243 558 122.448 558 126.75C558 132.518 560.292 138.051 564.37 142.13C568.449 146.208 573.982 148.5 579.75 148.5ZM579.75 119.5C581.184 119.5 582.586 119.925 583.778 120.722C584.97 121.518 585.899 122.651 586.448 123.976C586.997 125.3 587.14 126.758 586.861 128.164C586.581 129.571 585.89 130.863 584.877 131.877C583.863 132.89 582.571 133.581 581.164 133.861C579.758 134.14 578.3 133.997 576.976 133.448C575.651 132.899 574.518 131.97 573.722 130.778C572.925 129.586 572.5 128.184 572.5 126.75C572.5 124.827 573.264 122.983 574.623 121.623C575.983 120.264 577.827 119.5 579.75 119.5Z" fill="black"/>
<path d="M630.5 76H485.5C481.654 76 477.966 77.5277 475.247 80.247C472.528 82.9662 471 86.6544 471 90.5V235.5C471 239.346 472.528 243.034 475.247 245.753C477.966 248.472 481.654 250 485.5 250H630.5C634.346 250 638.034 248.472 640.753 245.753C643.472 243.034 645 239.346 645 235.5V90.5C645 86.6544 643.472 82.9662 640.753 80.247C638.034 77.5277 634.346 76 630.5 76ZM630.5 235.5H485.5V192L521.75 155.75L562.278 196.278C564.994 198.978 568.669 200.494 572.5 200.494C576.331 200.494 580.006 198.978 582.722 196.278L594.25 184.75L630.5 221V235.5ZM630.5 200.483L604.472 174.455C601.756 171.754 598.081 170.239 594.25 170.239C590.419 170.239 586.744 171.754 584.028 174.455L572.5 185.983L531.972 145.455C529.256 142.754 525.581 141.239 521.75 141.239C517.919 141.239 514.244 142.754 511.528 145.455L485.5 171.483V90.5H630.5V200.483Z" fill="black"/>
<path d="M579.75 410.5C584.052 410.5 588.257 409.224 591.834 406.834C595.41 404.445 598.198 401.048 599.844 397.073C601.491 393.099 601.921 388.726 601.082 384.507C600.243 380.288 598.171 376.412 595.13 373.37C592.088 370.329 588.212 368.257 583.993 367.418C579.774 366.579 575.401 367.009 571.427 368.656C567.452 370.302 564.055 373.09 561.666 376.666C559.276 380.243 558 384.448 558 388.75C558 394.518 560.292 400.051 564.37 404.13C568.449 408.208 573.982 410.5 579.75 410.5ZM579.75 381.5C581.184 381.5 582.586 381.925 583.778 382.722C584.97 383.518 585.899 384.651 586.448 385.976C586.997 387.3 587.14 388.758 586.861 390.164C586.581 391.571 585.89 392.863 584.877 393.877C583.863 394.89 582.571 395.581 581.164 395.861C579.758 396.14 578.3 395.997 576.976 395.448C575.651 394.899 574.518 393.97 573.722 392.778C572.925 391.586 572.5 390.184 572.5 388.75C572.5 386.827 573.264 384.983 574.623 383.623C575.983 382.264 577.827 381.5 579.75 381.5Z" fill="black"/>
<path d="M630.5 338H485.5C481.654 338 477.966 339.528 475.247 342.247C472.528 344.966 471 348.654 471 352.5V497.5C471 501.346 472.528 505.034 475.247 507.753C477.966 510.472 481.654 512 485.5 512H630.5C634.346 512 638.034 510.472 640.753 507.753C643.472 505.034 645 501.346 645 497.5V352.5C645 348.654 643.472 344.966 640.753 342.247C638.034 339.528 634.346 338 630.5 338ZM630.5 497.5H485.5V454L521.75 417.75L562.278 458.278C564.994 460.978 568.669 462.494 572.5 462.494C576.331 462.494 580.006 460.978 582.722 458.278L594.25 446.75L630.5 483V497.5ZM630.5 462.483L604.472 436.455C601.756 433.754 598.081 432.239 594.25 432.239C590.419 432.239 586.744 433.754 584.028 436.455L572.5 447.983L531.972 407.455C529.256 404.754 525.581 403.239 521.75 403.239C517.919 403.239 514.244 404.754 511.528 407.455L485.5 433.483V352.5H630.5V462.483Z" fill="black"/>
<path d="M890.75 148.5C895.052 148.5 899.257 147.224 902.834 144.834C906.41 142.445 909.198 139.048 910.844 135.073C912.491 131.099 912.921 126.726 912.082 122.507C911.243 118.288 909.171 114.412 906.13 111.37C903.088 108.329 899.212 106.257 894.993 105.418C890.774 104.579 886.401 105.009 882.427 106.656C878.452 108.302 875.055 111.09 872.666 114.666C870.276 118.243 869 122.448 869 126.75C869 132.518 871.292 138.051 875.37 142.13C879.449 146.208 884.982 148.5 890.75 148.5ZM890.75 119.5C892.184 119.5 893.586 119.925 894.778 120.722C895.97 121.518 896.899 122.651 897.448 123.976C897.997 125.3 898.14 126.758 897.861 128.164C897.581 129.571 896.89 130.863 895.877 131.877C894.863 132.89 893.571 133.581 892.164 133.861C890.758 134.14 889.3 133.997 887.976 133.448C886.651 132.899 885.518 131.97 884.722 130.778C883.925 129.586 883.5 128.184 883.5 126.75C883.5 124.827 884.264 122.983 885.623 121.623C886.983 120.264 888.827 119.5 890.75 119.5Z" fill="black"/>
<path d="M941.5 76H796.5C792.654 76 788.966 77.5277 786.247 80.247C783.528 82.9662 782 86.6544 782 90.5V235.5C782 239.346 783.528 243.034 786.247 245.753C788.966 248.472 792.654 250 796.5 250H941.5C945.346 250 949.034 248.472 951.753 245.753C954.472 243.034 956 239.346 956 235.5V90.5C956 86.6544 954.472 82.9662 951.753 80.247C949.034 77.5277 945.346 76 941.5 76ZM941.5 235.5H796.5V192L832.75 155.75L873.278 196.278C875.994 198.978 879.669 200.494 883.5 200.494C887.331 200.494 891.006 198.978 893.722 196.278L905.25 184.75L941.5 221V235.5ZM941.5 200.483L915.472 174.455C912.756 171.754 909.081 170.239 905.25 170.239C901.419 170.239 897.744 171.754 895.028 174.455L883.5 185.983L842.972 145.455C840.256 142.754 836.581 141.239 832.75 141.239C828.919 141.239 825.244 142.754 822.528 145.455L796.5 171.483V90.5H941.5V200.483Z" fill="black"/>
<path d="M890.75 410.5C895.052 410.5 899.257 409.224 902.834 406.834C906.41 404.445 909.198 401.048 910.844 397.073C912.491 393.099 912.921 388.726 912.082 384.507C911.243 380.288 909.171 376.412 906.13 373.37C903.088 370.329 899.212 368.257 894.993 367.418C890.774 366.579 886.401 367.009 882.427 368.656C878.452 370.302 875.055 373.09 872.666 376.666C870.276 380.243 869 384.448 869 388.75C869 394.518 871.292 400.051 875.37 404.13C879.449 408.208 884.982 410.5 890.75 410.5ZM890.75 381.5C892.184 381.5 893.586 381.925 894.778 382.722C895.97 383.518 896.899 384.651 897.448 385.976C897.997 387.3 898.14 388.758 897.861 390.164C897.581 391.571 896.89 392.863 895.877 393.877C894.863 394.89 893.571 395.581 892.164 395.861C890.758 396.14 889.3 395.997 887.976 395.448C886.651 394.899 885.518 393.97 884.722 392.778C883.925 391.586 883.5 390.184 883.5 388.75C883.5 386.827 884.264 384.983 885.623 383.623C886.983 382.264 888.827 381.5 890.75 381.5Z" fill="black"/>
<path d="M941.5 338H796.5C792.654 338 788.966 339.528 786.247 342.247C783.528 344.966 782 348.654 782 352.5V497.5C782 501.346 783.528 505.034 786.247 507.753C788.966 510.472 792.654 512 796.5 512H941.5C945.346 512 949.034 510.472 951.753 507.753C954.472 505.034 956 501.346 956 497.5V352.5C956 348.654 954.472 344.966 951.753 342.247C949.034 339.528 945.346 338 941.5 338ZM941.5 497.5H796.5V454L832.75 417.75L873.278 458.278C875.994 460.978 879.669 462.494 883.5 462.494C887.331 462.494 891.006 460.978 893.722 458.278L905.25 446.75L941.5 483V497.5ZM941.5 462.483L915.472 436.455C912.756 433.754 909.081 432.239 905.25 432.239C901.419 432.239 897.744 433.754 895.028 436.455L883.5 447.983L842.972 407.455C840.256 404.754 836.581 403.239 832.75 403.239C828.919 403.239 825.244 404.754 822.528 407.455L796.5 433.483V352.5H941.5V462.483Z" fill="black"/>
<circle cx="396" cy="629" r="24" fill="white" stroke="black" stroke-width="2"/>
<circle cx="533" cy="629" r="24" fill="black" stroke="black" stroke-width="2"/>
<path d="M528.738 635.98V634.38C528.738 633.54 528.898 632.827 529.218 632.24C529.538 631.64 529.945 631.12 530.438 630.68C530.932 630.24 531.458 629.84 532.018 629.48C532.592 629.107 533.125 628.733 533.618 628.36C534.112 627.987 534.518 627.567 534.838 627.1C535.158 626.633 535.318 626.08 535.318 625.44C535.318 624.88 535.112 624.393 534.698 623.98C534.285 623.567 533.685 623.36 532.898 623.36C532.378 623.36 531.932 623.473 531.558 623.7C531.198 623.913 530.918 624.193 530.718 624.54C530.532 624.873 530.438 625.233 530.438 625.62H528.678C528.678 624.9 528.838 624.26 529.158 623.7C529.518 623.073 530.032 622.593 530.698 622.26C531.378 621.927 532.118 621.76 532.918 621.76C533.692 621.76 534.385 621.9 534.998 622.18C535.625 622.46 536.118 622.873 536.478 623.42C536.852 623.967 537.038 624.64 537.038 625.44C537.038 626.253 536.878 626.953 536.558 627.54C536.238 628.127 535.832 628.64 535.338 629.08C534.845 629.52 534.312 629.927 533.738 630.3C533.178 630.673 532.652 631.053 532.158 631.44C531.665 631.813 531.258 632.24 530.938 632.72C530.618 633.187 530.458 633.74 530.458 634.38H537.258V635.98H528.738Z" fill="white"/>
<circle cx="671" cy="629" r="24" fill="white" stroke="black" stroke-width="2"/>
<path d="M672.347 635.98V632.64H666.167V631.04L672.347 621.98H674.067V631.04H676.147V632.66H674.067V635.98H672.347ZM668.007 631.04H672.347V624.82L668.007 631.04Z" fill="black"/>
<circle cx="464" cy="629" r="24" fill="white" stroke="black" stroke-width="2"/>
<path d="M460.353 636V634.4H462.893V625.76H460.393V624.16C461.18 624.16 461.766 624.113 462.153 624.02C462.553 623.913 462.82 623.707 462.953 623.4C463.086 623.093 463.153 622.633 463.153 622.02H464.653V634.4H467.313V636H460.353Z" fill="black"/>
<circle cx="602" cy="629" r="24" fill="white" stroke="black" stroke-width="2"/>
<path d="M601.906 636.24C601.186 636.24 600.5 636.12 599.846 635.88C599.206 635.64 598.66 635.287 598.206 634.82C597.753 634.353 597.433 633.787 597.246 633.12C597.206 632.933 597.173 632.747 597.146 632.56C597.12 632.36 597.106 632.153 597.106 631.94L598.786 631.8C598.786 632.027 598.82 632.273 598.886 632.54C599.086 633.327 599.46 633.873 600.006 634.18C600.553 634.487 601.193 634.64 601.926 634.64C602.526 634.64 603.053 634.52 603.506 634.28C603.973 634.027 604.34 633.687 604.606 633.26C604.873 632.82 605.006 632.32 605.006 631.76C605.006 630.787 604.686 630.067 604.046 629.6C603.42 629.133 602.613 628.9 601.626 628.9H599.726V627.54L603.826 623.6H598.186V622H605.946V623.7L602.086 627.54C603.126 627.54 603.986 627.74 604.666 628.14C605.36 628.527 605.873 629.047 606.206 629.7C606.553 630.353 606.726 631.067 606.726 631.84C606.726 632.76 606.5 633.553 606.046 634.22C605.606 634.873 605.02 635.373 604.286 635.72C603.566 636.067 602.773 636.24 601.906 636.24Z" fill="black"/>
<circle cx="25" cy="25" r="24" transform="matrix(-1 0 0 1 765 604)" fill="white" stroke="black" stroke-width="2"/>
<rect width="1.59063" height="11.9297" transform="matrix(-0.682986 -0.730431 0.682986 -0.730431 385.076 629.365)" fill="black"/>
<path d="M385 629.286L386.086 628.124L394.234 636.838L393.148 638L385 629.286Z" fill="black"/>
<rect width="1.59063" height="11.9297" transform="matrix(-0.682986 -0.730431 0.682986 -0.730431 395.086 629.365)" fill="black"/>
<path d="M395.01 629.286L396.097 628.124L404.245 636.838L403.158 638L395.01 629.286Z" fill="black"/>
<rect width="1.59063" height="11.9297" transform="matrix(0.682986 -0.730431 -0.682986 -0.730431 749.169 629.876)" fill="black"/>
<path d="M749.245 629.797L748.158 628.635L740.01 637.349L741.097 638.51L749.245 629.797Z" fill="black"/>
<rect width="1.59063" height="11.9297" transform="matrix(0.682986 -0.730431 -0.682986 -0.730431 739.158 629.876)" fill="black"/>
<path d="M739.234 629.797L738.148 628.635L730 637.349L731.086 638.51L739.234 629.797Z" fill="black"/>
</svg>
