<svg width="2126" height="8462" viewBox="0 0 2126 8462" fill="none" xmlns="http://www.w3.org/2000/svg">
<g clip-path="url(#clip0_227_3169)">
<rect width="2126" height="8462" fill="#020314"/>
<g opacity="0.22" clip-path="url(#clip1_227_3169)">
<path d="M1965 3137C2124.06 3137 2253 3008.06 2253 2849C2253 2689.94 2124.06 2561 1965 2561C1805.94 2561 1677 2689.94 1677 2849C1677 3008.06 1805.94 3137 1965 3137Z" fill="#00B7FF"/>
<mask id="mask0_227_3169" style="mask-type:luminance" maskUnits="userSpaceOnUse" x="1677" y="2561" width="576" height="576">
<path d="M1965 3137C2124.06 3137 2253 3008.06 2253 2849C2253 2689.94 2124.06 2561 1965 2561C1805.94 2561 1677 2689.94 1677 2849C1677 3008.06 1805.94 3137 1965 3137Z" fill="white"/>
</mask>
<g mask="url(#mask0_227_3169)">
<path d="M1755.83 3040.32C1756.76 3035.67 1812.17 3057.24 1901.6 3065.79C1970.95 3072.3 2009.44 3066.16 2009.44 3069.69C2009.62 3074.53 1941.39 3095.17 1862.18 3081.41C1803.06 3071.18 1754.9 3044.78 1755.65 3040.32H1755.83Z" fill="#0080FF"/>
<path d="M2014.46 2714.58C2014.64 2709.74 1945.85 2706.39 1838.94 2688.73C1796.55 2681.67 1758.25 2674.04 1724.6 2666.61C1718.65 2677.2 1713.07 2688.17 1708.24 2699.33C1741.15 2705.65 1777.96 2711.41 1817.93 2715.13C1919.63 2724.8 2014.09 2720.15 2014.27 2714.39H2014.46V2714.58Z" fill="#0080FF"/>
<path d="M1830.02 2793.78C1830.2 2788.95 1761.41 2785.6 1654.5 2767.94C1612.11 2760.87 1573.81 2753.25 1540.16 2745.81C1534.21 2756.41 1528.82 2767.38 1523.8 2778.53C1556.71 2784.86 1593.52 2790.62 1633.49 2794.34C1735.2 2804.01 1829.65 2799.36 1829.83 2793.59L1830.02 2793.78Z" fill="#0080FF"/>
<path d="M1992.15 2926.72C1992.52 2931.18 2122.11 2938.43 2270.11 2909.8C2270.11 2909.8 2272.89 2909.24 2294.83 2904.22C2295.76 2895.48 2296.32 2886.56 2296.32 2877.63C2296.32 2868.71 2296.32 2875.03 2296.32 2873.73C2245.56 2887.11 2188.3 2899.57 2125.45 2909.05C2047.92 2920.77 1992.33 2923.56 1992.52 2926.53H1992.15V2926.72Z" fill="#0080FF"/>
<path d="M2117.27 2848.26C2118.02 2852.16 2236.27 2843.42 2366.79 2801.59C2366.79 2801.59 2369.2 2800.85 2388.54 2793.97C2388.54 2786.16 2387.8 2778.35 2386.87 2770.54C2386.87 2769.42 2386.5 2768.31 2386.31 2767.19C2341.87 2784.67 2291.49 2802.15 2235.52 2817.76C2166.73 2836.91 2116.53 2845.84 2117.09 2848.26H2117.27Z" fill="#0080FF"/>
</g>
</g>
<g opacity="0.22" clip-path="url(#clip2_227_3169)">
<path d="M346 1406C505.058 1406 634 1277.06 634 1118C634 958.942 505.058 830 346 830C186.942 830 58 958.942 58 1118C58 1277.06 186.942 1406 346 1406Z" fill="#067DFF"/>
<mask id="mask1_227_3169" style="mask-type:luminance" maskUnits="userSpaceOnUse" x="58" y="830" width="576" height="576">
<path d="M346 1406C505.058 1406 634 1277.06 634 1118C634 958.942 505.058 830 346 830C186.942 830 58 958.942 58 1118C58 1277.06 186.942 1406 346 1406Z" fill="white"/>
</mask>
<g mask="url(#mask1_227_3169)">
<path d="M209.53 825.166C205.997 842.643 192.239 923.707 242.625 992.314C293.383 1061.48 374.447 1070.77 413.119 1075.05C564.835 1092.16 678.622 987.294 701.119 965.726C692.381 941.928 676.019 907.159 644.784 874.622C568.926 795.604 463.691 789.84 409.773 788.538C322.201 786.493 252.107 808.061 209.53 824.98V825.166Z" fill="#003CE5"/>
<path d="M159.144 1397.82C161.747 1388.52 169.37 1366.58 190.566 1348.18C197.073 1342.6 222.173 1320.66 251.735 1323.26C260.288 1324.01 266.609 1326.61 281.484 1326.61C296.358 1326.61 297.659 1326.61 309.558 1323.26C327.779 1318.43 338.377 1308.76 346 1303.37C384.673 1275.67 440.637 1287.38 445.285 1288.49C469.827 1293.89 486.189 1305.79 508.128 1321.59C531.926 1338.88 548.846 1356.73 559.444 1369.56C539.735 1394.29 511.289 1421.62 471.686 1440.77C327.965 1510.12 171.043 1406 158.958 1397.82H159.144Z" fill="#003CE5"/>
<path d="M105.597 1025.97C91.6525 1008.49 52.6079 1024.48 42.0101 1059.99C41.4523 1061.66 33.4575 1089.55 44.9849 1110.93C45.7286 1112.42 53.7235 1126.55 66.1805 1127.85C88.1199 1130.46 110.431 1093.09 111.547 1057.57C111.918 1049.58 112.29 1034.33 105.411 1025.59V1025.97H105.597Z" fill="#003CE5"/>
<path d="M70.4571 1240.53C72.1304 1255.03 70.0852 1266.37 78.6378 1276.97C83.8438 1283.29 85.7031 1281.43 100.205 1293.51C103.18 1296.12 105.411 1297.98 107.085 1299.65C110.617 1303 113.034 1305.41 113.592 1305.97C134.602 1327.17 156.355 1327.54 156.355 1327.54C163.606 1327.54 169.184 1325.87 172.159 1324.94C187.591 1319.92 197.817 1308.57 201.163 1304.86C203.952 1301.7 204.324 1300.77 207.113 1298.35C214.178 1291.84 221.429 1289.24 225.148 1287.94C233.329 1284.96 240.208 1284.59 243.926 1284.4C247.459 1284.4 248.946 1284.78 251.549 1284.78C264.936 1284.59 275.162 1280.69 280.182 1278.64C286.69 1276.04 295.242 1272.69 303.237 1265.25C306.026 1262.65 322.573 1246.85 320.342 1223.98C320.156 1221 317.739 1199.99 301.935 1191.81C289.664 1185.49 274.976 1189.95 271.072 1191.25C260.288 1194.6 257.871 1199.25 249.132 1199.06C241.509 1198.88 235.746 1194.79 230.354 1191.44C220.872 1185.68 220.128 1181.59 210.646 1173.59C206.741 1170.25 203.209 1167.46 197.817 1164.3C195.028 1162.62 188.52 1158.72 180.526 1156.67C164.536 1152.4 150.405 1157.42 147.245 1158.53C128.094 1165.78 128.28 1178.43 116.567 1178.98C103.552 1179.73 100.763 1164.3 82.7282 1159.09C67.4823 1154.63 45.1711 1157.79 39.7792 1168.94C31.9703 1184.56 65.4371 1198.32 70.2712 1240.15V1240.53H70.4571Z" fill="#33A8FF"/>
<path d="M232.771 997.148C237.605 1009.05 248.761 1010.16 260.846 1031.92C262.891 1035.63 264.75 1039.35 268.655 1043.82C276.092 1052 284.83 1055.71 291.338 1058.5C304.353 1063.9 305.282 1061.11 314.579 1065.94C318.483 1067.99 331.684 1075.05 332.056 1084.9C332.056 1089.55 329.267 1090.3 327.965 1095.69C325.176 1107.59 335.774 1122.09 346.744 1129.16C355.854 1135.11 364.965 1135.85 370.171 1136.22C402.522 1138.45 424.089 1134.92 448.817 1133.8C483.958 1132.13 501.621 1131.39 514.264 1140.5C525.047 1148.31 529.881 1158.72 549.032 1168.57C558.142 1173.22 565.951 1175.45 569.484 1176.38C597.745 1183.63 622.287 1175.27 628.98 1172.66C663.005 1159.83 678.994 1132.32 683.085 1124.51C668.954 1089.74 655.01 1054.97 640.879 1020.2C620.613 1009.42 602.579 1005.89 591.237 1004.4C579.71 1003.1 543.826 998.635 511.847 1017.6C497.716 1025.97 491.395 1034.52 471.315 1041.58C459.043 1045.86 448.26 1047.35 443.426 1047.91C439.149 1048.28 428.737 1049.21 413.491 1047.53C391.366 1044.93 368.869 1042.51 349.161 1025.97C344.327 1022.06 335.96 1015 329.825 1002.91C323.503 990.268 325.734 983.947 318.297 969.073C314.95 962.193 311.232 954.385 303.423 948.435C298.403 944.53 280.182 932.073 261.218 938.581C236.675 946.762 225.706 979.299 233.143 997.334H232.771V997.148Z" fill="#33A8FF"/>
<path d="M462.018 1242.2C461.832 1252.24 472.988 1259.86 478.565 1263.77C502.55 1280.13 527.65 1274.55 529.881 1283.66C531.369 1289.42 521.328 1293.14 521.514 1300.21C521.886 1310.43 542.896 1318.06 564.463 1323.45C570.971 1322.15 657.055 1305.04 657.241 1280.5C657.241 1269.16 627.492 1257.44 567.81 1234.2C523.746 1216.91 501.62 1211.34 481.726 1221C478.937 1222.3 462.204 1230.49 461.832 1242.57V1242.2H462.018Z" fill="#33A8FF"/>
</g>
</g>
<g opacity="0.22">
<path d="M73 2692C232.058 2692 361 2563.06 361 2404C361 2244.94 232.058 2116 73 2116C-86.058 2116 -215 2244.94 -215 2404C-215 2563.06 -86.058 2692 73 2692Z" fill="#FF76DF"/>
<mask id="mask2_227_3169" style="mask-type:luminance" maskUnits="userSpaceOnUse" x="-215" y="2116" width="576" height="576">
<path d="M73 2692C232.058 2692 361 2563.06 361 2404C361 2244.94 232.058 2116 73 2116C-86.058 2116 -215 2244.94 -215 2404C-215 2563.06 -86.058 2692 73 2692Z" fill="white"/>
</mask>
<g mask="url(#mask2_227_3169)">
<path d="M-176.885 2652.21C-111.811 2608.89 -58.8215 2594.39 -31.3044 2589C10.9009 2580.63 45.8551 2579.33 45.8551 2579.33C73.7441 2578.21 85.6433 2580.63 113.532 2577.28C127.477 2575.61 150.346 2573.01 171.541 2565.57C214.118 2550.7 226.39 2524.85 258.555 2499.19C280.68 2481.53 316.192 2460.89 373.272 2451.04C403.392 2482.46 433.512 2513.7 463.818 2545.12C377.92 2544.37 329.579 2562.22 300.946 2579.51C291.092 2585.46 265.806 2602.2 227.505 2615.77C220.626 2618.19 200.174 2625.25 171.727 2630.64C135.658 2637.52 120.783 2635.11 89.176 2638.27C70.7692 2640.13 30.4232 2645.15 -10.4806 2660.39C-35.0229 2669.5 -71.6504 2686.79 -109.951 2720.63C-132.262 2697.95 -154.574 2675.08 -176.699 2652.4H-176.885V2652.21Z" fill="#B831FF"/>
<path d="M-273.752 2458.66C-198.452 2417.01 -136.353 2404.19 -104.002 2399.54C-54.5452 2392.29 -13.4555 2392.1 -13.4555 2392.1C23.9157 2392.1 35.2573 2393.77 66.307 2392.1C71.8848 2391.91 117.065 2389.31 160.2 2377.97C230.852 2359.38 244.239 2330.37 298.157 2309.55C331.252 2296.72 382.568 2285.75 457.124 2301.37C464.19 2324.42 471.255 2347.48 478.32 2370.53C376.99 2367.19 320.468 2383.73 287.374 2400.28C276.032 2406.05 246.656 2422.03 201.847 2434.49C193.667 2436.72 169.868 2443.04 136.587 2447.69C136.587 2447.69 122.271 2449.55 107.954 2450.67C65.1914 2454.01 43.624 2455.5 -32.7918 2440.63C-74.6252 2432.45 -143.046 2436.91 -259.436 2493.62C-264.084 2482.09 -268.918 2470.56 -273.567 2459.03V2458.66H-273.752Z" fill="#B831FF"/>
<path d="M-317.817 2318.85C-252.185 2248.75 -195.663 2230.53 -155.317 2227.56C-119.805 2224.95 -105.117 2234.62 -39.2991 2233.51C7.36841 2232.76 43.2522 2232.02 84.8997 2218.63C150.904 2197.25 160.014 2166.76 225.646 2144.07C267.479 2129.57 305.037 2127.9 329.207 2128.64C339.805 2142.4 350.589 2155.97 361.186 2169.73C313.961 2170.48 278.821 2178.29 255.952 2185.16C220.254 2195.95 188.275 2211.94 171.356 2220.3C145.512 2233.32 133.241 2241.5 116.321 2248.57C116.321 2248.57 106.839 2252.28 96.799 2255.44C28.564 2276.83 -62.1681 2279.8 -62.1681 2279.8C-105.861 2281.29 -170.749 2299.14 -260.366 2376.3C-279.33 2357.15 -298.295 2337.81 -317.259 2318.66H-317.817V2318.85Z" fill="#B831FF"/>
<path d="M-319.862 2319.22C-280.446 2290.03 -243.261 2277.01 -219.462 2270.88C-166.659 2257.12 -119.434 2260.46 -84.1076 2263.07C-74.0676 2263.81 -54.7312 2265.3 -29.4452 2269.76C17.7801 2278.13 31.7245 2287.42 69.2817 2293.56C103.864 2299.14 130.637 2297.46 144.582 2296.72C202.405 2293 220.44 2276.27 259.67 2270.13C290.162 2265.3 336.086 2266.6 400.045 2297.28C407.668 2313.83 415.477 2330.37 423.1 2346.92C373.643 2333.35 335.156 2330.19 309.313 2329.82C289.79 2329.63 251.676 2329.07 212.073 2338.18C204.45 2339.86 186.601 2344.32 161.501 2347.11C153.878 2348.04 140.677 2349.34 125.246 2349.52C95.8691 2349.71 73.372 2344.13 62.7742 2342.64C19.6393 2336.14 -1.92814 2331.67 -46.5505 2324.8C-98.238 2316.8 -171.307 2320.7 -260.924 2376.85C-280.632 2357.7 -300.34 2338.55 -319.862 2319.4V2319.22Z" fill="#FFBBFC"/>
<path d="M-215 2559.06C-188.226 2533.96 -160.337 2521.88 -143.046 2515.93C-128.172 2510.72 -86.3385 2497.15 -34.651 2504.77C-13.4554 2507.93 -0.998306 2513.32 36.9307 2517.79C39.1618 2517.97 54.9655 2520.02 73.0004 2520.95C126.361 2524.11 173.401 2518.34 190.692 2516.3C287.559 2504.4 396.326 2468.33 412.502 2462.94C414.919 2497.15 417.15 2531.55 419.567 2565.76C408.226 2567.06 284.957 2581.75 194.224 2581.19C168.009 2581.19 134.356 2580.82 92.7086 2573.19C79.8797 2570.96 63.1463 2567.43 54.5937 2565.57C5.88097 2555.34 1.79057 2552.56 -15.6865 2549.39C-33.3495 2546.23 -78.1578 2539.91 -124.268 2554.79C-140.071 2559.99 -167.217 2571.15 -192.688 2596.43C-200.126 2583.98 -207.748 2571.33 -215.186 2558.88H-215V2559.06Z" fill="#FFBBFC"/>
<path d="M-230.804 2149.09C-212.025 2142.96 -147.509 2123.25 -96.193 2134.41C-72.9522 2139.43 -50.8269 2147.05 -50.8269 2147.05C-27.5861 2155.04 -22.7521 2159.13 -2.30016 2165.46C13.8754 2170.48 30.6088 2175.68 47.9 2175.68C78.02 2175.68 98.4719 2160.06 107.025 2154.49C131.567 2138.31 180.28 2126.04 287.559 2146.86C279.192 2137.75 270.64 2128.46 262.273 2119.35C252.233 2117.3 181.767 2103.54 133.054 2113.03C115.391 2116.56 99.9593 2121.58 99.9593 2121.58C71.5126 2130.87 71.1408 2136.64 56.2666 2139.24C40.8348 2141.84 22.9858 2136.27 -12.1543 2124.37C-39.2995 2115.26 -42.2743 2112.65 -61.0529 2106.52C-86.7107 2098.34 -108.092 2094.43 -121.665 2092.39C-157.921 2111.17 -194.362 2130.13 -230.618 2148.91L-230.804 2149.09Z" fill="#FFBBFC"/>
<path d="M235.686 2479.11C242.36 2479.11 247.771 2473.7 247.771 2467.03C247.771 2460.35 242.36 2454.94 235.686 2454.94C229.011 2454.94 223.601 2460.35 223.601 2467.03C223.601 2473.7 229.011 2479.11 235.686 2479.11Z" fill="#FFBBFC"/>
<path d="M234.013 2244.29C240.174 2244.29 245.168 2239.29 245.168 2233.13C245.168 2226.97 240.174 2221.98 234.013 2221.98C227.851 2221.98 222.857 2226.97 222.857 2233.13C222.857 2239.29 227.851 2244.29 234.013 2244.29Z" fill="#FFBBFC"/>
<path d="M39.7193 2411.81C49.7824 2411.81 57.9401 2403.65 57.9401 2393.59C57.9401 2383.53 49.7824 2375.37 39.7193 2375.37C29.6563 2375.37 21.4985 2383.53 21.4985 2393.59C21.4985 2403.65 29.6563 2411.81 39.7193 2411.81Z" fill="#FFBBFC"/>
<path d="M0.302779 2639.94C5.33431 2639.94 9.41316 2635.86 9.41316 2630.83C9.41316 2625.8 5.33431 2621.72 0.302779 2621.72C-4.72875 2621.72 -8.80762 2625.8 -8.80762 2630.83C-8.80762 2635.86 -4.72875 2639.94 0.302779 2639.94Z" fill="#FFBBFC"/>
</g>
</g>
<mask id="mask3_227_3169" style="mask-type:alpha" maskUnits="userSpaceOnUse" x="1533" y="465" width="576" height="576">
<g clip-path="url(#clip3_227_3169)">
<path d="M1821 1041C1980.06 1041 2109 912.058 2109 753C2109 593.942 1980.06 465 1821 465C1661.94 465 1533 593.942 1533 753C1533 912.058 1661.94 1041 1821 1041Z" fill="#4DFF66"/>
<path d="M1707.13 911.931C1734.94 891.869 1738.79 849.68 1715.73 817.699C1692.66 785.718 1651.41 776.056 1623.6 796.118C1595.78 816.18 1591.93 858.369 1614.99 890.35C1638.06 922.331 1679.31 931.993 1707.13 911.931Z" fill="#00C650"/>
<path d="M1631.73 646.278C1638.3 646.278 1643.63 640.951 1643.63 634.379C1643.63 627.807 1638.3 622.48 1631.73 622.48C1625.16 622.48 1619.83 627.807 1619.83 634.379C1619.83 640.951 1625.16 646.278 1631.73 646.278Z" fill="#00C650"/>
<path d="M1948.58 966.244C1959.38 959.496 1963.59 946.755 1957.98 937.786C1952.38 928.817 1939.08 927.015 1928.28 933.763C1917.49 940.51 1913.27 953.251 1918.88 962.22C1924.48 971.19 1937.78 972.991 1948.58 966.244Z" fill="#00C650"/>
<path d="M1973.22 576.339C1980.63 568.226 1977.85 553.622 1967.01 543.72C1956.16 533.819 1941.37 532.37 1933.96 540.483C1926.55 548.597 1929.33 563.201 1940.18 573.102C1951.02 583.003 1965.82 584.453 1973.22 576.339Z" fill="#00C650"/>
<path d="M1876.78 776.427C1884.27 776.427 1890.35 770.35 1890.35 762.854C1890.35 755.358 1884.27 749.281 1876.78 749.281C1869.28 749.281 1863.21 755.358 1863.21 762.854C1863.21 770.35 1869.28 776.427 1876.78 776.427Z" fill="#00C650"/>
<path d="M2066.57 849.325C2078.96 822.134 2071.35 792.049 2049.58 782.127C2027.81 772.205 2000.12 786.205 1987.73 813.395C1975.33 840.586 1982.94 870.672 2004.71 880.593C2026.48 890.515 2054.17 876.516 2066.57 849.325Z" fill="#00C650"/>
<path d="M1724.39 594.149C1746.59 580.274 1756.21 555.613 1745.88 539.067C1735.54 522.522 1709.15 520.357 1686.95 534.233C1664.74 548.109 1655.12 572.77 1665.46 589.315C1675.8 605.861 1702.18 608.025 1724.39 594.149Z" fill="#00C650"/>
<path d="M1814.6 977.732C1820.04 960.603 1806.19 940.929 1783.68 933.787C1761.17 926.646 1738.51 934.743 1733.08 951.871C1727.65 969 1741.49 988.674 1764 995.816C1786.51 1002.96 1809.17 994.86 1814.6 977.732Z" fill="#00C650"/>
<path d="M2042.24 662.033C2048.41 655.861 2046.71 644.148 2038.43 635.871C2030.15 627.593 2018.44 625.886 2012.27 632.058C2006.09 638.23 2007.8 649.943 2016.08 658.22C2024.36 666.498 2036.07 668.205 2042.24 662.033Z" fill="#00C650"/>
<path d="M1587.45 775.679C1596.5 774.454 1602.48 763.397 1600.81 750.983C1599.13 738.568 1590.43 729.497 1581.37 730.722C1572.31 731.946 1566.33 743.003 1568.01 755.417C1569.69 767.832 1578.39 776.903 1587.45 775.679Z" fill="#00C650"/>
</g>
</mask>
<g mask="url(#mask3_227_3169)">
</g>
<g opacity="0.22" clip-path="url(#clip4_227_3169)">
<path d="M1932 1982C2091.06 1982 2220 1853.06 2220 1694C2220 1534.94 2091.06 1406 1932 1406C1772.94 1406 1644 1534.94 1644 1694C1644 1853.06 1772.94 1982 1932 1982Z" fill="#FFCC4D"/>
<path d="M1880.27 1584.34C1921.98 1565.42 1942.58 1520.98 1926.3 1485.07C1910.01 1449.16 1862.99 1435.39 1821.28 1454.3C1779.58 1473.22 1758.97 1517.67 1775.26 1553.58C1791.55 1589.49 1838.57 1603.26 1880.27 1584.34Z" fill="#F2A02A"/>
<path d="M1725.44 1615.35C1737.86 1615.35 1747.93 1605.28 1747.93 1592.86C1747.93 1580.43 1737.86 1570.36 1725.44 1570.36C1713.01 1570.36 1702.94 1580.43 1702.94 1592.86C1702.94 1605.28 1713.01 1615.35 1725.44 1615.35Z" fill="#F2A02A"/>
<path d="M1791.25 1671.32C1797.83 1671.32 1803.15 1665.99 1803.15 1659.42C1803.15 1652.85 1797.83 1647.52 1791.25 1647.52C1784.68 1647.52 1779.35 1652.85 1779.35 1659.42C1779.35 1665.99 1784.68 1671.32 1791.25 1671.32Z" fill="#F2A02A"/>
<path d="M1778.85 1856.18C1795.56 1842.7 1795.24 1814.61 1778.16 1793.43C1761.07 1772.26 1733.68 1766.01 1716.97 1779.49C1700.27 1792.97 1700.58 1821.06 1717.67 1842.24C1734.76 1863.41 1762.15 1869.66 1778.85 1856.18Z" fill="#F2A02A"/>
<path d="M2024.78 1768.93C2031.76 1768.93 2037.42 1763.27 2037.42 1756.29C2037.42 1749.3 2031.76 1743.64 2024.78 1743.64C2017.8 1743.64 2012.13 1749.3 2012.13 1756.29C2012.13 1763.27 2017.8 1768.93 2024.78 1768.93Z" fill="#F2A02A"/>
<path d="M1990.57 1941.09C2001.37 1934.34 2005.58 1921.6 1999.98 1912.63C1994.37 1903.66 1981.07 1901.86 1970.28 1908.61C1959.48 1915.36 1955.27 1928.1 1960.87 1937.07C1966.48 1946.04 1979.77 1947.84 1990.57 1941.09Z" fill="#F2A02A"/>
<path d="M1834.73 1918.34C1842.14 1910.23 1839.36 1895.63 1828.52 1885.73C1817.67 1875.82 1802.88 1874.37 1795.47 1882.49C1788.06 1890.6 1790.84 1905.21 1801.69 1915.11C1812.53 1925.01 1827.33 1926.46 1834.73 1918.34Z" fill="#F2A02A"/>
<path d="M1974.21 1478.33C1981.7 1478.33 1987.78 1472.25 1987.78 1464.75C1987.78 1457.26 1981.7 1451.18 1974.21 1451.18C1966.71 1451.18 1960.63 1457.26 1960.63 1464.75C1960.63 1472.25 1966.71 1478.33 1974.21 1478.33Z" fill="#F2A02A"/>
<path d="M2104.57 1889.29C2122.72 1871.13 2125.78 1844.76 2111.4 1830.39C2097.03 1816.01 2070.66 1819.07 2052.5 1837.22C2034.35 1855.38 2031.29 1881.75 2045.67 1896.12C2060.04 1910.5 2086.41 1907.44 2104.57 1889.29Z" fill="#F2A02A"/>
<path d="M2188.96 1741.53C2195.25 1716.12 2182.57 1691.11 2160.64 1685.68C2138.72 1680.26 2115.84 1696.46 2109.55 1721.88C2103.26 1747.3 2115.94 1772.3 2137.87 1777.73C2159.79 1783.16 2182.67 1766.95 2188.96 1741.53Z" fill="#F2A02A"/>
<path d="M2120.84 1623.81C2126.2 1615.66 2125.05 1605.44 2118.27 1600.98C2111.48 1596.53 2101.65 1599.53 2096.29 1607.68C2090.94 1615.83 2092.09 1626.05 2098.87 1630.51C2105.65 1634.96 2115.49 1631.96 2120.84 1623.81Z" fill="#F2A02A"/>
<path d="M1836.92 1822.31C1845.39 1818.87 1848.43 1806.68 1843.72 1795.07C1839.01 1783.46 1828.32 1776.84 1819.86 1780.28C1811.39 1783.72 1808.34 1795.92 1813.06 1807.52C1817.77 1819.13 1828.46 1825.75 1836.92 1822.31Z" fill="#F2A02A"/>
</g>
<g opacity="0.22">
<path d="M1449.67 4484.57C1433.62 4485.48 1419.02 4485.66 1405.89 4484.75C1367.04 4482.38 1341.14 4472.16 1328.74 4454.29C1316.33 4436.41 1319.98 4414.71 1339.68 4389.54C1355.18 4369.65 1380.54 4347.58 1415.38 4323.87C1484.14 4276.81 1583.73 4226.83 1695.73 4183.06C1807.73 4139.28 1919.54 4106.81 2010.38 4091.67C2056.34 4084.01 2095.19 4081.09 2125.65 4082.92C2164.51 4085.29 2190.41 4095.5 2202.81 4113.38C2215.21 4131.25 2211.57 4152.96 2191.87 4178.13C2176.36 4198.01 2151.01 4220.08 2116.17 4243.8C2047.4 4290.86 1947.81 4340.83 1835.82 4384.61C1723.82 4428.39 1612.01 4460.86 1520.99 4475.99C1494.72 4480.37 1470.83 4483.29 1449.49 4484.57H1449.67ZM2084.61 4125.78C2067.65 4126.88 2046.86 4129.06 2021.32 4133.44C1935.59 4147.85 1829.07 4178.86 1721.63 4220.81C1614.2 4262.77 1519.35 4310.37 1454.41 4354.7C1382.91 4403.58 1377.25 4428.57 1381.08 4434.04C1384.92 4439.51 1415.38 4450.28 1509.86 4434.41C1595.59 4420 1702.11 4388.99 1809.55 4347.04C1916.99 4305.08 2011.84 4257.48 2076.77 4213.15C2148.09 4164.27 2153.93 4139.28 2150.1 4133.81C2147.36 4129.79 2130.21 4123.04 2084.61 4125.78Z" fill="#3300A3"/>
<path d="M1765.77 4589.09C1921.82 4589.09 2048.32 4462.59 2048.32 4306.54C2048.32 4150.5 1921.82 4024 1765.77 4024C1609.73 4024 1483.23 4150.5 1483.23 4306.54C1483.23 4462.59 1609.73 4589.09 1765.77 4589.09Z" fill="#9B00FF"/>
<path d="M2202.81 4113.2C2190.41 4095.32 2164.51 4085.29 2125.66 4082.73C2099.57 4081.09 2067.47 4083.1 2030.08 4088.39L2046.86 4129.43C2061.27 4127.42 2073.85 4126.33 2084.8 4125.6C2130.4 4122.86 2147.54 4129.61 2150.28 4133.62C2154.11 4139.1 2148.27 4164.09 2076.95 4212.97C2012.02 4257.48 1917.17 4304.9 1809.73 4346.85C1702.3 4388.81 1595.96 4419.82 1510.04 4434.22C1415.56 4450.09 1385.1 4439.33 1381.27 4433.86C1377.44 4428.39 1383.27 4403.4 1454.59 4354.51L1442.56 4306C1432.89 4312.01 1423.59 4318.03 1414.83 4324.05C1379.99 4347.95 1354.64 4370.02 1339.13 4389.72C1319.43 4414.89 1315.78 4436.78 1328.19 4454.47C1340.59 4472.35 1366.49 4482.56 1405.34 4484.93C1418.48 4485.66 1433.07 4485.66 1449.12 4484.75C1470.46 4483.47 1494.36 4480.56 1520.62 4476.18C1611.46 4460.86 1723.27 4428.57 1835.27 4384.79C1947.26 4341.02 2046.86 4291.04 2115.62 4243.98C2150.46 4220.08 2175.82 4198.01 2191.32 4178.31C2211.02 4153.14 2214.67 4131.25 2202.26 4113.56L2202.63 4113.2H2202.81Z" fill="#3300A3"/>
</g>
<g opacity="0.28" clip-path="url(#clip5_227_3169)">
<path d="M1890 6075C2049.06 6075 2178 5946.06 2178 5787C2178 5627.94 2049.06 5499 1890 5499C1730.94 5499 1602 5627.94 1602 5787C1602 5946.06 1730.94 6075 1890 6075Z" fill="#FF76DF"/>
<path d="M1795.29 5694.18C1827.2 5677.64 1841.03 5641.02 1826.2 5612.4C1811.36 5583.77 1773.46 5573.97 1741.56 5590.51C1709.65 5607.05 1695.81 5643.67 1710.65 5672.29C1725.49 5700.92 1763.38 5710.72 1795.29 5694.18Z" fill="#A53EFF"/>
<path d="M1674.14 5877.92C1686.56 5877.92 1696.64 5867.85 1696.64 5855.42C1696.64 5843 1686.56 5832.92 1674.14 5832.92C1661.71 5832.92 1651.64 5843 1651.64 5855.42C1651.64 5867.85 1661.71 5877.92 1674.14 5877.92Z" fill="#A53EFF"/>
<path d="M1827.53 5832.92C1834.1 5832.92 1839.43 5827.6 1839.43 5821.02C1839.43 5814.45 1834.1 5809.13 1827.53 5809.13C1820.96 5809.13 1815.63 5814.45 1815.63 5821.02C1815.63 5827.6 1820.96 5832.92 1827.53 5832.92Z" fill="#A53EFF"/>
<path d="M2105.27 5943.77C2125.17 5916.48 2124.16 5881.84 2103 5866.41C2081.84 5850.99 2048.56 5860.61 2028.65 5887.9C2008.75 5915.2 2009.76 5949.84 2030.92 5965.26C2052.08 5980.69 2085.36 5971.07 2105.27 5943.77Z" fill="#A53EFF"/>
<path d="M2129.84 5837.57C2139.6 5837.57 2147.51 5826.83 2147.51 5813.59C2147.51 5800.34 2139.6 5789.6 2129.84 5789.6C2120.09 5789.6 2112.18 5800.34 2112.18 5813.59C2112.18 5826.83 2120.09 5837.57 2129.84 5837.57Z" fill="#A53EFF"/>
<path d="M1995.23 6010.67C2004.17 6010.67 2011.41 6003.43 2011.41 5994.49C2011.41 5985.56 2004.17 5978.32 1995.23 5978.32C1986.3 5978.32 1979.06 5985.56 1979.06 5994.49C1979.06 6003.43 1986.3 6010.67 1995.23 6010.67Z" fill="#A53EFF"/>
<path d="M1756 5977.2C1763.77 5969.43 1761.71 5954.78 1751.4 5944.47C1741.09 5934.15 1726.43 5932.09 1718.66 5939.86C1710.9 5947.63 1712.96 5962.29 1723.27 5972.6C1733.58 5982.91 1748.23 5984.97 1756 5977.2Z" fill="#A53EFF"/>
<path d="M1959.16 5557.75C1966.66 5557.75 1972.74 5551.68 1972.74 5544.18C1972.74 5536.68 1966.66 5530.61 1959.16 5530.61C1951.67 5530.61 1945.59 5536.68 1945.59 5544.18C1945.59 5551.68 1951.67 5557.75 1959.16 5557.75Z" fill="#A53EFF"/>
<path d="M2046.53 5608.93C2053.94 5600.82 2051.71 5586.72 2041.54 5577.44C2031.38 5568.16 2017.14 5567.22 2009.73 5575.33C2002.32 5583.44 2004.55 5597.54 2014.72 5606.82C2024.88 5616.1 2039.12 5617.04 2046.53 5608.93Z" fill="#A53EFF"/>
<path d="M2022.38 5740.52C2040.14 5740.52 2054.55 5726.12 2054.55 5708.35C2054.55 5690.59 2040.14 5676.19 2022.38 5676.19C2004.62 5676.19 1990.21 5690.59 1990.21 5708.35C1990.21 5726.12 2004.62 5740.52 2022.38 5740.52Z" fill="#A53EFF"/>
</g>
<g opacity="0.22" clip-path="url(#clip6_227_3169)">
<path d="M235 3978C394.058 3978 523 3849.06 523 3690C523 3530.94 394.058 3402 235 3402C75.942 3402 -53 3530.94 -53 3690C-53 3849.06 75.942 3978 235 3978Z" fill="#2287FF"/>
<path d="M167.509 3754.89C205.399 3754.89 236.116 3724.17 236.116 3686.28C236.116 3648.39 205.399 3617.67 167.509 3617.67C129.618 3617.67 98.9019 3648.39 98.9019 3686.28C98.9019 3724.17 129.618 3754.89 167.509 3754.89Z" fill="#003DFF"/>
<path d="M451.781 3827.69C472.984 3806.78 477.255 3776.73 461.321 3760.58C445.387 3744.42 415.282 3748.27 394.079 3769.18C372.875 3790.09 368.604 3820.14 384.538 3836.29C400.472 3852.45 430.578 3848.6 451.781 3827.69Z" fill="#003DFF"/>
<path d="M91.844 3644.51C96.4439 3632.52 92.3237 3619.8 82.6415 3616.08C72.9592 3612.36 61.3812 3619.07 56.7814 3631.05C52.1815 3643.03 56.3017 3655.76 65.9839 3659.47C75.6662 3663.19 87.2442 3656.49 91.844 3644.51Z" fill="#003DFF"/>
<path d="M265.327 3784.81C276.125 3778.06 280.335 3765.32 274.73 3756.35C269.125 3747.38 255.828 3745.58 245.03 3752.33C234.232 3759.07 230.022 3771.81 235.627 3780.78C241.231 3789.75 254.528 3791.55 265.327 3784.81Z" fill="#003DFF"/>
<path d="M403.182 3509.37C410.591 3501.26 407.807 3486.66 396.963 3476.76C386.12 3466.85 371.324 3465.41 363.915 3473.52C356.506 3481.63 359.291 3496.24 370.134 3506.14C380.978 3516.04 395.774 3517.49 403.182 3509.37Z" fill="#003DFF"/>
<path d="M290.778 3713.43C298.274 3713.43 304.35 3707.35 304.35 3699.85C304.35 3692.36 298.274 3686.28 290.778 3686.28C283.282 3686.28 277.205 3692.36 277.205 3699.85C277.205 3707.35 283.282 3713.43 290.778 3713.43Z" fill="#003DFF"/>
<path d="M312.906 3458.94C315.42 3442.71 299.36 3426.74 277.035 3423.29C254.711 3419.83 234.575 3430.19 232.062 3446.43C229.548 3462.66 245.608 3478.63 267.933 3482.08C290.258 3485.54 310.393 3475.18 312.906 3458.94Z" fill="#003DFF"/>
<path d="M110.29 3881.46C122.997 3868.75 119.759 3844.91 103.059 3828.21C86.3591 3811.51 62.5204 3808.27 49.8139 3820.98C37.1073 3833.69 40.3447 3857.53 57.0447 3874.23C73.7447 3890.93 97.5834 3894.16 110.29 3881.46Z" fill="#003DFF"/>
<path d="M368.257 3899.25C378.706 3893.97 383.986 3883.38 380.051 3875.59C376.115 3867.8 364.455 3865.76 354.006 3871.04C343.558 3876.32 338.278 3886.91 342.213 3894.7C346.148 3902.49 357.809 3904.53 368.257 3899.25Z" fill="#003DFF"/>
<path d="M395.043 3605.46C399.613 3597.54 396.036 3586.92 387.054 3581.74C378.073 3576.55 367.087 3578.76 362.518 3586.68C357.948 3594.59 361.525 3605.21 370.507 3610.4C379.489 3615.58 390.474 3613.37 395.043 3605.46Z" fill="#003DFF"/>
<path d="M28.1224 3583.36C42.2085 3569.27 46.4465 3550.67 37.5882 3541.82C28.7299 3532.96 10.1298 3537.2 -3.95628 3551.28C-18.0424 3565.37 -22.2804 3583.97 -13.4221 3592.83C-4.56384 3601.68 14.0363 3597.45 28.1224 3583.36Z" fill="#003DFF"/>
<path d="M31.8594 3794.92C38.0906 3792.53 40.4571 3783.6 37.1452 3774.97C33.8334 3766.34 26.0972 3761.29 19.866 3763.68C13.6349 3766.07 11.2683 3775 14.5802 3783.63C17.8921 3792.26 25.6283 3797.31 31.8594 3794.92Z" fill="#003DFF"/>
</g>
<g opacity="0.22" clip-path="url(#clip7_227_3169)">
<path d="M364 5499C523.058 5499 652 5370.06 652 5211C652 5051.94 523.058 4923 364 4923C204.942 4923 76 5051.94 76 5211C76 5370.06 204.942 5499 364 5499Z" fill="#FFC215"/>
<mask id="mask4_227_3169" style="mask-type:luminance" maskUnits="userSpaceOnUse" x="76" y="4923" width="576" height="576">
<path d="M364 5499C523.058 5499 652 5370.06 652 5211C652 5051.94 523.058 4923 364 4923C204.942 4923 76 5051.94 76 5211C76 5370.06 204.942 5499 364 5499Z" fill="white"/>
</mask>
<g mask="url(#mask4_227_3169)">
<path d="M58.5229 5301.73C122.668 5304.52 172.31 5298.2 205.777 5291.88C242.218 5285 260.253 5281.65 283.494 5273.66C325.513 5259.34 336.483 5248 358.05 5252.09C381.105 5256.55 388.542 5273.66 416.059 5300.06C450.828 5333.53 474.812 5340.59 503.817 5359.56C537.655 5381.87 581.162 5422.58 619.649 5503.46C585.996 5514.99 552.344 5526.7 518.691 5538.23C505.676 5504.95 485.038 5465.53 452.501 5427.42C443.391 5416.82 414.758 5384.47 369.764 5356.21C338.9 5336.87 321.609 5332.78 310.081 5331.29C286.469 5328.32 264.901 5332.97 256.721 5335.01C241.475 5338.55 230.877 5343.19 227.344 5344.68C165.803 5370.52 58.7089 5374.99 58.5229 5389.3C58.5229 5392.28 63.1711 5396.74 86.5978 5402.5C77.3015 5368.85 67.8193 5335.2 58.5229 5301.55V5301.73Z" fill="#ED9200"/>
<path d="M206.52 5469.07C205.405 5466.83 192.576 5439.69 206.52 5417.75C217.676 5400.27 238.314 5397.3 249.841 5395.62C272.896 5392.28 294.092 5399.9 312.127 5406.59C317.89 5408.64 321.981 5410.5 327.187 5412.73C333.694 5415.52 356.749 5425.74 376.829 5439.32C404.16 5457.91 425.542 5482.45 423.496 5485.06C421.823 5487.1 408.251 5475.2 379.618 5461.07C345.965 5444.34 321.237 5438.95 315.659 5437.64C292.604 5432.81 258.766 5425.56 247.796 5440.99C242.59 5448.24 244.078 5458.1 246.123 5472.41C248.54 5489.33 254.675 5502.35 259.323 5510.53L206.334 5469.25L206.52 5469.07Z" fill="#ED9200"/>
<path d="M18.9208 5224.57C136.054 5234.61 199.827 5213.97 236.641 5192.04C248.912 5184.78 275.127 5168.24 311.755 5165.82C342.619 5163.77 366.975 5174 395.608 5186.09C401.929 5188.87 409.738 5192.22 464.215 5224.2C499.726 5245.02 511.812 5252.46 534.309 5265.66C585.067 5295.41 598.082 5300.8 614.257 5310.66C645.121 5329.44 685.839 5363.46 723.768 5429.28C741.989 5386.7 760.209 5344.12 778.43 5301.55C720.049 5260.46 669.105 5237.03 633.036 5223.27C586.74 5205.61 569.821 5205.79 521.48 5182.37C504.561 5174.19 477.601 5159.5 423.497 5130.12C376.829 5104.84 371.809 5101.68 359.724 5098.7C312.313 5086.99 251.701 5112.46 251.701 5112.46C220.465 5125.85 163.757 5136.44 51.0861 5123.8C40.3023 5157.27 29.5186 5190.55 18.7349 5224.01V5224.57H18.9208Z" fill="#ED9200"/>
<path d="M49.5986 5017.45C79.3469 5022.28 134.009 5031.21 193.506 5039.02C207.822 5040.88 224.369 5042.92 246.495 5041.06C252.072 5040.69 256.721 5039.95 260.997 5039.2C277.916 5036.23 296.509 5030.65 309.524 5027.49C317.519 5025.63 335.739 5021.17 359.166 5021.36C368.648 5021.36 385.754 5022.28 405.648 5027.49C429.632 5034 432.049 5040.13 460.31 5052.4C492.103 5066.16 497.309 5061.89 548.067 5080.48C567.59 5087.54 577.258 5091.26 587.856 5097.03C610.167 5109.48 624.111 5123.06 642.518 5141.65C655.533 5154.85 672.638 5173.44 690.487 5197.99C699.411 5195.57 714.657 5189.62 720.235 5176.42C729.16 5155.78 712.426 5121.2 672.266 5101.86C655.719 5087.73 629.317 5068.21 592.876 5053.89C551.228 5037.34 544.535 5046.64 508.465 5028.98C469.606 5010.01 460.124 4991.05 420.708 4982.68C406.205 4979.52 394.678 4979.52 380.919 4979.34C337.413 4978.96 304.69 4988.63 296.509 4990.86C266.203 4999.04 212.284 5001.83 109.467 4975.99C89.5728 4989.75 69.6787 5003.51 49.7846 5017.45H49.5986Z" fill="#ED9200"/>
</g>
</g>
<g opacity="0.22" clip-path="url(#clip8_227_3169)">
<path d="M225 6770C384.058 6770 513 6641.06 513 6482C513 6322.94 384.058 6194 225 6194C65.942 6194 -63 6322.94 -63 6482C-63 6641.06 65.942 6770 225 6770Z" fill="#FF6464"/>
<path d="M387.785 6668.43C415.911 6646.06 422.804 6607.93 403.18 6583.25C383.555 6558.58 344.846 6556.72 316.719 6579.09C288.593 6601.47 281.7 6639.6 301.324 6664.27C320.948 6688.94 359.658 6690.81 387.785 6668.43Z" fill="#EA0000"/>
<path d="M451.086 6537.96C463.511 6537.96 473.584 6527.89 473.584 6515.47C473.584 6503.04 463.511 6492.97 451.086 6492.97C438.662 6492.97 428.589 6503.04 428.589 6515.47C428.589 6527.89 438.662 6537.96 451.086 6537.96Z" fill="#EA0000"/>
<path d="M428.775 6385.32C435.347 6385.32 440.675 6379.99 440.675 6373.42C440.675 6366.85 435.347 6361.52 428.775 6361.52C422.203 6361.52 416.876 6366.85 416.876 6373.42C416.876 6379.99 422.203 6385.32 428.775 6385.32Z" fill="#EA0000"/>
<path d="M86.5022 6399.51C105.296 6371.44 102.892 6336.87 81.1327 6322.31C59.3738 6307.74 26.4996 6318.69 7.70622 6346.76C-11.0872 6374.84 -8.68318 6409.4 13.0757 6423.97C34.8347 6438.53 67.7088 6427.58 86.5022 6399.51Z" fill="#EA0000"/>
<path d="M15.089 6572.92C31.5185 6572.92 44.8373 6559.6 44.8373 6543.17C44.8373 6526.74 31.5185 6513.42 15.089 6513.42C-1.34045 6513.42 -14.6592 6526.74 -14.6592 6543.17C-14.6592 6559.6 -1.34045 6572.92 15.089 6572.92Z" fill="#EA0000"/>
<path d="M185.026 6369.89C193.959 6369.89 201.201 6362.64 201.201 6353.71C201.201 6344.78 193.959 6337.54 185.026 6337.54C176.092 6337.54 168.85 6344.78 168.85 6353.71C168.85 6362.64 176.092 6369.89 185.026 6369.89Z" fill="#EA0000"/>
<path d="M289.049 6244.03C291.333 6233.28 281.623 6222.11 267.36 6219.08C253.098 6216.05 239.684 6222.3 237.399 6233.05C235.115 6243.8 244.825 6254.97 259.088 6258C273.35 6261.03 286.764 6254.78 289.049 6244.03Z" fill="#EA0000"/>
<path d="M59.5253 6650.45C67.0212 6650.45 73.0979 6644.37 73.0979 6636.88C73.0979 6629.38 67.0212 6623.3 59.5253 6623.3C52.0293 6623.3 45.9526 6629.38 45.9526 6636.88C45.9526 6644.37 52.0293 6650.45 59.5253 6650.45Z" fill="#EA0000"/>
<path d="M199.714 6714.78C213.679 6714.78 225 6703.46 225 6689.49C225 6675.53 213.679 6664.21 199.714 6664.21C185.749 6664.21 174.428 6675.53 174.428 6689.49C174.428 6703.46 185.749 6714.78 199.714 6714.78Z" fill="#EA0000"/>
<path d="M309.783 6404.47C326.931 6404.47 340.832 6390.57 340.832 6373.42C340.832 6356.27 326.931 6342.37 309.783 6342.37C292.634 6342.37 278.733 6356.27 278.733 6373.42C278.733 6390.57 292.634 6404.47 309.783 6404.47Z" fill="#EA0000"/>
<path d="M247.665 6518.51C253.278 6501.66 244.166 6483.45 227.311 6477.83C210.457 6472.22 192.244 6481.33 186.63 6498.19C181.017 6515.04 190.13 6533.25 206.984 6538.87C223.838 6544.48 242.052 6535.37 247.665 6518.51Z" fill="#EA0000"/>
</g>
<g opacity="0.29" clip-path="url(#clip9_227_3169)">
<path d="M1913.12 3801.96C1898.97 3794.47 1884.75 3786.93 1870.54 3779.44C1870.14 3779.22 1869.69 3778.96 1869.24 3778.53C1868.11 3777.42 1868 3776.04 1868 3775.56V3734.82V3734.71V3734.39C1868.11 3734.18 1868.39 3734.07 1868.73 3734.07H1919.67C1917.47 3756.7 1915.27 3779.33 1913.12 3801.96Z" fill="#FF4E4A"/>
<path d="M2003.82 3801.96C2017.98 3794.47 2032.19 3786.93 2046.41 3779.44C2046.8 3779.22 2047.25 3778.96 2047.7 3778.53C2048.83 3777.42 2048.94 3776.04 2048.94 3775.56C2048.94 3774.39 2048.94 3773.22 2049 3772.11V3734.82V3734.71V3734.39C2048.89 3734.18 2048.61 3734.07 2048.27 3734.07H1997.33C1999.53 3756.7 2001.73 3779.33 2003.88 3801.96H2003.82Z" fill="#FF4E4A"/>
<path d="M2012.68 3794.57C2010.53 3816.25 2008.67 3834.89 1999.2 3857.52C1992.31 3874.04 1983.68 3887.05 1976.63 3896.19C1971.5 3902.88 1966.31 3908.56 1961.63 3913.29C1960.73 3914.2 1959.6 3914.57 1958.47 3914.57C1957.34 3914.57 1956.22 3914.2 1955.31 3913.29C1950.58 3908.56 1945.44 3902.88 1940.31 3896.19C1933.26 3887.05 1924.69 3874.04 1917.75 3857.52C1908.27 3834.89 1906.41 3816.25 1904.27 3794.57C1902.75 3779.06 1902.52 3766.21 1902.63 3757.45C1902.8 3738.8 1902.97 3720.1 1903.14 3701.46C1903.14 3699.28 1905.06 3697.53 1907.37 3697.53H2009.57C2011.89 3697.53 2013.75 3699.28 2013.8 3701.46C2013.97 3720.1 2014.14 3738.8 2014.31 3757.45C2014.42 3766.21 2014.26 3779.06 2012.68 3794.57Z" fill="#FFF9F5"/>
<mask id="mask5_227_3169" style="mask-type:luminance" maskUnits="userSpaceOnUse" x="1902" y="3697" width="113" height="218">
<path d="M2012.68 3794.57C2010.53 3816.25 2008.67 3834.89 1999.19 3857.52C1992.31 3874.04 1983.68 3887.05 1976.63 3896.19C1971.5 3902.88 1966.31 3908.56 1961.63 3913.29C1960.73 3914.2 1959.6 3914.57 1958.47 3914.57C1957.34 3914.57 1956.21 3914.2 1955.31 3913.29C1950.57 3908.56 1945.44 3902.88 1940.31 3896.19C1933.26 3887.05 1924.69 3874.04 1917.75 3857.52C1908.27 3834.89 1906.41 3816.25 1904.27 3794.57C1902.74 3779.06 1902.52 3766.21 1902.63 3757.45C1902.8 3738.8 1902.97 3720.1 1903.14 3701.46C1903.14 3699.28 1905.06 3697.53 1907.37 3697.53H2009.57C2011.89 3697.53 2013.75 3699.28 2013.8 3701.46C2013.97 3720.1 2014.14 3738.8 2014.31 3757.45C2014.42 3766.21 2014.25 3779.06 2012.68 3794.57Z" fill="white"/>
</mask>
<g mask="url(#mask5_227_3169)">
<path d="M1958.47 3857.68C2010.71 3857.68 2053.06 3874.8 2053.06 3895.92C2053.06 3917.04 2010.71 3934.17 1958.47 3934.17C1906.23 3934.17 1863.88 3917.04 1863.88 3895.92C1863.88 3874.8 1906.23 3857.68 1958.47 3857.68Z" fill="#FF4E4A"/>
<path d="M2039.81 3712.14H1880.92V3680H2039.81V3712.14Z" fill="#9B9B9B"/>
</g>
<path d="M2005.51 3700.08C2005.29 3701.78 2004.22 3703 2002.97 3703H1914.03C1912.78 3703 1911.71 3701.78 1911.49 3700.08L1909.29 3684.41C1908.95 3682.12 1910.19 3680 1911.83 3680H2005.23C2006.87 3680 2008.11 3682.12 2007.77 3684.41L2005.57 3700.08H2005.51Z" fill="#9B9B9B"/>
<path d="M1958.47 3786.13C1974.89 3786.13 1988.2 3798.66 1988.2 3814.12C1988.2 3829.58 1974.89 3842.11 1958.47 3842.11C1942.06 3842.11 1928.75 3829.58 1928.75 3814.12C1928.75 3798.66 1942.06 3786.13 1958.47 3786.13Z" fill="#939393"/>
<path d="M1958.47 3790.54C1972.3 3790.54 1983.52 3801.1 1983.52 3814.12C1983.52 3827.15 1972.3 3837.71 1958.47 3837.71C1944.64 3837.71 1933.43 3827.15 1933.43 3814.12C1933.43 3801.1 1944.64 3790.54 1958.47 3790.54Z" fill="#85D3FF"/>
<path d="M1948.49 3812.85C1953.13 3812.85 1956.89 3816.39 1956.89 3820.76C1956.89 3825.13 1953.13 3828.68 1948.49 3828.68C1943.85 3828.68 1940.08 3825.13 1940.08 3820.76C1940.08 3816.39 1943.85 3812.85 1948.49 3812.85Z" fill="#D7F3FF"/>
</g>
</g>
<defs>
<clipPath id="clip0_227_3169">
<rect width="2126" height="8462" fill="white"/>
</clipPath>
<clipPath id="clip1_227_3169">
<rect width="576" height="576" fill="white" transform="translate(1677 2561)"/>
</clipPath>
<clipPath id="clip2_227_3169">
<rect width="576" height="576" fill="white" transform="translate(58 830)"/>
</clipPath>
<clipPath id="clip3_227_3169">
<rect width="576" height="576" fill="white" transform="translate(1533 465)"/>
</clipPath>
<clipPath id="clip4_227_3169">
<rect width="576" height="576" fill="white" transform="translate(1644 1406)"/>
</clipPath>
<clipPath id="clip5_227_3169">
<rect width="576" height="576" fill="white" transform="translate(1602 5499)"/>
</clipPath>
<clipPath id="clip6_227_3169">
<rect width="576" height="576" fill="white" transform="translate(-53 3402)"/>
</clipPath>
<clipPath id="clip7_227_3169">
<rect width="576" height="576" fill="white" transform="translate(76 4923)"/>
</clipPath>
<clipPath id="clip8_227_3169">
<rect width="576" height="576" fill="white" transform="translate(-63 6194)"/>
</clipPath>
<clipPath id="clip9_227_3169">
<rect width="181" height="234.567" fill="white" transform="matrix(1 0 0 -1 1868 3914.57)"/>
</clipPath>
</defs>
</svg>
