<?xml version="1.0" encoding="UTF-8"?><svg id="_7" xmlns="http://www.w3.org/2000/svg" width="309.8" height="309.8" xmlns:xlink="http://www.w3.org/1999/xlink" viewBox="0 0 309.8 309.8"><defs><clipPath id="clippath"><circle cx="155.05" cy="154.9" r="154.9" fill="none"/></clipPath></defs><g id="icon7"><circle cx="155.05" cy="154.9" r="154.9" fill="#69ef00"/><g clip-path="url(#clippath)"><path d="M-67.25,171C-31.35,135.9.05,120.8,16.65,114.2c25.4-10.1,47-14.8,47-14.8,17.2-3.8,24.9-3.6,41.9-8.7,8.6-2.6,22.5-6.9,34.9-14,24.9-14.3,29.8-32.2,47.1-52.4,11.9-13.8,31.8-31.1,66.3-43.6,22.1,16.9,44.2,33.7,66.3,50.6-53.6,9-81.8,25.8-97.7,40.1-5.5,4.9-19.4,18.4-41.9,31.4-4.1,2.4-16,9.1-33.2,15.7-21.7,8.4-31.2,8.5-50.6,14-11.2,3.2-35.9,10.9-59.7,25.2-14.3,8.6-35.3,23.7-55.5,49.8-16.3-12.2-32.6-24.4-48.9-36.6h0l.1.1Z" fill="#00aa59"/><path d="M-7.45,272.5c27.9-46.6,58.7-67.5,77.9-77.4,19.7-10.2,49.8-20.6,63.2-25.3,35.9-12.4,36.2-9.4,50.9-16.7,33-16.5,36.1-34.2,65.4-53.1,13.5-8.8,35.3-19.6,68.4-23.4,6.9,7.7,13.7,15.3,20.6,23-24.9,5.8-42.8,14.8-54.4,21.9-18,11-33.5,24.9-41.7,32.3-16.8,15.1-21.4,22-36.5,31.2-6.5,4-12,6.5-29.4,13.5-20.6,8.3-31.2,11.7-52.7,20.2-24.8,9.8-56.6,32.6-85.1,91.3-15.5-12.5-31.1-24.9-46.6-37.3h0v-.2h0Z" fill="#00aa59"/><path d="M88.75,323.5c6.4-18.4,15.9-30.7,22.1-37.6,5.3-5.9,20.4-22.2,43.8-30.1,9.6-3.2,15.9-3.4,32.9-9.8,1-.4,8.1-3,15.9-6.6,23.2-10.5,42.1-24,49-29,38.7-27.9,77.9-70.2,83.7-76.6,7.7,16.3,15.4,32.6,23.1,49-4.6,3.3-54,38.4-92.6,58.8-11.2,5.9-25.5,13.4-44.6,19.1-5.9,1.8-13.6,3.8-17.7,4.9-22.7,6-24.9,5.5-32.9,8-8.1,2.5-28.4,9.5-45,27.2-5.7,6.1-15,17.8-20.9,36-5.6-4.5-11.3-8.9-16.9-13.4h.1v.1Z" fill="#00aa59"/><path d="M-10.65,95.6c6.6-7.2,29.6-31.4,53-37.5,10.6-2.8,21.2-4,21.2-4,11.1-1.3,13.9-.4,23.6-1.9,7.7-1.2,15.6-2.4,22.7-6.3,12.5-6.8,18-19.1,20.4-23.7,7.1-13.4,24.9-30.4,73.2-44.4-5.2-2.6-10.5-5.2-15.8-7.7-4.5,1.3-36.3,10.4-54.7,26.1-6.7,5.7-12.1,11.6-12.1,11.6-10,11-9,13.8-14.7,18.5-5.9,4.8-14.3,6.1-31.2,8.2-13,1.6-14.7,1.1-23.6,2.3-12.2,1.8-21.8,4.7-27.8,6.8C12.15,61,.65,78.4-10.75,95.7h.1v-.1Z" fill="#00aa59"/></g></g></svg>