<?xml version="1.0" encoding="UTF-8"?><svg id="_10" xmlns="http://www.w3.org/2000/svg" width="309.8" height="309.8" xmlns:xlink="http://www.w3.org/1999/xlink" viewBox="0 0 309.8 309.8"><defs><clipPath id="clippath"><circle cx="154.9" cy="154.9" r="154.9" fill="none"/></clipPath></defs><g id="icon10"><circle cx="154.9" cy="154.9" r="154.9" fill="#ff76df"/><g clip-path="url(#clippath)"><path d="M20.5,288.4c35-23.3,63.5-31.1,78.3-34,22.7-4.5,41.5-5.2,41.5-5.2,15-.6,21.4.7,36.4-1.1,7.5-.9,19.8-2.3,31.2-6.3,22.9-8,29.5-21.9,46.8-35.7,11.9-9.5,31-20.6,61.7-25.9,16.2,16.9,32.4,33.7,48.7,50.6-46.2-.4-72.2,9.2-87.6,18.5-5.3,3.2-18.9,12.2-39.5,19.5-3.7,1.3-14.7,5.1-30,8-19.4,3.7-27.4,2.4-44.4,4.1-9.9,1-31.6,3.7-53.6,11.9-13.2,4.9-32.9,14.2-53.5,32.4-12-12.2-24-24.5-35.9-36.7h-.1v-.1Z" fill="#b831ff"/><path d="M-31.6,184.3c40.5-22.4,73.9-29.3,91.3-31.8,26.6-3.9,48.7-4,48.7-4,20.1,0,26.2.9,42.9,0,3-.1,27.3-1.5,50.5-7.6,38-10,45.2-25.6,74.2-36.8,17.8-6.9,45.4-12.8,85.5-4.4,3.8,12.4,7.6,24.8,11.4,37.2-54.5-1.8-84.9,7.1-102.7,16-6.1,3.1-21.9,11.7-46,18.4-4.4,1.2-17.2,4.6-35.1,7.1,0,0-7.7,1-15.4,1.6-23,1.8-34.6,2.6-75.7-5.4-22.5-4.4-59.3-2-121.9,28.5-2.5-6.2-5.1-12.4-7.6-18.6h0v-.2h-.1Z" fill="#b831ff"/><path d="M-55.3,109.1C-20,71.4,10.4,61.6,32.1,60c19.1-1.4,27,3.8,62.4,3.2,25.1-.4,44.4-.8,66.8-8,35.5-11.5,40.4-27.9,75.7-40.1,22.5-7.8,42.7-8.7,55.7-8.3,5.7,7.4,11.5,14.7,17.2,22.1-25.4.4-44.3,4.6-56.6,8.3-19.2,5.8-36.4,14.4-45.5,18.9-13.9,7-20.5,11.4-29.6,15.2,0,0-5.1,2-10.5,3.7-36.7,11.5-85.5,13.1-85.5,13.1-23.5.8-58.4,10.4-106.6,51.9-10.2-10.3-20.4-20.7-30.6-31h-.3v.1Z" fill="#b831ff"/><path d="M-56.4,109.3c21.2-15.7,41.2-22.7,54-26,28.4-7.4,53.8-5.6,72.8-4.2,5.4.4,15.8,1.2,29.4,3.6,25.4,4.5,32.9,9.5,53.1,12.8,18.6,3,33,2.1,40.5,1.7,31.1-2,40.8-11,61.9-14.3,16.4-2.6,41.1-1.9,75.5,14.6,4.1,8.9,8.3,17.8,12.4,26.7-26.6-7.3-47.3-9-61.2-9.2-10.5-.1-31-.4-52.3,4.5-4.1.9-13.7,3.3-27.2,4.8-4.1.5-11.2,1.2-19.5,1.3-15.8.1-27.9-2.9-33.6-3.7-23.2-3.5-34.8-5.9-58.8-9.6-27.8-4.3-67.1-2.2-115.3,28-10.6-10.3-21.2-20.6-31.7-30.9h0v-.1Z" fill="#ffbbfc"/><path d="M0,238.3c14.4-13.5,29.4-20,38.7-23.2,8-2.8,30.5-10.1,58.3-6,11.4,1.7,18.1,4.6,38.5,7,1.2.1,9.7,1.2,19.4,1.7,28.7,1.7,54-1.4,63.3-2.5,52.1-6.4,110.6-25.8,119.3-28.7,1.3,18.4,2.5,36.9,3.8,55.3-6.1.7-72.4,8.6-121.2,8.3-14.1,0-32.2-.2-54.6-4.3-6.9-1.2-15.9-3.1-20.5-4.1-26.2-5.5-28.4-7-37.8-8.7-9.5-1.7-33.6-5.1-58.4,2.9-8.5,2.8-23.1,8.8-36.8,22.4-4-6.7-8.1-13.5-12.1-20.2H0v.1Z" fill="#ffbbfc"/><path d="M-8.5,17.8C1.6,14.5,36.3,3.9,63.9,9.9c12.5,2.7,24.4,6.8,24.4,6.8,12.5,4.3,15.1,6.5,26.1,9.9,8.7,2.7,17.7,5.5,27,5.5,16.2,0,27.2-8.4,31.8-11.4,13.2-8.7,39.4-15.3,97.1-4.1-4.5-4.9-9.1-9.9-13.6-14.8-5.4-1.1-43.3-8.5-69.5-3.4-9.5,1.9-17.8,4.6-17.8,4.6-15.3,5-15.5,8.1-23.5,9.5-8.3,1.4-17.9-1.6-36.8-8-14.6-4.9-16.2-6.3-26.3-9.6-13.8-4.4-25.3-6.5-32.6-7.6C30.7-2.6,11.1,7.6-8.4,17.7h0l-.1.1Z" fill="#ffbbfc"/><circle cx="50.1" cy="187.7" r="7.9" fill="#ffbbfc"/><circle cx="242.4" cy="188.8" r="6.5" fill="#ffbbfc"/><circle cx="241.5" cy="63" r="6" fill="#ffbbfc"/><circle cx="137" cy="149.3" r="9.8" fill="#ffbbfc"/><circle cx="115.8" cy="276.9" r="4.9" fill="#ffbbfc"/><circle cx="90.4" cy="36.3" r="4" fill="#ffbbfc"/></g></g></svg>