<?xml version="1.0" encoding="UTF-8"?><svg id="_3" xmlns="http://www.w3.org/2000/svg" width="309.8" height="309.8" xmlns:xlink="http://www.w3.org/1999/xlink" viewBox="0 0 309.8 309.8"><defs><clipPath id="clippath"><circle cx="154.9" cy="154.9" r="154.9" fill="none"/></clipPath></defs><g id="icon3"><circle cx="154.9" cy="154.9" r="154.9" fill="#00b7ff"/><g clip-path="url(#clippath)"><path d="M42.4,257.8c.5-2.5,30.3,9.1,78.4,13.7,37.3,3.5,58,.2,58,2.1.1,2.6-36.6,13.7-79.2,6.3-31.8-5.5-57.7-19.7-57.3-22.1h.1,0Z" fill="#0080ff"/><path d="M181.5,82.6c.1-2.6-36.9-4.4-94.4-13.9-22.8-3.8-43.4-7.9-61.5-11.9-3.2,5.7-6.2,11.6-8.8,17.6,17.7,3.4,37.5,6.5,59,8.5,54.7,5.2,105.5,2.7,105.6-.4h.1v.1Z" fill="#0080ff"/><path d="M82.3,125.2c.1-2.6-36.9-4.4-94.4-13.9-22.8-3.8-43.4-7.9-61.5-11.9-3.2,5.7-6.1,11.6-8.8,17.6,17.7,3.4,37.5,6.5,59,8.5,54.7,5.2,105.5,2.7,105.6-.4h0l.1.1Z" fill="#0080ff"/><path d="M169.5,196.7c.2,2.4,69.9,6.3,149.5-9.1,0,0,1.5-.3,13.3-3,.5-4.7.8-9.5.8-14.3s0-1.4,0-2.1c-27.3,7.2-58.1,13.9-91.9,19-41.7,6.3-71.6,7.8-71.5,9.4h-.2v.1Z" fill="#0080ff"/><path d="M236.8,154.5c.4,2.1,64-2.6,134.2-25.1,0,0,1.3-.4,11.7-4.1,0-4.2-.4-8.4-.9-12.6,0-.6-.2-1.2-.3-1.8-23.9,9.4-51,18.8-81.1,27.2-37,10.3-64,15.1-63.7,16.4h.1Z" fill="#0080ff"/></g></g></svg>