<svg width="1099" height="584" viewBox="0 0 1099 584" fill="none" xmlns="http://www.w3.org/2000/svg">
<rect x="3" y="486" width="1092" height="95" rx="47.5" fill="#CBCBCB" stroke="black" stroke-width="6"/>
<rect x="4" y="3" width="1092" height="558" rx="65" fill="white"/>
<rect x="4" y="3" width="1092" height="558" rx="65" stroke="black" stroke-width="6"/>
<path d="M62.464 41.512C62.448 41.64 62.424 41.84 62.392 42.112C62.36 42.368 62.328 42.632 62.296 42.904C62.28 43.16 62.264 43.392 62.248 43.6C62.216 44.064 62.184 44.576 62.152 45.136C62.136 45.68 62.12 46.248 62.104 46.84C62.088 47.416 62.072 48 62.056 48.592C62.056 49.184 62.056 49.76 62.056 50.32C62.056 50.976 62.064 51.704 62.08 52.504C62.096 53.288 62.112 54.072 62.128 54.856C62.16 55.624 62.176 56.328 62.176 56.968C62.192 57.608 62.2 58.104 62.2 58.456C62.2 59.448 62.088 60.216 61.864 60.76C61.656 61.304 61.352 61.68 60.952 61.888C60.552 62.112 60.088 62.224 59.56 62.224C58.984 62.224 58.368 62.104 57.712 61.864C57.056 61.64 56.44 61.32 55.864 60.904C55.304 60.488 54.84 60.008 54.472 59.464C54.12 58.904 53.944 58.304 53.944 57.664C53.944 56.896 54.232 56.136 54.808 55.384C55.4 54.616 56.176 53.912 57.136 53.272C58.112 52.632 59.16 52.12 60.28 51.736C61.352 51.336 62.456 51.048 63.592 50.872C64.728 50.68 65.752 50.584 66.664 50.584C67.896 50.584 69.008 50.792 70 51.208C70.992 51.608 71.784 52.2 72.376 52.984C72.968 53.768 73.264 54.712 73.264 55.816C73.264 56.744 73.088 57.6 72.736 58.384C72.384 59.168 71.816 59.848 71.032 60.424C70.264 60.984 69.24 61.424 67.96 61.744C67.416 61.856 66.872 61.936 66.328 61.984C65.8 62.048 65.296 62.096 64.816 62.128L63.712 59.032C64.256 59.032 64.776 59.024 65.272 59.008C65.784 58.976 66.248 58.928 66.664 58.864C67.32 58.736 67.912 58.544 68.44 58.288C68.968 58.032 69.384 57.696 69.688 57.28C69.992 56.864 70.144 56.368 70.144 55.792C70.144 55.248 69.992 54.784 69.688 54.4C69.4 54.016 68.992 53.72 68.464 53.512C67.936 53.304 67.32 53.2 66.616 53.2C65.608 53.2 64.584 53.304 63.544 53.512C62.52 53.72 61.536 54.008 60.592 54.376C59.888 54.648 59.256 54.968 58.696 55.336C58.136 55.688 57.696 56.056 57.376 56.44C57.056 56.824 56.896 57.192 56.896 57.544C56.896 57.736 56.952 57.92 57.064 58.096C57.192 58.256 57.352 58.4 57.544 58.528C57.736 58.656 57.928 58.76 58.12 58.84C58.328 58.904 58.504 58.936 58.648 58.936C58.872 58.936 59.056 58.872 59.2 58.744C59.344 58.6 59.416 58.328 59.416 57.928C59.416 57.496 59.4 56.88 59.368 56.08C59.352 55.264 59.328 54.36 59.296 53.368C59.28 52.376 59.272 51.392 59.272 50.416C59.272 49.744 59.272 49.064 59.272 48.376C59.288 47.688 59.296 47.032 59.296 46.408C59.296 45.784 59.296 45.232 59.296 44.752C59.312 44.272 59.32 43.896 59.32 43.624C59.32 43.448 59.312 43.224 59.296 42.952C59.28 42.68 59.256 42.408 59.224 42.136C59.208 41.848 59.184 41.64 59.152 41.512H62.464ZM69.304 44.104C69.912 44.392 70.592 44.744 71.344 45.16C72.112 45.576 72.84 45.992 73.528 46.408C74.232 46.808 74.792 47.168 75.208 47.488L73.768 49.936C73.464 49.68 73.064 49.392 72.568 49.072C72.088 48.752 71.56 48.424 70.984 48.088C70.424 47.752 69.88 47.44 69.352 47.152C68.824 46.848 68.368 46.608 67.984 46.432L69.304 44.104ZM54.592 45.424C55.296 45.504 55.912 45.56 56.44 45.592C56.984 45.608 57.472 45.616 57.904 45.616C58.528 45.616 59.216 45.592 59.968 45.544C60.72 45.48 61.488 45.4 62.272 45.304C63.056 45.192 63.816 45.064 64.552 44.92C65.304 44.776 65.984 44.616 66.592 44.44L66.664 47.416C65.992 47.576 65.264 47.72 64.48 47.848C63.696 47.96 62.904 48.064 62.104 48.16C61.32 48.256 60.568 48.328 59.848 48.376C59.144 48.424 58.528 48.448 58 48.448C57.2 48.448 56.544 48.44 56.032 48.424C55.52 48.408 55.056 48.376 54.64 48.328L54.592 45.424ZM85.168 59.584H95.896V62.2H85.168V59.584ZM83.944 42.976H92.464V45.52H83.944V42.976ZM84.592 40.48L87.832 41.104C87.144 42.272 86.352 43.408 85.456 44.512C84.576 45.6 83.568 46.648 82.432 47.656C81.312 48.648 80.032 49.568 78.592 50.416C78.448 50.176 78.256 49.92 78.016 49.648C77.776 49.36 77.528 49.08 77.272 48.808C77.016 48.536 76.776 48.32 76.552 48.16C77.88 47.456 79.056 46.68 80.08 45.832C81.12 44.984 82.016 44.104 82.768 43.192C83.52 42.264 84.128 41.36 84.592 40.48ZM91.552 42.976H92.08L92.56 42.832L94.552 43.864C93.848 45.736 92.936 47.448 91.816 49C90.712 50.536 89.44 51.92 88 53.152C86.576 54.384 85.032 55.456 83.368 56.368C81.704 57.28 79.976 58.04 78.184 58.648C78.072 58.376 77.92 58.08 77.728 57.76C77.536 57.44 77.336 57.128 77.128 56.824C76.92 56.52 76.712 56.264 76.504 56.056C78.168 55.592 79.776 54.96 81.328 54.16C82.896 53.344 84.344 52.392 85.672 51.304C87.016 50.216 88.192 49.016 89.2 47.704C90.208 46.376 90.992 44.96 91.552 43.456V42.976ZM80.8 48.232L82.96 46.384C83.52 46.768 84.104 47.2 84.712 47.68C85.336 48.16 85.92 48.648 86.464 49.144C87.024 49.624 87.48 50.08 87.832 50.512L85.504 52.576C85.2 52.16 84.784 51.696 84.256 51.184C83.728 50.656 83.16 50.136 82.552 49.624C81.944 49.112 81.36 48.648 80.8 48.232ZM94.576 52.288H97.552V63.16H94.576V52.288ZM86.392 52.288H96.016V54.88H86.392V63.136H83.488V54.4L85.696 52.288H86.392ZM101.08 44.176H122.92V46.792H101.08V44.176ZM103.936 52.336H110.152V54.472H103.936V52.336ZM103.936 56.032H110.152V58.144H103.936V56.032ZM113.992 48.688H116.632V58.528H113.992V48.688ZM109.168 48.424H111.928V60.328C111.928 60.92 111.856 61.4 111.712 61.768C111.568 62.136 111.296 62.424 110.896 62.632C110.48 62.84 109.992 62.968 109.432 63.016C108.888 63.064 108.248 63.088 107.512 63.088C107.432 62.72 107.304 62.296 107.128 61.816C106.968 61.352 106.792 60.96 106.6 60.64C107.032 60.656 107.464 60.672 107.896 60.688C108.328 60.688 108.616 60.68 108.76 60.664C108.904 60.664 109.008 60.632 109.072 60.568C109.136 60.504 109.168 60.408 109.168 60.28V48.424ZM118.792 48.016H121.624V59.992C121.624 60.696 121.536 61.24 121.36 61.624C121.2 62.024 120.888 62.344 120.424 62.584C119.96 62.792 119.4 62.928 118.744 62.992C118.088 63.056 117.32 63.08 116.44 63.064C116.376 62.68 116.24 62.224 116.032 61.696C115.84 61.168 115.632 60.72 115.408 60.352C116.032 60.384 116.616 60.4 117.16 60.4C117.72 60.4 118.096 60.392 118.288 60.376C118.48 60.376 118.608 60.352 118.672 60.304C118.752 60.24 118.792 60.128 118.792 59.968V48.016ZM104.392 41.536L107.128 40.576C107.56 41.056 107.992 41.584 108.424 42.16C108.856 42.736 109.176 43.256 109.384 43.72L106.456 44.728C106.296 44.296 106.016 43.776 105.616 43.168C105.232 42.56 104.824 42.016 104.392 41.536ZM116.728 40.528L119.848 41.464C119.368 42.232 118.872 42.984 118.36 43.72C117.864 44.44 117.4 45.064 116.968 45.592L114.376 44.704C114.664 44.32 114.952 43.888 115.24 43.408C115.528 42.928 115.8 42.44 116.056 41.944C116.328 41.432 116.552 40.96 116.728 40.528ZM102.4 48.424H109.96V50.848H105.112V63.016H102.4V48.424Z" fill="black"/>
<path d="M72.232 191.36C72.072 191.632 71.896 191.992 71.704 192.44C71.512 192.872 71.352 193.232 71.224 193.52C70.936 194.32 70.576 195.192 70.144 196.136C69.712 197.064 69.224 198 68.68 198.944C68.136 199.888 67.536 200.792 66.88 201.656C66.144 202.632 65.304 203.616 64.36 204.608C63.432 205.584 62.368 206.544 61.168 207.488C59.968 208.432 58.592 209.336 57.04 210.2L54.352 207.776C56.544 206.72 58.432 205.528 60.016 204.2C61.6 202.856 63.016 201.352 64.264 199.688C65.24 198.456 66.016 197.224 66.592 195.992C67.184 194.744 67.68 193.52 68.08 192.32C68.208 192 68.32 191.632 68.416 191.216C68.528 190.784 68.608 190.416 68.656 190.112L72.232 191.36ZM59.032 193.688C59.64 194.056 60.28 194.472 60.952 194.936C61.64 195.384 62.328 195.848 63.016 196.328C63.72 196.808 64.384 197.28 65.008 197.744C65.648 198.208 66.224 198.632 66.736 199.016C68.016 200.024 69.264 201.072 70.48 202.16C71.696 203.248 72.792 204.312 73.768 205.352L71.296 208.088C70.24 206.872 69.168 205.752 68.08 204.728C66.992 203.688 65.816 202.64 64.552 201.584C64.12 201.216 63.624 200.816 63.064 200.384C62.504 199.952 61.896 199.496 61.24 199.016C60.6 198.536 59.92 198.056 59.2 197.576C58.48 197.08 57.744 196.6 56.992 196.136L59.032 193.688ZM78.208 197.888C78.496 197.904 78.864 197.928 79.312 197.96C79.76 197.976 80.224 197.992 80.704 198.008C81.2 198.024 81.656 198.032 82.072 198.032C82.472 198.032 82.968 198.032 83.56 198.032C84.152 198.032 84.792 198.032 85.48 198.032C86.184 198.032 86.904 198.032 87.64 198.032C88.392 198.032 89.136 198.032 89.872 198.032C90.608 198.032 91.304 198.032 91.96 198.032C92.616 198.032 93.2 198.032 93.712 198.032C94.24 198.032 94.656 198.032 94.96 198.032C95.52 198.032 96.048 198.016 96.544 197.984C97.04 197.936 97.448 197.904 97.768 197.888V201.656C97.496 201.64 97.088 201.616 96.544 201.584C96 201.552 95.472 201.536 94.96 201.536C94.656 201.536 94.24 201.536 93.712 201.536C93.184 201.536 92.592 201.536 91.936 201.536C91.28 201.536 90.584 201.536 89.848 201.536C89.128 201.536 88.392 201.536 87.64 201.536C86.888 201.536 86.16 201.536 85.456 201.536C84.768 201.536 84.128 201.536 83.536 201.536C82.96 201.536 82.472 201.536 82.072 201.536C81.384 201.536 80.68 201.552 79.96 201.584C79.24 201.6 78.656 201.624 78.208 201.656V197.888ZM112.072 208.472C112.12 208.232 112.16 207.96 112.192 207.656C112.24 207.336 112.264 207.016 112.264 206.696C112.264 206.52 112.264 206.168 112.264 205.64C112.264 205.112 112.264 204.472 112.264 203.72C112.264 202.968 112.264 202.16 112.264 201.296C112.264 200.416 112.264 199.528 112.264 198.632C112.264 197.736 112.264 196.896 112.264 196.112C112.264 195.312 112.264 194.616 112.264 194.024C112.264 193.416 112.264 192.976 112.264 192.704C112.264 192.16 112.232 191.688 112.168 191.288C112.12 190.888 112.088 190.672 112.072 190.64H115.648C115.632 190.672 115.6 190.896 115.552 191.312C115.504 191.712 115.48 192.184 115.48 192.728C115.48 193 115.48 193.408 115.48 193.952C115.48 194.48 115.48 195.096 115.48 195.8C115.48 196.488 115.48 197.224 115.48 198.008C115.48 198.792 115.48 199.568 115.48 200.336C115.48 201.088 115.48 201.808 115.48 202.496C115.48 203.168 115.48 203.744 115.48 204.224C115.48 204.704 115.48 205.056 115.48 205.28C116.136 204.992 116.816 204.6 117.52 204.104C118.224 203.608 118.912 203.032 119.584 202.376C120.272 201.704 120.88 200.984 121.408 200.216L123.256 202.856C122.6 203.72 121.8 204.568 120.856 205.4C119.928 206.232 118.968 206.992 117.976 207.68C116.984 208.368 116.032 208.944 115.12 209.408C114.864 209.552 114.656 209.68 114.496 209.792C114.336 209.92 114.2 210.032 114.088 210.128L112.072 208.472ZM100.96 208.112C102.016 207.376 102.88 206.488 103.552 205.448C104.224 204.408 104.72 203.384 105.04 202.376C105.216 201.848 105.344 201.2 105.424 200.432C105.52 199.648 105.592 198.816 105.64 197.936C105.688 197.04 105.712 196.16 105.712 195.296C105.728 194.416 105.736 193.608 105.736 192.872C105.736 192.392 105.712 191.984 105.664 191.648C105.632 191.296 105.584 190.968 105.52 190.664H109.048C109.032 190.696 109.008 190.832 108.976 191.072C108.96 191.296 108.936 191.568 108.904 191.888C108.888 192.192 108.88 192.512 108.88 192.848C108.88 193.552 108.872 194.376 108.856 195.32C108.84 196.248 108.808 197.2 108.76 198.176C108.712 199.152 108.64 200.08 108.544 200.96C108.448 201.824 108.32 202.56 108.16 203.168C107.792 204.528 107.24 205.792 106.504 206.96C105.784 208.112 104.912 209.144 103.888 210.056L100.96 208.112ZM146.92 192.752C146.792 192.912 146.632 193.12 146.44 193.376C146.248 193.616 146.096 193.824 145.984 194C145.616 194.624 145.128 195.344 144.52 196.16C143.912 196.96 143.24 197.76 142.504 198.56C141.768 199.344 141.008 200.016 140.224 200.576L137.728 198.584C138.208 198.296 138.68 197.96 139.144 197.576C139.608 197.192 140.032 196.792 140.416 196.376C140.816 195.944 141.16 195.536 141.448 195.152C141.752 194.768 141.984 194.424 142.144 194.12C141.936 194.12 141.584 194.12 141.088 194.12C140.592 194.12 140 194.12 139.312 194.12C138.624 194.12 137.88 194.12 137.08 194.12C136.296 194.12 135.512 194.12 134.728 194.12C133.944 194.12 133.2 194.12 132.496 194.12C131.808 194.12 131.208 194.12 130.696 194.12C130.2 194.12 129.848 194.12 129.64 194.12C129.144 194.12 128.672 194.136 128.224 194.168C127.776 194.2 127.272 194.24 126.712 194.288V190.952C127.176 191.016 127.656 191.072 128.152 191.12C128.648 191.168 129.144 191.192 129.64 191.192C129.848 191.192 130.216 191.192 130.744 191.192C131.272 191.192 131.896 191.192 132.616 191.192C133.352 191.192 134.128 191.192 134.944 191.192C135.776 191.192 136.6 191.192 137.416 191.192C138.248 191.192 139.016 191.192 139.72 191.192C140.44 191.192 141.048 191.192 141.544 191.192C142.056 191.192 142.4 191.192 142.576 191.192C142.8 191.192 143.072 191.184 143.392 191.168C143.712 191.152 144.024 191.128 144.328 191.096C144.648 191.064 144.88 191.024 145.024 190.976L146.92 192.752ZM137.128 195.992C137.128 197.176 137.104 198.32 137.056 199.424C137.008 200.528 136.872 201.592 136.648 202.616C136.44 203.624 136.096 204.584 135.616 205.496C135.152 206.408 134.504 207.272 133.672 208.088C132.84 208.904 131.776 209.656 130.48 210.344L127.672 208.064C128.056 207.936 128.464 207.768 128.896 207.56C129.328 207.336 129.76 207.064 130.192 206.744C130.96 206.216 131.576 205.656 132.04 205.064C132.52 204.472 132.888 203.832 133.144 203.144C133.4 202.44 133.576 201.68 133.672 200.864C133.768 200.032 133.816 199.128 133.816 198.152C133.816 197.784 133.808 197.432 133.792 197.096C133.776 196.744 133.728 196.376 133.648 195.992H137.128ZM164.368 191.144C164.592 191.464 164.84 191.84 165.112 192.272C165.384 192.704 165.64 193.136 165.88 193.568C166.136 194 166.36 194.4 166.552 194.768L164.464 195.704C164.24 195.192 164.016 194.736 163.792 194.336C163.584 193.936 163.368 193.552 163.144 193.184C162.92 192.8 162.656 192.4 162.352 191.984L164.368 191.144ZM167.512 189.824C167.752 190.144 168.008 190.512 168.28 190.928C168.568 191.344 168.84 191.768 169.096 192.2C169.368 192.616 169.592 193.008 169.768 193.376L167.752 194.36C167.496 193.848 167.248 193.4 167.008 193.016C166.784 192.616 166.552 192.24 166.312 191.888C166.088 191.52 165.824 191.144 165.52 190.76L167.512 189.824ZM154.792 207.056C154.792 206.736 154.792 206.232 154.792 205.544C154.792 204.84 154.792 204.032 154.792 203.12C154.792 202.192 154.792 201.232 154.792 200.24C154.792 199.232 154.792 198.264 154.792 197.336C154.792 196.392 154.792 195.56 154.792 194.84C154.792 194.12 154.792 193.592 154.792 193.256C154.792 192.824 154.768 192.336 154.72 191.792C154.688 191.248 154.632 190.768 154.552 190.352H158.296C158.248 190.768 158.2 191.232 158.152 191.744C158.104 192.256 158.08 192.76 158.08 193.256C158.08 193.688 158.08 194.288 158.08 195.056C158.08 195.824 158.08 196.68 158.08 197.624C158.08 198.552 158.08 199.504 158.08 200.48C158.08 201.456 158.08 202.392 158.08 203.288C158.08 204.168 158.08 204.944 158.08 205.616C158.08 206.272 158.08 206.752 158.08 207.056C158.08 207.264 158.088 207.576 158.104 207.992C158.136 208.392 158.168 208.808 158.2 209.24C158.248 209.672 158.288 210.056 158.32 210.392H154.552C154.632 209.928 154.688 209.376 154.72 208.736C154.768 208.08 154.792 207.52 154.792 207.056ZM157.384 196.568C158.184 196.776 159.072 197.048 160.048 197.384C161.04 197.704 162.04 198.056 163.048 198.44C164.056 198.808 165.008 199.176 165.904 199.544C166.8 199.896 167.536 200.216 168.112 200.504L166.768 203.84C166.08 203.472 165.328 203.112 164.512 202.76C163.696 202.408 162.864 202.064 162.016 201.728C161.184 201.376 160.368 201.056 159.568 200.768C158.768 200.48 158.04 200.232 157.384 200.024V196.568ZM176.68 208.04C176.824 207.736 176.912 207.472 176.944 207.248C176.976 207.024 176.992 206.768 176.992 206.48C176.992 206.176 176.992 205.712 176.992 205.088C176.992 204.464 176.992 203.744 176.992 202.928C176.992 202.096 176.992 201.224 176.992 200.312C176.992 199.4 176.992 198.504 176.992 197.624C176.992 196.744 176.992 195.944 176.992 195.224C176.992 194.504 176.992 193.92 176.992 193.472C176.992 193.168 176.976 192.848 176.944 192.512C176.928 192.176 176.896 191.856 176.848 191.552C176.816 191.232 176.776 190.96 176.728 190.736H180.496C180.432 191.2 180.376 191.656 180.328 192.104C180.28 192.552 180.256 193.008 180.256 193.472C180.256 193.856 180.256 194.336 180.256 194.912C180.256 195.472 180.256 196.096 180.256 196.784C180.256 197.472 180.256 198.184 180.256 198.92C180.256 199.656 180.256 200.384 180.256 201.104C180.256 201.824 180.256 202.504 180.256 203.144C180.256 203.784 180.256 204.344 180.256 204.824C180.256 205.304 180.256 205.68 180.256 205.952C181.232 205.664 182.272 205.272 183.376 204.776C184.496 204.264 185.616 203.664 186.736 202.976C187.872 202.272 188.936 201.504 189.928 200.672C190.936 199.84 191.824 198.952 192.592 198.008L194.296 200.72C192.664 202.688 190.64 204.392 188.224 205.832C185.824 207.256 183.208 208.432 180.376 209.36C180.216 209.424 180.008 209.504 179.752 209.6C179.496 209.696 179.232 209.832 178.96 210.008L176.68 208.04ZM216.016 192.728C215.92 192.872 215.776 193.096 215.584 193.4C215.408 193.704 215.272 193.984 215.176 194.24C214.84 194.992 214.424 195.832 213.928 196.76C213.448 197.688 212.896 198.624 212.272 199.568C211.664 200.496 211.016 201.368 210.328 202.184C209.432 203.192 208.44 204.192 207.352 205.184C206.28 206.16 205.144 207.064 203.944 207.896C202.76 208.712 201.544 209.416 200.296 210.008L197.824 207.416C199.12 206.92 200.376 206.296 201.592 205.544C202.808 204.792 203.936 203.976 204.976 203.096C206.016 202.216 206.912 201.36 207.664 200.528C208.192 199.92 208.688 199.272 209.152 198.584C209.632 197.896 210.056 197.216 210.424 196.544C210.792 195.856 211.064 195.224 211.24 194.648C211.08 194.648 210.792 194.648 210.376 194.648C209.96 194.648 209.472 194.648 208.912 194.648C208.368 194.648 207.792 194.648 207.184 194.648C206.576 194.648 205.992 194.648 205.432 194.648C204.888 194.648 204.408 194.648 203.992 194.648C203.576 194.648 203.28 194.648 203.104 194.648C202.768 194.648 202.416 194.664 202.048 194.696C201.68 194.712 201.328 194.736 200.992 194.768C200.672 194.784 200.424 194.8 200.248 194.816V191.408C200.488 191.424 200.784 191.448 201.136 191.48C201.488 191.512 201.84 191.536 202.192 191.552C202.56 191.568 202.864 191.576 203.104 191.576C203.312 191.576 203.64 191.576 204.088 191.576C204.536 191.576 205.048 191.576 205.624 191.576C206.2 191.576 206.792 191.576 207.4 191.576C208.024 191.576 208.616 191.576 209.176 191.576C209.752 191.576 210.248 191.576 210.664 191.576C211.08 191.576 211.384 191.576 211.576 191.576C212.104 191.576 212.584 191.544 213.016 191.48C213.464 191.416 213.808 191.344 214.048 191.264L216.016 192.728ZM210.64 200.192C211.264 200.688 211.928 201.264 212.632 201.92C213.336 202.576 214.032 203.256 214.72 203.96C215.408 204.664 216.04 205.344 216.616 206C217.208 206.64 217.704 207.2 218.104 207.68L215.368 210.056C214.776 209.24 214.096 208.392 213.328 207.512C212.576 206.632 211.776 205.76 210.928 204.896C210.096 204.016 209.248 203.184 208.384 202.4L210.64 200.192Z" fill="black"/>
<path d="M72.232 339.36C72.072 339.632 71.896 339.992 71.704 340.44C71.512 340.872 71.352 341.232 71.224 341.52C70.936 342.32 70.576 343.192 70.144 344.136C69.712 345.064 69.224 346 68.68 346.944C68.136 347.888 67.536 348.792 66.88 349.656C66.144 350.632 65.304 351.616 64.36 352.608C63.432 353.584 62.368 354.544 61.168 355.488C59.968 356.432 58.592 357.336 57.04 358.2L54.352 355.776C56.544 354.72 58.432 353.528 60.016 352.2C61.6 350.856 63.016 349.352 64.264 347.688C65.24 346.456 66.016 345.224 66.592 343.992C67.184 342.744 67.68 341.52 68.08 340.32C68.208 340 68.32 339.632 68.416 339.216C68.528 338.784 68.608 338.416 68.656 338.112L72.232 339.36ZM59.032 341.688C59.64 342.056 60.28 342.472 60.952 342.936C61.64 343.384 62.328 343.848 63.016 344.328C63.72 344.808 64.384 345.28 65.008 345.744C65.648 346.208 66.224 346.632 66.736 347.016C68.016 348.024 69.264 349.072 70.48 350.16C71.696 351.248 72.792 352.312 73.768 353.352L71.296 356.088C70.24 354.872 69.168 353.752 68.08 352.728C66.992 351.688 65.816 350.64 64.552 349.584C64.12 349.216 63.624 348.816 63.064 348.384C62.504 347.952 61.896 347.496 61.24 347.016C60.6 346.536 59.92 346.056 59.2 345.576C58.48 345.08 57.744 344.6 56.992 344.136L59.032 341.688ZM88.12 342.744C88.232 343 88.376 343.368 88.552 343.848C88.744 344.312 88.944 344.816 89.152 345.36C89.36 345.888 89.544 346.392 89.704 346.872C89.864 347.352 89.992 347.728 90.088 348L87.208 349.008C87.144 348.704 87.032 348.32 86.872 347.856C86.712 347.392 86.536 346.904 86.344 346.392C86.152 345.864 85.96 345.36 85.768 344.88C85.576 344.4 85.408 344 85.264 343.68L88.12 342.744ZM96.976 344.496C96.848 344.88 96.736 345.208 96.64 345.48C96.56 345.752 96.48 346.008 96.4 346.248C96.096 347.464 95.68 348.68 95.152 349.896C94.624 351.096 93.952 352.224 93.136 353.28C92.016 354.72 90.744 355.944 89.32 356.952C87.912 357.944 86.504 358.704 85.096 359.232L82.576 356.664C83.456 356.424 84.384 356.072 85.36 355.608C86.336 355.128 87.28 354.552 88.192 353.88C89.104 353.208 89.888 352.464 90.544 351.648C91.088 350.96 91.568 350.176 91.984 349.296C92.416 348.4 92.768 347.448 93.04 346.44C93.328 345.416 93.52 344.408 93.616 343.416L96.976 344.496ZM82.552 344.016C82.712 344.32 82.888 344.712 83.08 345.192C83.288 345.672 83.496 346.176 83.704 346.704C83.912 347.232 84.112 347.744 84.304 348.24C84.512 348.736 84.672 349.152 84.784 349.488L81.856 350.592C81.76 350.272 81.616 349.856 81.424 349.344C81.248 348.832 81.048 348.296 80.824 347.736C80.6 347.16 80.384 346.632 80.176 346.152C79.984 345.672 79.816 345.304 79.672 345.048L82.552 344.016ZM106.768 353.808C106.768 353.472 106.768 352.992 106.768 352.368C106.768 351.728 106.768 351.008 106.768 350.208C106.768 349.392 106.768 348.544 106.768 347.664C106.768 346.768 106.768 345.896 106.768 345.048C106.768 344.184 106.768 343.384 106.768 342.648C106.768 341.912 106.768 341.296 106.768 340.8C106.768 340.544 106.76 340.248 106.744 339.912C106.744 339.576 106.728 339.24 106.696 338.904C106.664 338.568 106.624 338.28 106.576 338.04H110.152C110.104 338.408 110.056 338.864 110.008 339.408C109.96 339.936 109.936 340.4 109.936 340.8C109.936 341.28 109.936 341.856 109.936 342.528C109.936 343.184 109.936 343.896 109.936 344.664C109.936 345.416 109.936 346.184 109.936 346.968C109.936 347.752 109.936 348.52 109.936 349.272C109.936 350.024 109.936 350.712 109.936 351.336C109.936 351.96 109.936 352.504 109.936 352.968C109.936 353.448 110.008 353.84 110.152 354.144C110.296 354.448 110.584 354.664 111.016 354.792C111.464 354.92 112.128 354.984 113.008 354.984C113.856 354.984 114.704 354.952 115.552 354.888C116.416 354.808 117.272 354.712 118.12 354.6C118.968 354.472 119.784 354.328 120.568 354.168L120.472 357.432C119.816 357.528 119.072 357.616 118.24 357.696C117.408 357.776 116.544 357.84 115.648 357.888C114.768 357.936 113.896 357.96 113.032 357.96C111.672 357.96 110.576 357.872 109.744 357.696C108.912 357.536 108.28 357.288 107.848 356.952C107.432 356.616 107.144 356.184 106.984 355.656C106.84 355.128 106.768 354.512 106.768 353.808ZM121.888 343.248C121.776 343.424 121.64 343.64 121.48 343.896C121.336 344.136 121.208 344.36 121.096 344.568C120.84 345.064 120.512 345.624 120.112 346.248C119.728 346.872 119.312 347.512 118.864 348.168C118.416 348.824 117.952 349.448 117.472 350.04C117.008 350.632 116.56 351.136 116.128 351.552L113.488 349.992C114.016 349.528 114.528 349 115.024 348.408C115.536 347.8 115.992 347.208 116.392 346.632C116.792 346.04 117.104 345.544 117.328 345.144C117.104 345.176 116.712 345.256 116.152 345.384C115.608 345.496 114.936 345.632 114.136 345.792C113.336 345.952 112.464 346.128 111.52 346.32C110.576 346.496 109.624 346.68 108.664 346.872C107.704 347.064 106.776 347.256 105.88 347.448C104.984 347.624 104.176 347.792 103.456 347.952C102.736 348.096 102.16 348.216 101.728 348.312L101.152 345.168C101.616 345.104 102.224 345.016 102.976 344.904C103.728 344.776 104.568 344.632 105.496 344.472C106.424 344.296 107.392 344.112 108.4 343.92C109.408 343.728 110.408 343.536 111.4 343.344C112.392 343.152 113.32 342.976 114.184 342.816C115.048 342.64 115.8 342.488 116.44 342.36C117.08 342.216 117.56 342.104 117.88 342.024C118.216 341.944 118.528 341.864 118.816 341.784C119.104 341.688 119.36 341.584 119.584 341.472L121.888 343.248ZM126.208 345.888C126.496 345.904 126.864 345.928 127.312 345.96C127.76 345.976 128.224 345.992 128.704 346.008C129.2 346.024 129.656 346.032 130.072 346.032C130.472 346.032 130.968 346.032 131.56 346.032C132.152 346.032 132.792 346.032 133.48 346.032C134.184 346.032 134.904 346.032 135.64 346.032C136.392 346.032 137.136 346.032 137.872 346.032C138.608 346.032 139.304 346.032 139.96 346.032C140.616 346.032 141.2 346.032 141.712 346.032C142.24 346.032 142.656 346.032 142.96 346.032C143.52 346.032 144.048 346.016 144.544 345.984C145.04 345.936 145.448 345.904 145.768 345.888V349.656C145.496 349.64 145.088 349.616 144.544 349.584C144 349.552 143.472 349.536 142.96 349.536C142.656 349.536 142.24 349.536 141.712 349.536C141.184 349.536 140.592 349.536 139.936 349.536C139.28 349.536 138.584 349.536 137.848 349.536C137.128 349.536 136.392 349.536 135.64 349.536C134.888 349.536 134.16 349.536 133.456 349.536C132.768 349.536 132.128 349.536 131.536 349.536C130.96 349.536 130.472 349.536 130.072 349.536C129.384 349.536 128.68 349.552 127.96 349.584C127.24 349.6 126.656 349.624 126.208 349.656V345.888ZM165.051 338.568C165.275 338.904 165.515 339.296 165.771 339.744C166.043 340.176 166.307 340.616 166.563 341.064C166.819 341.496 167.043 341.904 167.235 342.288L165.147 343.176C164.907 342.664 164.683 342.208 164.475 341.808C164.267 341.392 164.043 340.992 163.803 340.608C163.579 340.208 163.323 339.808 163.035 339.408L165.051 338.568ZM168.339 337.416C168.595 337.72 168.859 338.088 169.131 338.52C169.403 338.952 169.667 339.384 169.923 339.816C170.179 340.248 170.403 340.64 170.595 340.992L168.555 341.904C168.299 341.408 168.051 340.96 167.811 340.56C167.587 340.16 167.355 339.776 167.115 339.408C166.875 339.04 166.603 338.656 166.299 338.256L168.339 337.416ZM154.611 338.112C155.011 338.32 155.459 338.576 155.955 338.88C156.451 339.184 156.955 339.504 157.467 339.84C157.979 340.16 158.467 340.472 158.931 340.776C159.395 341.064 159.779 341.32 160.083 341.544L158.307 344.184C157.971 343.96 157.571 343.696 157.107 343.392C156.659 343.088 156.179 342.776 155.667 342.456C155.171 342.136 154.675 341.832 154.179 341.544C153.699 341.24 153.267 340.976 152.883 340.752L154.611 338.112ZM150.171 355.152C151.067 354.992 151.979 354.792 152.907 354.552C153.835 354.312 154.755 354.024 155.667 353.688C156.579 353.336 157.467 352.92 158.331 352.44C159.691 351.672 160.955 350.808 162.123 349.848C163.307 348.888 164.371 347.872 165.315 346.8C166.259 345.712 167.043 344.592 167.667 343.44L169.515 346.704C168.411 348.368 167.035 349.944 165.387 351.432C163.755 352.904 161.955 354.208 159.987 355.344C159.171 355.792 158.275 356.224 157.299 356.64C156.323 357.04 155.363 357.384 154.419 357.672C153.491 357.96 152.675 358.168 151.971 358.296L150.171 355.152ZM150.915 343.584C151.315 343.792 151.771 344.048 152.283 344.352C152.795 344.656 153.307 344.968 153.819 345.288C154.331 345.592 154.811 345.896 155.259 346.2C155.723 346.488 156.107 346.744 156.411 346.968L154.659 349.656C154.307 349.416 153.899 349.144 153.435 348.84C152.987 348.536 152.507 348.224 151.995 347.904C151.499 347.584 151.003 347.28 150.507 346.992C150.027 346.688 149.587 346.432 149.187 346.224L150.915 343.584Z" fill="black"/>
<rect x="72.5" y="95.5" width="907" height="65" rx="6.5" fill="white" stroke="black"/>
<rect x="72.5" y="226.5" width="907" height="74" rx="6.5" fill="white" stroke="black"/>
<rect x="72.5" y="386.5" width="907" height="139" rx="6.5" fill="white" stroke="black"/>
<path d="M108.152 114.432C108.109 114.624 108.077 114.848 108.056 115.104C108.035 115.339 108.013 115.595 107.992 115.872C107.971 116.149 107.949 116.405 107.928 116.64C107.907 117.131 107.875 117.771 107.832 118.56C107.811 119.349 107.789 120.224 107.768 121.184C107.747 122.123 107.725 123.083 107.704 124.064C107.683 125.024 107.672 125.92 107.672 126.752C107.672 127.584 107.672 128.501 107.672 129.504C107.693 130.485 107.715 131.467 107.736 132.448C107.779 133.408 107.8 134.304 107.8 135.136C107.821 135.947 107.832 136.597 107.832 137.088C107.832 138.069 107.715 138.848 107.48 139.424C107.245 140 106.915 140.405 106.488 140.64C106.083 140.896 105.592 141.024 105.016 141.024C104.397 141.024 103.704 140.875 102.936 140.576C102.168 140.299 101.432 139.915 100.728 139.424C100.045 138.933 99.48 138.368 99.032 137.728C98.584 137.088 98.36 136.416 98.36 135.712C98.36 134.752 98.7227 133.813 99.448 132.896C100.195 131.979 101.155 131.125 102.328 130.336C103.523 129.547 104.781 128.907 106.104 128.416C107.555 127.84 109.037 127.413 110.552 127.136C112.067 126.837 113.453 126.688 114.712 126.688C116.269 126.688 117.645 126.955 118.84 127.488C120.056 128.021 121.005 128.768 121.688 129.728C122.392 130.667 122.744 131.776 122.744 133.056C122.744 134.336 122.477 135.467 121.944 136.448C121.432 137.429 120.664 138.251 119.64 138.912C118.637 139.573 117.4 140.085 115.928 140.448C115.224 140.597 114.52 140.693 113.816 140.736C113.133 140.8 112.515 140.853 111.96 140.896L111.064 138.304C111.661 138.325 112.28 138.325 112.92 138.304C113.581 138.283 114.211 138.208 114.808 138.08C115.747 137.909 116.621 137.621 117.432 137.216C118.264 136.789 118.925 136.235 119.416 135.552C119.928 134.869 120.184 134.048 120.184 133.088C120.184 132.171 119.939 131.403 119.448 130.784C118.957 130.165 118.296 129.696 117.464 129.376C116.632 129.056 115.704 128.896 114.68 128.896C113.272 128.896 111.896 129.045 110.552 129.344C109.208 129.643 107.843 130.069 106.456 130.624C105.432 131.008 104.493 131.488 103.64 132.064C102.787 132.619 102.104 133.205 101.592 133.824C101.101 134.443 100.856 135.029 100.856 135.584C100.856 135.947 100.973 136.299 101.208 136.64C101.464 136.96 101.773 137.248 102.136 137.504C102.499 137.76 102.883 137.963 103.288 138.112C103.693 138.24 104.045 138.304 104.344 138.304C104.707 138.304 104.984 138.176 105.176 137.92C105.389 137.664 105.496 137.269 105.496 136.736C105.496 136.117 105.485 135.264 105.464 134.176C105.443 133.067 105.421 131.872 105.4 130.592C105.379 129.291 105.368 128.053 105.368 126.88C105.368 125.963 105.368 124.981 105.368 123.936C105.389 122.891 105.4 121.877 105.4 120.896C105.421 119.915 105.432 119.051 105.432 118.304C105.453 117.557 105.464 117.024 105.464 116.704C105.464 116.491 105.453 116.245 105.432 115.968C105.432 115.669 105.421 115.381 105.4 115.104C105.379 114.827 105.347 114.603 105.304 114.432H108.152ZM118.072 117.984C118.84 118.389 119.693 118.88 120.632 119.456C121.571 120.011 122.467 120.576 123.32 121.152C124.195 121.728 124.888 122.229 125.4 122.656L124.088 124.704C123.704 124.32 123.213 123.915 122.616 123.488C122.019 123.04 121.379 122.603 120.696 122.176C120.013 121.728 119.341 121.312 118.68 120.928C118.019 120.523 117.432 120.181 116.92 119.904L118.072 117.984ZM98.872 120.192C99.7467 120.299 100.493 120.373 101.112 120.416C101.752 120.437 102.371 120.448 102.968 120.448C103.757 120.448 104.643 120.405 105.624 120.32C106.605 120.235 107.619 120.128 108.664 120C109.709 119.851 110.723 119.68 111.704 119.488C112.707 119.275 113.603 119.051 114.392 118.816L114.456 121.312C113.624 121.504 112.696 121.696 111.672 121.888C110.648 122.059 109.603 122.208 108.536 122.336C107.491 122.464 106.488 122.571 105.528 122.656C104.568 122.741 103.736 122.784 103.032 122.784C102.115 122.784 101.336 122.773 100.696 122.752C100.077 122.731 99.4907 122.688 98.936 122.624L98.872 120.192ZM138.68 139.072H154.104V141.28H138.68V139.072ZM137.56 116.32H149.304V118.496H137.56V116.32ZM139 113.024L141.72 113.536C140.909 114.923 139.939 116.32 138.808 117.728C137.677 119.115 136.376 120.459 134.904 121.76C133.432 123.061 131.768 124.256 129.912 125.344C129.805 125.152 129.645 124.939 129.432 124.704C129.24 124.469 129.037 124.245 128.824 124.032C128.611 123.797 128.408 123.616 128.216 123.488C129.965 122.528 131.533 121.461 132.92 120.288C134.328 119.093 135.533 117.877 136.536 116.64C137.56 115.381 138.381 114.176 139 113.024ZM148.504 116.32H148.984L149.4 116.192L151 117.088C150.04 119.499 148.792 121.707 147.256 123.712C145.72 125.717 143.981 127.509 142.04 129.088C140.12 130.667 138.083 132.043 135.928 133.216C133.795 134.368 131.629 135.296 129.432 136C129.347 135.787 129.219 135.541 129.048 135.264C128.899 134.987 128.728 134.72 128.536 134.464C128.365 134.208 128.205 134.005 128.056 133.856C130.125 133.259 132.195 132.427 134.264 131.36C136.333 130.293 138.285 129.024 140.12 127.552C141.976 126.08 143.629 124.437 145.08 122.624C146.552 120.811 147.693 118.859 148.504 116.768V116.32ZM133.592 122.016L135.352 120.512C136.205 121.067 137.08 121.707 137.976 122.432C138.893 123.157 139.747 123.883 140.536 124.608C141.325 125.333 141.965 126.005 142.456 126.624L140.504 128.32C140.056 127.701 139.448 127.019 138.68 126.272C137.912 125.525 137.08 124.779 136.184 124.032C135.288 123.285 134.424 122.613 133.592 122.016ZM152.952 128.928H155.416V142.624H152.952V128.928ZM139.768 128.928H154.168V131.136H139.768V142.56H137.368V130.848L139.288 128.928H139.768ZM160.696 118.176H189.304V120.384H160.696V118.176ZM163.992 128.48H172.984V130.368H163.992V128.48ZM163.992 133.6H172.984V135.488H163.992V133.6ZM178.328 123.552H180.568V136.672H178.328V123.552ZM172.088 123.264H174.424V139.808C174.424 140.405 174.339 140.875 174.168 141.216C174.019 141.557 173.72 141.824 173.272 142.016C172.824 142.208 172.237 142.325 171.512 142.368C170.808 142.411 169.912 142.432 168.824 142.432C168.76 142.133 168.643 141.771 168.472 141.344C168.323 140.939 168.163 140.587 167.992 140.288C168.803 140.309 169.539 140.32 170.2 140.32C170.861 140.341 171.299 140.341 171.512 140.32C171.747 140.32 171.896 140.277 171.96 140.192C172.045 140.107 172.088 139.968 172.088 139.776V123.264ZM184.824 122.592H187.192V139.584C187.192 140.267 187.096 140.789 186.904 141.152C186.712 141.536 186.36 141.824 185.848 142.016C185.357 142.208 184.696 142.325 183.864 142.368C183.053 142.432 182.029 142.453 180.792 142.432C180.728 142.112 180.611 141.728 180.44 141.28C180.269 140.853 180.099 140.469 179.928 140.128C180.888 140.171 181.763 140.192 182.552 140.192C183.341 140.192 183.875 140.181 184.152 140.16C184.408 140.16 184.579 140.117 184.664 140.032C184.771 139.947 184.824 139.787 184.824 139.552V122.592ZM165.656 113.888L167.896 113.088C168.515 113.749 169.123 114.507 169.72 115.36C170.317 116.213 170.776 116.949 171.096 117.568L168.728 118.464C168.472 117.845 168.045 117.109 167.448 116.256C166.872 115.381 166.275 114.592 165.656 113.888ZM182.136 112.96L184.696 113.792C184.099 114.795 183.448 115.808 182.744 116.832C182.061 117.856 181.432 118.741 180.856 119.488L178.712 118.72C179.117 118.187 179.533 117.589 179.96 116.928C180.387 116.245 180.781 115.563 181.144 114.88C181.528 114.176 181.859 113.536 182.136 112.96ZM162.712 123.264H172.856V125.312H164.984V142.4H162.712V123.264ZM205.72 114.688C205.592 115.328 205.421 116.085 205.208 116.96C205.016 117.813 204.696 118.784 204.248 119.872C203.864 120.832 203.384 121.824 202.808 122.848C202.253 123.872 201.656 124.8 201.016 125.632C201.421 125.376 201.88 125.163 202.392 124.992C202.904 124.8 203.427 124.661 203.96 124.576C204.515 124.491 205.016 124.448 205.464 124.448C206.701 124.448 207.747 124.8 208.6 125.504C209.453 126.187 209.88 127.189 209.88 128.512C209.88 128.917 209.88 129.44 209.88 130.08C209.88 130.699 209.88 131.36 209.88 132.064C209.901 132.747 209.923 133.419 209.944 134.08C209.965 134.741 209.976 135.317 209.976 135.808H207.512C207.533 135.381 207.555 134.88 207.576 134.304C207.597 133.728 207.608 133.12 207.608 132.48C207.629 131.84 207.629 131.232 207.608 130.656C207.608 130.08 207.608 129.589 207.608 129.184C207.608 128.245 207.32 127.563 206.744 127.136C206.189 126.688 205.485 126.464 204.632 126.464C203.629 126.464 202.637 126.688 201.656 127.136C200.696 127.563 199.853 128.117 199.128 128.8C198.659 129.248 198.189 129.76 197.72 130.336C197.272 130.891 196.771 131.488 196.216 132.128L194.04 130.528C195.576 129.035 196.856 127.637 197.88 126.336C198.904 125.035 199.736 123.829 200.376 122.72C201.016 121.589 201.517 120.576 201.88 119.68C202.221 118.784 202.499 117.888 202.712 116.992C202.925 116.075 203.053 115.232 203.096 114.464L205.72 114.688ZM194.776 118.144C195.629 118.251 196.557 118.336 197.56 118.4C198.563 118.464 199.437 118.496 200.184 118.496C201.613 118.496 203.149 118.464 204.792 118.4C206.435 118.315 208.088 118.197 209.752 118.048C211.437 117.899 213.037 117.685 214.552 117.408L214.52 119.776C213.411 119.968 212.227 120.128 210.968 120.256C209.709 120.363 208.429 120.459 207.128 120.544C205.827 120.608 204.568 120.661 203.352 120.704C202.157 120.725 201.048 120.736 200.024 120.736C199.576 120.736 199.053 120.736 198.456 120.736C197.88 120.715 197.272 120.693 196.632 120.672C195.992 120.629 195.373 120.587 194.776 120.544V118.144ZM219.224 125.888C218.947 125.952 218.637 126.048 218.296 126.176C217.976 126.283 217.645 126.4 217.304 126.528C216.984 126.656 216.675 126.784 216.376 126.912C215.267 127.339 213.976 127.861 212.504 128.48C211.032 129.099 209.528 129.813 207.992 130.624C206.925 131.157 205.987 131.723 205.176 132.32C204.365 132.896 203.725 133.504 203.256 134.144C202.787 134.763 202.552 135.445 202.552 136.192C202.552 136.811 202.691 137.312 202.968 137.696C203.267 138.08 203.683 138.379 204.216 138.592C204.749 138.784 205.357 138.912 206.04 138.976C206.744 139.04 207.512 139.072 208.344 139.072C209.581 139.072 210.989 139.008 212.568 138.88C214.168 138.731 215.672 138.539 217.08 138.304L217.016 140.864C216.205 140.971 215.288 141.067 214.264 141.152C213.261 141.237 212.237 141.301 211.192 141.344C210.168 141.408 209.187 141.44 208.248 141.44C206.733 141.44 205.347 141.301 204.088 141.024C202.851 140.747 201.859 140.256 201.112 139.552C200.365 138.848 199.992 137.845 199.992 136.544C199.992 135.584 200.216 134.709 200.664 133.92C201.112 133.109 201.709 132.373 202.456 131.712C203.224 131.051 204.067 130.443 204.984 129.888C205.901 129.312 206.84 128.789 207.8 128.32C208.824 127.765 209.784 127.285 210.68 126.88C211.597 126.475 212.461 126.101 213.272 125.76C214.083 125.419 214.84 125.077 215.544 124.736C216.013 124.523 216.461 124.32 216.888 124.128C217.315 123.936 217.741 123.723 218.168 123.488L219.224 125.888ZM230.296 115.072H239.352V117.504H230.296V115.072ZM238.136 115.072H240.568C240.568 116.011 240.611 117.12 240.696 118.4C240.781 119.68 240.963 121.056 241.24 122.528C241.517 123.979 241.944 125.493 242.52 127.072C243.096 128.651 243.875 130.229 244.856 131.808C245.837 133.365 247.064 134.88 248.536 136.352C250.029 137.824 251.832 139.179 253.944 140.416C253.773 140.565 253.549 140.757 253.272 140.992C253.016 141.248 252.771 141.504 252.536 141.76C252.323 142.037 252.141 142.272 251.992 142.464C249.859 141.163 248.024 139.733 246.488 138.176C244.973 136.597 243.704 134.955 242.68 133.248C241.677 131.541 240.867 129.835 240.248 128.128C239.651 126.4 239.192 124.736 238.872 123.136C238.573 121.515 238.371 120.011 238.264 118.624C238.179 117.237 238.136 116.053 238.136 115.072ZM237.208 121.344L239.928 121.824C239.16 125.067 238.157 127.989 236.92 130.592C235.704 133.195 234.221 135.488 232.472 137.472C230.744 139.435 228.696 141.109 226.328 142.496C226.2 142.325 225.997 142.123 225.72 141.888C225.464 141.653 225.187 141.408 224.888 141.152C224.611 140.917 224.365 140.725 224.152 140.576C227.715 138.699 230.541 136.16 232.632 132.96C234.723 129.739 236.248 125.867 237.208 121.344ZM257.656 120.096H282.488V122.56H257.656V120.096ZM281.56 120.096H284.024C284.024 120.096 284.024 120.181 284.024 120.352C284.024 120.523 284.013 120.704 283.992 120.896C283.992 121.088 283.981 121.248 283.96 121.376C283.789 124.683 283.608 127.499 283.416 129.824C283.245 132.149 283.043 134.069 282.808 135.584C282.595 137.077 282.349 138.261 282.072 139.136C281.816 139.989 281.507 140.608 281.144 140.992C280.76 141.461 280.355 141.781 279.928 141.952C279.523 142.123 279.011 142.24 278.392 142.304C277.859 142.347 277.112 142.357 276.152 142.336C275.213 142.315 274.253 142.283 273.272 142.24C273.251 141.877 273.165 141.461 273.016 140.992C272.888 140.523 272.696 140.117 272.44 139.776C273.549 139.861 274.563 139.925 275.48 139.968C276.419 139.989 277.091 140 277.496 140C277.837 140 278.115 139.968 278.328 139.904C278.563 139.84 278.776 139.701 278.968 139.488C279.267 139.211 279.533 138.667 279.768 137.856C280.024 137.024 280.248 135.872 280.44 134.4C280.653 132.907 280.845 131.029 281.016 128.768C281.208 126.507 281.389 123.787 281.56 120.608V120.096ZM268.12 113.184H270.616V118.72C270.616 120.192 270.552 121.749 270.424 123.392C270.296 125.013 270.019 126.677 269.592 128.384C269.165 130.069 268.515 131.755 267.64 133.44C266.765 135.125 265.592 136.757 264.12 138.336C262.648 139.893 260.792 141.344 258.552 142.688C258.424 142.475 258.253 142.251 258.04 142.016C257.827 141.781 257.603 141.547 257.368 141.312C257.133 141.099 256.909 140.928 256.696 140.8C258.829 139.52 260.589 138.155 261.976 136.704C263.384 135.253 264.493 133.76 265.304 132.224C266.136 130.667 266.744 129.109 267.128 127.552C267.533 125.995 267.8 124.469 267.928 122.976C268.056 121.483 268.12 120.064 268.12 118.72V113.184Z" fill="black" fill-opacity="0.4"/>
<path d="M120.92 251.704C120.749 251.981 120.557 252.355 120.344 252.824C120.152 253.293 119.992 253.699 119.864 254.04C119.48 255.107 119 256.259 118.424 257.496C117.869 258.712 117.229 259.939 116.504 261.176C115.8 262.413 115.011 263.597 114.136 264.728C113.112 266.029 111.949 267.341 110.648 268.664C109.368 269.987 107.917 271.277 106.296 272.536C104.696 273.773 102.883 274.925 100.856 275.992L98.648 273.976C101.635 272.568 104.195 270.936 106.328 269.08C108.483 267.203 110.371 265.219 111.992 263.128C113.336 261.443 114.424 259.736 115.256 258.008C116.088 256.28 116.781 254.627 117.336 253.048C117.443 252.728 117.56 252.344 117.688 251.896C117.816 251.427 117.912 251.021 117.976 250.68L120.92 251.704ZM103.992 255.448C104.781 255.96 105.635 256.536 106.552 257.176C107.469 257.795 108.387 258.435 109.304 259.096C110.221 259.736 111.085 260.365 111.896 260.984C112.728 261.603 113.443 262.157 114.04 262.648C115.661 263.949 117.24 265.293 118.776 266.68C120.312 268.045 121.709 269.421 122.968 270.808L120.952 273.016C119.608 271.459 118.221 270.029 116.792 268.728C115.384 267.405 113.88 266.061 112.28 264.696C111.704 264.205 111.032 263.661 110.264 263.064C109.496 262.467 108.664 261.837 107.768 261.176C106.893 260.515 105.987 259.875 105.048 259.256C104.109 258.616 103.203 258.019 102.328 257.464L103.992 255.448ZM130.264 261.144C130.584 261.165 130.979 261.197 131.448 261.24C131.917 261.261 132.429 261.283 132.984 261.304C133.56 261.304 134.136 261.304 134.712 261.304C135.053 261.304 135.576 261.304 136.28 261.304C137.005 261.304 137.848 261.304 138.808 261.304C139.768 261.304 140.781 261.304 141.848 261.304C142.936 261.304 144.013 261.304 145.08 261.304C146.168 261.304 147.192 261.304 148.152 261.304C149.133 261.304 149.976 261.304 150.68 261.304C151.384 261.304 151.907 261.304 152.248 261.304C153.059 261.304 153.752 261.283 154.328 261.24C154.904 261.197 155.363 261.165 155.704 261.144V264.28C155.384 264.259 154.904 264.227 154.264 264.184C153.645 264.141 152.984 264.12 152.28 264.12C151.939 264.12 151.405 264.12 150.68 264.12C149.955 264.12 149.112 264.12 148.152 264.12C147.213 264.12 146.2 264.12 145.112 264.12C144.024 264.12 142.936 264.12 141.848 264.12C140.781 264.12 139.768 264.12 138.808 264.12C137.869 264.12 137.037 264.12 136.312 264.12C135.587 264.12 135.053 264.12 134.712 264.12C133.837 264.12 133.005 264.141 132.216 264.184C131.427 264.205 130.776 264.237 130.264 264.28V261.144ZM175.768 274.328C175.832 274.072 175.875 273.795 175.896 273.496C175.939 273.176 175.96 272.856 175.96 272.536C175.96 272.323 175.96 271.853 175.96 271.128C175.96 270.403 175.96 269.517 175.96 268.472C175.96 267.405 175.96 266.253 175.96 265.016C175.96 263.779 175.96 262.541 175.96 261.304C175.96 260.045 175.96 258.872 175.96 257.784C175.96 256.696 175.96 255.757 175.96 254.968C175.96 254.179 175.96 253.645 175.96 253.368C175.96 252.749 175.939 252.237 175.896 251.832C175.853 251.405 175.821 251.128 175.8 251H178.744C178.744 251.128 178.723 251.405 178.68 251.832C178.637 252.259 178.616 252.771 178.616 253.368C178.616 253.667 178.616 254.2 178.616 254.968C178.616 255.715 178.616 256.632 178.616 257.72C178.616 258.787 178.616 259.939 178.616 261.176C178.616 262.392 178.616 263.597 178.616 264.792C178.616 265.987 178.616 267.096 178.616 268.12C178.616 269.123 178.616 269.955 178.616 270.616C178.616 271.277 178.616 271.683 178.616 271.832C179.619 271.363 180.685 270.744 181.816 269.976C182.947 269.208 184.045 268.312 185.112 267.288C186.2 266.264 187.149 265.155 187.96 263.96L189.464 266.136C188.547 267.373 187.469 268.557 186.232 269.688C185.016 270.819 183.747 271.832 182.424 272.728C181.101 273.624 179.811 274.381 178.552 275C178.296 275.149 178.072 275.288 177.88 275.416C177.709 275.544 177.571 275.651 177.464 275.736L175.768 274.328ZM161.112 274.168C162.456 273.208 163.597 272.045 164.536 270.68C165.475 269.315 166.189 267.853 166.68 266.296C166.915 265.571 167.096 264.664 167.224 263.576C167.352 262.488 167.448 261.336 167.512 260.12C167.576 258.883 167.608 257.688 167.608 256.536C167.629 255.363 167.64 254.328 167.64 253.432C167.64 252.963 167.619 252.547 167.576 252.184C167.533 251.8 167.48 251.437 167.416 251.096H170.36C170.339 251.224 170.317 251.416 170.296 251.672C170.275 251.907 170.253 252.173 170.232 252.472C170.211 252.771 170.2 253.08 170.2 253.4C170.2 254.296 170.189 255.352 170.168 256.568C170.147 257.763 170.093 259.021 170.008 260.344C169.944 261.645 169.848 262.883 169.72 264.056C169.613 265.229 169.443 266.211 169.208 267C168.739 268.707 168.003 270.317 167 271.832C166.019 273.347 164.856 274.669 163.512 275.8L161.112 274.168ZM220.792 253.368C220.664 253.517 220.515 253.699 220.344 253.912C220.195 254.125 220.056 254.328 219.928 254.52C219.523 255.245 218.915 256.141 218.104 257.208C217.315 258.253 216.397 259.331 215.352 260.44C214.307 261.528 213.176 262.499 211.96 263.352L209.848 261.656C210.595 261.229 211.32 260.717 212.024 260.12C212.749 259.501 213.421 258.861 214.04 258.2C214.68 257.517 215.235 256.856 215.704 256.216C216.195 255.555 216.579 254.979 216.856 254.488C216.515 254.488 215.96 254.488 215.192 254.488C214.445 254.488 213.549 254.488 212.504 254.488C211.48 254.488 210.381 254.488 209.208 254.488C208.035 254.488 206.872 254.488 205.72 254.488C204.568 254.488 203.491 254.488 202.488 254.488C201.485 254.488 200.643 254.488 199.96 254.488C199.277 254.488 198.829 254.488 198.616 254.488C198.019 254.488 197.421 254.509 196.824 254.552C196.227 254.573 195.608 254.616 194.968 254.68V251.768C195.523 251.853 196.12 251.928 196.76 251.992C197.4 252.035 198.019 252.056 198.616 252.056C198.829 252.056 199.288 252.056 199.992 252.056C200.696 252.056 201.549 252.056 202.552 252.056C203.576 252.056 204.685 252.056 205.88 252.056C207.075 252.056 208.259 252.056 209.432 252.056C210.627 252.056 211.747 252.056 212.792 252.056C213.837 252.056 214.723 252.056 215.448 252.056C216.195 252.056 216.707 252.056 216.984 252.056C217.197 252.056 217.443 252.056 217.72 252.056C218.019 252.035 218.307 252.003 218.584 251.96C218.861 251.917 219.075 251.885 219.224 251.864L220.792 253.368ZM208.024 257.592C208.024 259.32 207.971 260.941 207.864 262.456C207.757 263.971 207.544 265.389 207.224 266.712C206.904 268.035 206.413 269.261 205.752 270.392C205.112 271.501 204.248 272.547 203.16 273.528C202.072 274.488 200.717 275.373 199.096 276.184L196.728 274.264C197.176 274.115 197.656 273.923 198.168 273.688C198.68 273.432 199.16 273.144 199.608 272.824C200.867 272.077 201.869 271.235 202.616 270.296C203.363 269.357 203.917 268.344 204.28 267.256C204.664 266.147 204.92 264.984 205.048 263.768C205.197 262.531 205.272 261.251 205.272 259.928C205.272 259.523 205.261 259.139 205.24 258.776C205.24 258.413 205.208 258.019 205.144 257.592H208.024ZM243.992 251.96C244.269 252.344 244.589 252.824 244.952 253.4C245.315 253.955 245.667 254.531 246.008 255.128C246.371 255.725 246.669 256.28 246.904 256.792L245.08 257.624C244.824 257.069 244.536 256.515 244.216 255.96C243.917 255.384 243.597 254.829 243.256 254.296C242.936 253.741 242.595 253.229 242.232 252.76L243.992 251.96ZM247.864 250.36C248.141 250.723 248.461 251.181 248.824 251.736C249.208 252.291 249.581 252.867 249.944 253.464C250.307 254.061 250.616 254.605 250.872 255.096L249.08 255.992C248.803 255.437 248.504 254.883 248.184 254.328C247.864 253.773 247.523 253.229 247.16 252.696C246.819 252.163 246.467 251.661 246.104 251.192L247.864 250.36ZM232.76 272.6C232.76 272.301 232.76 271.704 232.76 270.808C232.76 269.912 232.76 268.845 232.76 267.608C232.76 266.349 232.76 265.027 232.76 263.64C232.76 262.253 232.76 260.909 232.76 259.608C232.76 258.307 232.76 257.155 232.76 256.152C232.76 255.149 232.76 254.424 232.76 253.976C232.76 253.528 232.739 252.984 232.696 252.344C232.675 251.704 232.611 251.139 232.504 250.648H235.672C235.608 251.139 235.555 251.704 235.512 252.344C235.469 252.963 235.448 253.507 235.448 253.976C235.448 254.808 235.448 255.811 235.448 256.984C235.448 258.136 235.448 259.373 235.448 260.696C235.448 261.997 235.448 263.299 235.448 264.6C235.448 265.88 235.448 267.085 235.448 268.216C235.448 269.325 235.448 270.275 235.448 271.064C235.448 271.832 235.448 272.344 235.448 272.6C235.448 272.92 235.448 273.315 235.448 273.784C235.469 274.253 235.501 274.712 235.544 275.16C235.587 275.629 235.619 276.035 235.64 276.376H232.568C232.632 275.864 232.675 275.256 232.696 274.552C232.739 273.848 232.76 273.197 232.76 272.6ZM234.872 259.032C235.917 259.352 237.08 259.736 238.36 260.184C239.64 260.611 240.931 261.069 242.232 261.56C243.555 262.051 244.803 262.552 245.976 263.064C247.171 263.555 248.216 264.024 249.112 264.472L247.992 267.192C247.075 266.701 246.04 266.2 244.888 265.688C243.757 265.176 242.584 264.675 241.368 264.184C240.152 263.693 238.979 263.256 237.848 262.872C236.739 262.488 235.747 262.157 234.872 261.88V259.032ZM262.104 273.976C262.232 273.72 262.317 273.475 262.36 273.24C262.403 273.005 262.424 272.728 262.424 272.408C262.424 272.088 262.424 271.491 262.424 270.616C262.424 269.741 262.424 268.696 262.424 267.48C262.424 266.264 262.424 264.995 262.424 263.672C262.424 262.328 262.424 261.027 262.424 259.768C262.424 258.488 262.424 257.357 262.424 256.376C262.424 255.373 262.424 254.616 262.424 254.104C262.424 253.827 262.403 253.496 262.36 253.112C262.339 252.728 262.307 252.365 262.264 252.024C262.243 251.683 262.2 251.405 262.136 251.192H265.304C265.24 251.576 265.187 252.045 265.144 252.6C265.101 253.133 265.08 253.635 265.08 254.104C265.08 254.531 265.08 255.149 265.08 255.96C265.08 256.771 265.08 257.699 265.08 258.744C265.08 259.768 265.08 260.856 265.08 262.008C265.08 263.16 265.08 264.291 265.08 265.4C265.08 266.509 265.08 267.544 265.08 268.504C265.08 269.443 265.08 270.243 265.08 270.904C265.08 271.565 265.08 272.013 265.08 272.248C266.616 271.864 268.195 271.32 269.816 270.616C271.459 269.912 273.059 269.091 274.616 268.152C276.195 267.192 277.667 266.147 279.032 265.016C280.419 263.864 281.603 262.637 282.584 261.336L284.024 263.576C281.955 266.157 279.309 268.419 276.088 270.36C272.888 272.301 269.293 273.848 265.304 275C265.133 275.043 264.931 275.107 264.696 275.192C264.461 275.299 264.216 275.427 263.96 275.576L262.104 273.976ZM312.6 253.592C312.493 253.72 312.355 253.933 312.184 254.232C312.035 254.509 311.907 254.765 311.8 255C311.395 256.045 310.861 257.208 310.2 258.488C309.539 259.747 308.803 260.995 307.992 262.232C307.181 263.469 306.328 264.589 305.432 265.592C304.259 266.915 302.968 268.205 301.56 269.464C300.152 270.701 298.669 271.864 297.112 272.952C295.555 274.019 293.933 274.936 292.248 275.704L290.2 273.56C291.928 272.877 293.581 272.035 295.16 271.032C296.76 270.008 298.253 268.899 299.64 267.704C301.048 266.488 302.296 265.272 303.384 264.056C304.109 263.224 304.824 262.296 305.528 261.272C306.253 260.227 306.893 259.171 307.448 258.104C308.024 257.016 308.44 256.035 308.696 255.16C308.525 255.16 308.12 255.16 307.48 255.16C306.84 255.16 306.083 255.16 305.208 255.16C304.333 255.16 303.416 255.16 302.456 255.16C301.496 255.16 300.579 255.16 299.704 255.16C298.829 255.16 298.072 255.16 297.432 255.16C296.813 255.16 296.408 255.16 296.216 255.16C295.853 255.16 295.437 255.171 294.968 255.192C294.52 255.213 294.104 255.235 293.72 255.256C293.357 255.277 293.112 255.299 292.984 255.32V252.408C293.133 252.429 293.4 252.461 293.784 252.504C294.189 252.525 294.616 252.547 295.064 252.568C295.512 252.589 295.896 252.6 296.216 252.6C296.451 252.6 296.877 252.6 297.496 252.6C298.115 252.6 298.851 252.6 299.704 252.6C300.579 252.6 301.485 252.6 302.424 252.6C303.363 252.6 304.259 252.6 305.112 252.6C305.987 252.6 306.733 252.6 307.352 252.6C307.971 252.6 308.376 252.6 308.568 252.6C309.101 252.6 309.571 252.579 309.976 252.536C310.403 252.493 310.733 252.429 310.968 252.344L312.6 253.592ZM305.848 263.896C306.723 264.621 307.619 265.421 308.536 266.296C309.475 267.171 310.392 268.077 311.288 269.016C312.184 269.933 313.016 270.819 313.784 271.672C314.552 272.504 315.213 273.261 315.768 273.944L313.528 275.864C312.781 274.84 311.885 273.741 310.84 272.568C309.795 271.373 308.685 270.189 307.512 269.016C306.36 267.821 305.197 266.723 304.024 265.72L305.848 263.896ZM333.72 249.688C333.592 250.328 333.421 251.085 333.208 251.96C333.016 252.813 332.696 253.784 332.248 254.872C331.864 255.832 331.384 256.824 330.808 257.848C330.253 258.872 329.656 259.8 329.016 260.632C329.421 260.376 329.88 260.163 330.392 259.992C330.904 259.8 331.427 259.661 331.96 259.576C332.515 259.491 333.016 259.448 333.464 259.448C334.701 259.448 335.747 259.8 336.6 260.504C337.453 261.187 337.88 262.189 337.88 263.512C337.88 263.917 337.88 264.44 337.88 265.08C337.88 265.699 337.88 266.36 337.88 267.064C337.901 267.747 337.923 268.419 337.944 269.08C337.965 269.741 337.976 270.317 337.976 270.808H335.512C335.533 270.381 335.555 269.88 335.576 269.304C335.597 268.728 335.608 268.12 335.608 267.48C335.629 266.84 335.629 266.232 335.608 265.656C335.608 265.08 335.608 264.589 335.608 264.184C335.608 263.245 335.32 262.563 334.744 262.136C334.189 261.688 333.485 261.464 332.632 261.464C331.629 261.464 330.637 261.688 329.656 262.136C328.696 262.563 327.853 263.117 327.128 263.8C326.659 264.248 326.189 264.76 325.72 265.336C325.272 265.891 324.771 266.488 324.216 267.128L322.04 265.528C323.576 264.035 324.856 262.637 325.88 261.336C326.904 260.035 327.736 258.829 328.376 257.72C329.016 256.589 329.517 255.576 329.88 254.68C330.221 253.784 330.499 252.888 330.712 251.992C330.925 251.075 331.053 250.232 331.096 249.464L333.72 249.688ZM322.776 253.144C323.629 253.251 324.557 253.336 325.56 253.4C326.563 253.464 327.437 253.496 328.184 253.496C329.613 253.496 331.149 253.464 332.792 253.4C334.435 253.315 336.088 253.197 337.752 253.048C339.437 252.899 341.037 252.685 342.552 252.408L342.52 254.776C341.411 254.968 340.227 255.128 338.968 255.256C337.709 255.363 336.429 255.459 335.128 255.544C333.827 255.608 332.568 255.661 331.352 255.704C330.157 255.725 329.048 255.736 328.024 255.736C327.576 255.736 327.053 255.736 326.456 255.736C325.88 255.715 325.272 255.693 324.632 255.672C323.992 255.629 323.373 255.587 322.776 255.544V253.144ZM347.224 260.888C346.947 260.952 346.637 261.048 346.296 261.176C345.976 261.283 345.645 261.4 345.304 261.528C344.984 261.656 344.675 261.784 344.376 261.912C343.267 262.339 341.976 262.861 340.504 263.48C339.032 264.099 337.528 264.813 335.992 265.624C334.925 266.157 333.987 266.723 333.176 267.32C332.365 267.896 331.725 268.504 331.256 269.144C330.787 269.763 330.552 270.445 330.552 271.192C330.552 271.811 330.691 272.312 330.968 272.696C331.267 273.08 331.683 273.379 332.216 273.592C332.749 273.784 333.357 273.912 334.04 273.976C334.744 274.04 335.512 274.072 336.344 274.072C337.581 274.072 338.989 274.008 340.568 273.88C342.168 273.731 343.672 273.539 345.08 273.304L345.016 275.864C344.205 275.971 343.288 276.067 342.264 276.152C341.261 276.237 340.237 276.301 339.192 276.344C338.168 276.408 337.187 276.44 336.248 276.44C334.733 276.44 333.347 276.301 332.088 276.024C330.851 275.747 329.859 275.256 329.112 274.552C328.365 273.848 327.992 272.845 327.992 271.544C327.992 270.584 328.216 269.709 328.664 268.92C329.112 268.109 329.709 267.373 330.456 266.712C331.224 266.051 332.067 265.443 332.984 264.888C333.901 264.312 334.84 263.789 335.8 263.32C336.824 262.765 337.784 262.285 338.68 261.88C339.597 261.475 340.461 261.101 341.272 260.76C342.083 260.419 342.84 260.077 343.544 259.736C344.013 259.523 344.461 259.32 344.888 259.128C345.315 258.936 345.741 258.723 346.168 258.488L347.224 260.888ZM358.296 250.072H367.352V252.504H358.296V250.072ZM366.136 250.072H368.568C368.568 251.011 368.611 252.12 368.696 253.4C368.781 254.68 368.963 256.056 369.24 257.528C369.517 258.979 369.944 260.493 370.52 262.072C371.096 263.651 371.875 265.229 372.856 266.808C373.837 268.365 375.064 269.88 376.536 271.352C378.029 272.824 379.832 274.179 381.944 275.416C381.773 275.565 381.549 275.757 381.272 275.992C381.016 276.248 380.771 276.504 380.536 276.76C380.323 277.037 380.141 277.272 379.992 277.464C377.859 276.163 376.024 274.733 374.488 273.176C372.973 271.597 371.704 269.955 370.68 268.248C369.677 266.541 368.867 264.835 368.248 263.128C367.651 261.4 367.192 259.736 366.872 258.136C366.573 256.515 366.371 255.011 366.264 253.624C366.179 252.237 366.136 251.053 366.136 250.072ZM365.208 256.344L367.928 256.824C367.16 260.067 366.157 262.989 364.92 265.592C363.704 268.195 362.221 270.488 360.472 272.472C358.744 274.435 356.696 276.109 354.328 277.496C354.2 277.325 353.997 277.123 353.72 276.888C353.464 276.653 353.187 276.408 352.888 276.152C352.611 275.917 352.365 275.725 352.152 275.576C355.715 273.699 358.541 271.16 360.632 267.96C362.723 264.739 364.248 260.867 365.208 256.344ZM385.656 255.096H410.488V257.56H385.656V255.096ZM409.56 255.096H412.024C412.024 255.096 412.024 255.181 412.024 255.352C412.024 255.523 412.013 255.704 411.992 255.896C411.992 256.088 411.981 256.248 411.96 256.376C411.789 259.683 411.608 262.499 411.416 264.824C411.245 267.149 411.043 269.069 410.808 270.584C410.595 272.077 410.349 273.261 410.072 274.136C409.816 274.989 409.507 275.608 409.144 275.992C408.76 276.461 408.355 276.781 407.928 276.952C407.523 277.123 407.011 277.24 406.392 277.304C405.859 277.347 405.112 277.357 404.152 277.336C403.213 277.315 402.253 277.283 401.272 277.24C401.251 276.877 401.165 276.461 401.016 275.992C400.888 275.523 400.696 275.117 400.44 274.776C401.549 274.861 402.563 274.925 403.48 274.968C404.419 274.989 405.091 275 405.496 275C405.837 275 406.115 274.968 406.328 274.904C406.563 274.84 406.776 274.701 406.968 274.488C407.267 274.211 407.533 273.667 407.768 272.856C408.024 272.024 408.248 270.872 408.44 269.4C408.653 267.907 408.845 266.029 409.016 263.768C409.208 261.507 409.389 258.787 409.56 255.608V255.096ZM396.12 248.184H398.616V253.72C398.616 255.192 398.552 256.749 398.424 258.392C398.296 260.013 398.019 261.677 397.592 263.384C397.165 265.069 396.515 266.755 395.64 268.44C394.765 270.125 393.592 271.757 392.12 273.336C390.648 274.893 388.792 276.344 386.552 277.688C386.424 277.475 386.253 277.251 386.04 277.016C385.827 276.781 385.603 276.547 385.368 276.312C385.133 276.099 384.909 275.928 384.696 275.8C386.829 274.52 388.589 273.155 389.976 271.704C391.384 270.253 392.493 268.76 393.304 267.224C394.136 265.667 394.744 264.109 395.128 262.552C395.533 260.995 395.8 259.469 395.928 257.976C396.056 256.483 396.12 255.064 396.12 253.72V248.184Z" fill="black" fill-opacity="0.4"/>
<path d="M91.864 400.824C91.832 400.968 91.808 401.136 91.792 401.328C91.776 401.504 91.76 401.696 91.744 401.904C91.728 402.112 91.712 402.304 91.696 402.48C91.68 402.848 91.656 403.328 91.624 403.92C91.608 404.512 91.592 405.168 91.576 405.888C91.56 406.592 91.544 407.312 91.528 408.048C91.512 408.768 91.504 409.44 91.504 410.064C91.504 410.688 91.504 411.376 91.504 412.128C91.52 412.864 91.536 413.6 91.552 414.336C91.584 415.056 91.6 415.728 91.6 416.352C91.616 416.96 91.624 417.448 91.624 417.816C91.624 418.552 91.536 419.136 91.36 419.568C91.184 420 90.936 420.304 90.616 420.48C90.312 420.672 89.944 420.768 89.512 420.768C89.048 420.768 88.528 420.656 87.952 420.432C87.376 420.224 86.824 419.936 86.296 419.568C85.784 419.2 85.36 418.776 85.024 418.296C84.688 417.816 84.52 417.312 84.52 416.784C84.52 416.064 84.792 415.36 85.336 414.672C85.896 413.984 86.616 413.344 87.496 412.752C88.392 412.16 89.336 411.68 90.328 411.312C91.416 410.88 92.528 410.56 93.664 410.352C94.8 410.128 95.84 410.016 96.784 410.016C97.952 410.016 98.984 410.216 99.88 410.616C100.792 411.016 101.504 411.576 102.016 412.296C102.544 413 102.808 413.832 102.808 414.792C102.808 415.752 102.608 416.6 102.208 417.336C101.824 418.072 101.248 418.688 100.48 419.184C99.728 419.68 98.8 420.064 97.696 420.336C97.168 420.448 96.64 420.52 96.112 420.552C95.6 420.6 95.136 420.64 94.72 420.672L94.048 418.728C94.496 418.744 94.96 418.744 95.44 418.728C95.936 418.712 96.408 418.656 96.856 418.56C97.56 418.432 98.216 418.216 98.824 417.912C99.448 417.592 99.944 417.176 100.312 416.664C100.696 416.152 100.888 415.536 100.888 414.816C100.888 414.128 100.704 413.552 100.336 413.088C99.968 412.624 99.472 412.272 98.848 412.032C98.224 411.792 97.528 411.672 96.76 411.672C95.704 411.672 94.672 411.784 93.664 412.008C92.656 412.232 91.632 412.552 90.592 412.968C89.824 413.256 89.12 413.616 88.48 414.048C87.84 414.464 87.328 414.904 86.944 415.368C86.576 415.832 86.392 416.272 86.392 416.688C86.392 416.96 86.48 417.224 86.656 417.48C86.848 417.72 87.08 417.936 87.352 418.128C87.624 418.32 87.912 418.472 88.216 418.584C88.52 418.68 88.784 418.728 89.008 418.728C89.28 418.728 89.488 418.632 89.632 418.44C89.792 418.248 89.872 417.952 89.872 417.552C89.872 417.088 89.864 416.448 89.848 415.632C89.832 414.8 89.816 413.904 89.8 412.944C89.784 411.968 89.776 411.04 89.776 410.16C89.776 409.472 89.776 408.736 89.776 407.952C89.792 407.168 89.8 406.408 89.8 405.672C89.816 404.936 89.824 404.288 89.824 403.728C89.84 403.168 89.848 402.768 89.848 402.528C89.848 402.368 89.84 402.184 89.824 401.976C89.824 401.752 89.816 401.536 89.8 401.328C89.784 401.12 89.76 400.952 89.728 400.824H91.864ZM99.304 403.488C99.88 403.792 100.52 404.16 101.224 404.592C101.928 405.008 102.6 405.432 103.24 405.864C103.896 406.296 104.416 406.672 104.8 406.992L103.816 408.528C103.528 408.24 103.16 407.936 102.712 407.616C102.264 407.28 101.784 406.952 101.272 406.632C100.76 406.296 100.256 405.984 99.76 405.696C99.264 405.392 98.824 405.136 98.44 404.928L99.304 403.488ZM84.904 405.144C85.56 405.224 86.12 405.28 86.584 405.312C87.064 405.328 87.528 405.336 87.976 405.336C88.568 405.336 89.232 405.304 89.968 405.24C90.704 405.176 91.464 405.096 92.248 405C93.032 404.888 93.792 404.76 94.528 404.616C95.28 404.456 95.952 404.288 96.544 404.112L96.592 405.984C95.968 406.128 95.272 406.272 94.504 406.416C93.736 406.544 92.952 406.656 92.152 406.752C91.368 406.848 90.616 406.928 89.896 406.992C89.176 407.056 88.552 407.088 88.024 407.088C87.336 407.088 86.752 407.08 86.272 407.064C85.808 407.048 85.368 407.016 84.952 406.968L84.904 405.144ZM114.184 411.48H122.416V418.536H114.184V417H120.712V413.016H114.184V411.48ZM113.392 411.48H115.072V419.976H113.392V411.48ZM109.048 404.352H115.72V405.672H109.048V404.352ZM120.112 404.352H126.928V405.672H120.112V404.352ZM126.112 400.872H127.936V419.496C127.936 420.104 127.856 420.56 127.696 420.864C127.536 421.184 127.256 421.424 126.856 421.584C126.456 421.744 125.896 421.84 125.176 421.872C124.472 421.904 123.592 421.92 122.536 421.92C122.52 421.744 122.472 421.544 122.392 421.32C122.328 421.096 122.248 420.872 122.152 420.648C122.072 420.424 121.984 420.232 121.888 420.072C122.432 420.088 122.944 420.096 123.424 420.096C123.92 420.096 124.352 420.096 124.72 420.096C125.104 420.096 125.368 420.096 125.512 420.096C125.736 420.08 125.888 420.032 125.968 419.952C126.064 419.856 126.112 419.704 126.112 419.496V400.872ZM109.192 400.872H116.872V409.32H109.192V407.88H115.192V402.312H109.192V400.872ZM127.072 400.872V402.312H120.76V407.904H127.072V409.344H119.056V400.872H127.072ZM108.208 400.872H109.984V421.944H108.208V400.872ZM135.352 403.248C135.32 403.44 135.288 403.68 135.256 403.968C135.24 404.256 135.216 404.544 135.184 404.832C135.168 405.12 135.16 405.368 135.16 405.576C135.144 406.072 135.136 406.64 135.136 407.28C135.152 407.904 135.168 408.56 135.184 409.248C135.216 409.92 135.264 410.592 135.328 411.264C135.456 412.592 135.672 413.76 135.976 414.768C136.28 415.76 136.648 416.536 137.08 417.096C137.528 417.656 138.032 417.936 138.592 417.936C138.896 417.936 139.192 417.8 139.48 417.528C139.768 417.24 140.04 416.864 140.296 416.4C140.568 415.92 140.808 415.392 141.016 414.816C141.24 414.224 141.424 413.632 141.568 413.04L143.08 414.744C142.6 416.104 142.112 417.184 141.616 417.984C141.136 418.768 140.64 419.336 140.128 419.688C139.632 420.04 139.112 420.216 138.568 420.216C137.816 420.216 137.088 419.944 136.384 419.4C135.68 418.84 135.072 417.944 134.56 416.712C134.048 415.464 133.68 413.808 133.456 411.744C133.376 411.04 133.312 410.28 133.264 409.464C133.232 408.648 133.208 407.872 133.192 407.136C133.192 406.4 133.192 405.8 133.192 405.336C133.192 405.064 133.184 404.712 133.168 404.28C133.152 403.848 133.104 403.488 133.024 403.2L135.352 403.248ZM147.856 403.92C148.288 404.464 148.696 405.104 149.08 405.84C149.48 406.56 149.84 407.336 150.16 408.168C150.496 408.984 150.792 409.832 151.048 410.712C151.32 411.592 151.536 412.472 151.696 413.352C151.872 414.216 152 415.048 152.08 415.848L150.16 416.64C150.064 415.552 149.896 414.448 149.656 413.328C149.416 412.192 149.12 411.096 148.768 410.04C148.416 408.968 148.008 407.96 147.544 407.016C147.08 406.072 146.56 405.256 145.984 404.568L147.856 403.92ZM159.952 407.688H172.072V409.296H159.952V407.688ZM159.52 419.328H172.384V420.936H159.52V419.328ZM158.704 412.32H173.392V421.944H171.568V413.952H160.48V421.944H158.704V412.32ZM165.952 401.664C165.296 402.64 164.44 403.648 163.384 404.688C162.344 405.728 161.184 406.728 159.904 407.688C158.64 408.648 157.32 409.496 155.944 410.232C155.864 410.104 155.76 409.952 155.632 409.776C155.504 409.6 155.368 409.424 155.224 409.248C155.08 409.072 154.944 408.928 154.816 408.816C156.224 408.096 157.576 407.24 158.872 406.248C160.184 405.256 161.36 404.208 162.4 403.104C163.456 402 164.296 400.928 164.92 399.888H166.768C167.408 400.784 168.136 401.656 168.952 402.504C169.784 403.352 170.664 404.152 171.592 404.904C172.536 405.656 173.496 406.344 174.472 406.968C175.464 407.576 176.432 408.088 177.376 408.504C177.168 408.728 176.96 408.984 176.752 409.272C176.544 409.56 176.352 409.84 176.176 410.112C175.232 409.6 174.28 409.024 173.32 408.384C172.36 407.744 171.424 407.056 170.512 406.32C169.6 405.568 168.752 404.8 167.968 404.016C167.184 403.216 166.512 402.432 165.952 401.664ZM190.672 418.272C191.696 418.128 192.664 417.896 193.576 417.576C194.504 417.256 195.328 416.832 196.048 416.304C196.768 415.776 197.336 415.128 197.752 414.36C198.168 413.592 198.368 412.696 198.352 411.672C198.352 411.208 198.256 410.728 198.064 410.232C197.888 409.736 197.608 409.272 197.224 408.84C196.856 408.408 196.376 408.064 195.784 407.808C195.192 407.536 194.504 407.4 193.72 407.4C192.184 407.4 190.728 407.784 189.352 408.552C187.976 409.304 186.704 410.288 185.536 411.504V409.392C186.992 408.016 188.448 407.048 189.904 406.488C191.376 405.928 192.744 405.648 194.008 405.648C195.112 405.648 196.136 405.896 197.08 406.392C198.04 406.872 198.816 407.568 199.408 408.48C200 409.392 200.296 410.472 200.296 411.72C200.296 412.92 200.088 413.992 199.672 414.936C199.256 415.864 198.656 416.664 197.872 417.336C197.104 418.008 196.184 418.576 195.112 419.04C194.056 419.488 192.872 419.832 191.56 420.072L190.672 418.272ZM185.272 406.704C185.08 406.736 184.784 406.776 184.384 406.824C184 406.872 183.552 406.936 183.04 407.016C182.544 407.08 182.04 407.144 181.528 407.208C181.016 407.272 180.536 407.344 180.088 407.424L179.896 405.432C180.152 405.448 180.4 405.456 180.64 405.456C180.896 405.44 181.168 405.424 181.456 405.408C181.792 405.392 182.2 405.36 182.68 405.312C183.176 405.248 183.688 405.184 184.216 405.12C184.744 405.04 185.24 404.96 185.704 404.88C186.184 404.784 186.56 404.688 186.832 404.592L187.552 405.432C187.408 405.624 187.248 405.864 187.072 406.152C186.896 406.424 186.72 406.704 186.544 406.992C186.368 407.28 186.216 407.536 186.088 407.76L185.344 411.024C185.072 411.456 184.736 411.968 184.336 412.56C183.936 413.152 183.512 413.776 183.064 414.432C182.632 415.072 182.192 415.712 181.744 416.352C181.296 416.976 180.888 417.552 180.52 418.08L179.32 416.424C179.608 416.056 179.96 415.6 180.376 415.056C180.792 414.512 181.224 413.936 181.672 413.328C182.136 412.704 182.584 412.088 183.016 411.48C183.448 410.872 183.832 410.312 184.168 409.8C184.52 409.288 184.784 408.88 184.96 408.576L185.056 407.352L185.272 406.704ZM185.032 402.72C185.032 402.448 185.024 402.16 185.008 401.856C185.008 401.552 184.984 401.248 184.936 400.944L187.192 401.016C187.128 401.336 187.048 401.84 186.952 402.528C186.872 403.2 186.784 404 186.688 404.928C186.592 405.856 186.496 406.832 186.4 407.856C186.32 408.88 186.256 409.896 186.208 410.904C186.16 411.896 186.136 412.816 186.136 413.664C186.136 414.384 186.136 415.056 186.136 415.68C186.136 416.288 186.144 416.896 186.16 417.504C186.176 418.096 186.2 418.744 186.232 419.448C186.248 419.656 186.264 419.896 186.28 420.168C186.296 420.44 186.32 420.688 186.352 420.912H184.264C184.296 420.752 184.312 420.52 184.312 420.216C184.328 419.928 184.336 419.688 184.336 419.496C184.352 418.728 184.36 418.048 184.36 417.456C184.36 416.864 184.36 416.256 184.36 415.632C184.376 414.992 184.392 414.232 184.408 413.352C184.408 413 184.424 412.52 184.456 411.912C184.488 411.288 184.528 410.608 184.576 409.872C184.624 409.12 184.672 408.36 184.72 407.592C184.768 406.824 184.816 406.104 184.864 405.432C184.912 404.744 184.952 404.16 184.984 403.68C185.016 403.2 185.032 402.88 185.032 402.72ZM219.76 401.496C219.744 401.624 219.728 401.792 219.712 402C219.696 402.208 219.68 402.424 219.664 402.648C219.664 402.856 219.656 403.048 219.64 403.224C219.64 403.72 219.632 404.232 219.616 404.76C219.616 405.288 219.608 405.8 219.592 406.296C219.592 406.776 219.584 407.224 219.568 407.64C219.552 408.248 219.528 408.92 219.496 409.656C219.48 410.376 219.448 411.064 219.4 411.72C219.368 412.376 219.304 412.912 219.208 413.328C219.096 413.856 218.896 414.216 218.608 414.408C218.336 414.6 217.92 414.696 217.36 414.696C217.072 414.696 216.72 414.68 216.304 414.648C215.888 414.6 215.488 414.552 215.104 414.504C214.72 414.456 214.416 414.408 214.192 414.36L214.24 412.704C214.656 412.8 215.088 412.88 215.536 412.944C216 412.992 216.368 413.016 216.64 413.016C216.944 413.016 217.16 412.976 217.288 412.896C217.432 412.816 217.52 412.64 217.552 412.368C217.616 412.048 217.664 411.632 217.696 411.12C217.728 410.592 217.752 410.024 217.768 409.416C217.8 408.792 217.824 408.2 217.84 407.64C217.84 407.192 217.84 406.72 217.84 406.224C217.84 405.712 217.84 405.208 217.84 404.712C217.84 404.2 217.84 403.728 217.84 403.296C217.84 403.12 217.832 402.92 217.816 402.696C217.816 402.472 217.808 402.256 217.792 402.048C217.776 401.824 217.752 401.64 217.72 401.496H219.76ZM210.256 402.24C210.224 402.528 210.2 402.832 210.184 403.152C210.168 403.472 210.16 403.816 210.16 404.184C210.16 404.696 210.152 405.352 210.136 406.152C210.136 406.936 210.128 407.776 210.112 408.672C210.112 409.552 210.112 410.416 210.112 411.264C210.112 412.112 210.112 412.872 210.112 413.544C210.112 414.216 210.12 414.72 210.136 415.056C210.168 415.696 210.208 416.24 210.256 416.688C210.32 417.136 210.48 417.496 210.736 417.768C210.992 418.04 211.408 418.24 211.984 418.368C212.56 418.496 213.368 418.56 214.408 418.56C215.272 418.56 216.152 418.536 217.048 418.488C217.944 418.424 218.784 418.352 219.568 418.272C220.368 418.176 221.024 418.08 221.536 417.984L221.464 420.024C220.936 420.072 220.28 420.128 219.496 420.192C218.712 420.256 217.888 420.304 217.024 420.336C216.16 420.384 215.32 420.408 214.504 420.408C213.112 420.408 212.008 420.32 211.192 420.144C210.376 419.968 209.768 419.688 209.368 419.304C208.968 418.904 208.696 418.376 208.552 417.72C208.424 417.064 208.344 416.264 208.312 415.32C208.312 414.984 208.304 414.512 208.288 413.904C208.288 413.28 208.288 412.584 208.288 411.816C208.288 411.032 208.288 410.24 208.288 409.44C208.288 408.64 208.288 407.88 208.288 407.16C208.304 406.44 208.312 405.824 208.312 405.312C208.312 404.8 208.312 404.456 208.312 404.28C208.312 403.912 208.296 403.576 208.264 403.272C208.248 402.952 208.216 402.608 208.168 402.24H210.256ZM203.08 408C203.464 408 203.864 407.984 204.28 407.952C204.712 407.92 205.144 407.888 205.576 407.856C206.104 407.808 206.856 407.736 207.832 407.64C208.808 407.544 209.912 407.44 211.144 407.328C212.392 407.216 213.68 407.104 215.008 406.992C216.336 406.864 217.624 406.752 218.872 406.656C220.136 406.544 221.264 406.464 222.256 406.416C222.56 406.384 222.872 406.36 223.192 406.344C223.528 406.328 223.84 406.312 224.128 406.296V408.168C224 408.152 223.824 408.152 223.6 408.168C223.392 408.168 223.16 408.168 222.904 408.168C222.664 408.168 222.44 408.168 222.232 408.168C221.592 408.184 220.816 408.224 219.904 408.288C218.992 408.336 218 408.408 216.928 408.504C215.872 408.584 214.792 408.68 213.688 408.792C212.584 408.888 211.52 408.992 210.496 409.104C209.472 409.216 208.544 409.32 207.712 409.416C206.896 409.496 206.232 409.568 205.72 409.632C205.48 409.664 205.208 409.704 204.904 409.752C204.616 409.784 204.328 409.824 204.04 409.872C203.752 409.904 203.504 409.936 203.296 409.968L203.08 408ZM236.848 409.584L238.192 408.6C238.8 409.128 239.44 409.704 240.112 410.328C240.784 410.936 241.44 411.56 242.08 412.2C242.72 412.824 243.32 413.432 243.88 414.024C244.44 414.6 244.912 415.12 245.296 415.584L243.808 416.76C243.44 416.28 242.984 415.744 242.44 415.152C241.912 414.56 241.328 413.936 240.688 413.28C240.064 412.624 239.416 411.984 238.744 411.36C238.088 410.72 237.456 410.128 236.848 409.584ZM237.112 399.84H238.936V404.544C238.936 405.312 238.888 406.12 238.792 406.968C238.712 407.816 238.544 408.68 238.288 409.56C238.048 410.44 237.672 411.32 237.16 412.2C236.664 413.08 236 413.928 235.168 414.744C234.336 415.56 233.304 416.336 232.072 417.072C231.992 416.928 231.872 416.776 231.712 416.616C231.568 416.456 231.408 416.288 231.232 416.112C231.072 415.936 230.92 415.8 230.776 415.704C231.976 415.064 232.968 414.376 233.752 413.64C234.536 412.888 235.152 412.12 235.6 411.336C236.064 410.536 236.4 409.744 236.608 408.96C236.816 408.176 236.952 407.408 237.016 406.656C237.08 405.904 237.112 405.192 237.112 404.52V399.84ZM228.376 403.944H246.712V405.72H230.152V421.968H228.376V403.944ZM245.896 403.944H247.672V419.544C247.672 420.136 247.592 420.584 247.432 420.888C247.272 421.208 246.992 421.448 246.592 421.608C246.16 421.752 245.568 421.832 244.816 421.848C244.08 421.88 243.176 421.896 242.104 421.896C242.072 421.72 242.024 421.52 241.96 421.296C241.896 421.088 241.824 420.872 241.744 420.648C241.664 420.424 241.576 420.232 241.48 420.072C242.056 420.088 242.6 420.096 243.112 420.096C243.64 420.112 244.096 420.12 244.48 420.12C244.88 420.12 245.152 420.12 245.296 420.12C245.536 420.104 245.696 420.056 245.776 419.976C245.856 419.88 245.896 419.728 245.896 419.52V403.944ZM257.944 404.832L259.696 405.408C259.168 406.096 258.56 406.776 257.872 407.448C257.184 408.104 256.456 408.72 255.688 409.296C254.936 409.856 254.192 410.352 253.456 410.784C253.376 410.656 253.256 410.504 253.096 410.328C252.952 410.152 252.792 409.976 252.616 409.8C252.456 409.624 252.304 409.48 252.16 409.368C253.264 408.824 254.328 408.152 255.352 407.352C256.392 406.552 257.256 405.712 257.944 404.832ZM264.088 405.864L265.312 404.808C266.048 405.24 266.816 405.736 267.616 406.296C268.416 406.84 269.168 407.392 269.872 407.952C270.592 408.496 271.176 408.992 271.624 409.44L270.304 410.664C269.872 410.216 269.312 409.704 268.624 409.128C267.936 408.552 267.192 407.976 266.392 407.4C265.608 406.824 264.84 406.312 264.088 405.864ZM262.024 409.176C261.368 410.04 260.52 410.936 259.48 411.864C258.44 412.776 257.288 413.664 256.024 414.528C254.76 415.376 253.456 416.128 252.112 416.784C252.048 416.624 251.952 416.456 251.824 416.28C251.712 416.104 251.592 415.928 251.464 415.752C251.336 415.56 251.208 415.4 251.08 415.272C252.44 414.664 253.76 413.928 255.04 413.064C256.32 412.2 257.48 411.288 258.52 410.328C259.56 409.352 260.392 408.416 261.016 407.52H262.84C263.48 408.272 264.2 409.016 265 409.752C265.816 410.488 266.68 411.184 267.592 411.84C268.504 412.48 269.432 413.064 270.376 413.592C271.336 414.12 272.28 414.568 273.208 414.936C273.016 415.16 272.816 415.424 272.608 415.728C272.4 416.032 272.216 416.312 272.056 416.568C271.176 416.136 270.256 415.64 269.296 415.08C268.352 414.504 267.432 413.888 266.536 413.232C265.64 412.576 264.8 411.904 264.016 411.216C263.248 410.528 262.584 409.848 262.024 409.176ZM255.4 413.88H268.672V421.848H266.848V415.488H257.128V421.944H255.4V413.88ZM256.216 419.52H267.808V421.128H256.216V419.52ZM261.016 399.84H262.864V402.96H261.016V399.84ZM251.992 402.048H272.032V406.416H270.184V403.704H253.744V406.416H251.992V402.048ZM285.04 401.016C284.944 401.496 284.816 402.064 284.656 402.72C284.512 403.36 284.272 404.088 283.936 404.904C283.648 405.624 283.288 406.368 282.856 407.136C282.44 407.904 281.992 408.6 281.512 409.224C281.816 409.032 282.16 408.872 282.544 408.744C282.928 408.6 283.32 408.496 283.72 408.432C284.136 408.368 284.512 408.336 284.848 408.336C285.776 408.336 286.56 408.6 287.2 409.128C287.84 409.64 288.16 410.392 288.16 411.384C288.16 411.688 288.16 412.08 288.16 412.56C288.16 413.024 288.16 413.52 288.16 414.048C288.176 414.56 288.192 415.064 288.208 415.56C288.224 416.056 288.232 416.488 288.232 416.856H286.384C286.4 416.536 286.416 416.16 286.432 415.728C286.448 415.296 286.456 414.84 286.456 414.36C286.472 413.88 286.472 413.424 286.456 412.992C286.456 412.56 286.456 412.192 286.456 411.888C286.456 411.184 286.24 410.672 285.808 410.352C285.392 410.016 284.864 409.848 284.224 409.848C283.472 409.848 282.728 410.016 281.992 410.352C281.272 410.672 280.64 411.088 280.096 411.6C279.744 411.936 279.392 412.32 279.04 412.752C278.704 413.168 278.328 413.616 277.912 414.096L276.28 412.896C277.432 411.776 278.392 410.728 279.16 409.752C279.928 408.776 280.552 407.872 281.032 407.04C281.512 406.192 281.888 405.432 282.16 404.76C282.416 404.088 282.624 403.416 282.784 402.744C282.944 402.056 283.04 401.424 283.072 400.848L285.04 401.016ZM276.832 403.608C277.472 403.688 278.168 403.752 278.92 403.8C279.672 403.848 280.328 403.872 280.888 403.872C281.96 403.872 283.112 403.848 284.344 403.8C285.576 403.736 286.816 403.648 288.064 403.536C289.328 403.424 290.528 403.264 291.664 403.056L291.64 404.832C290.808 404.976 289.92 405.096 288.976 405.192C288.032 405.272 287.072 405.344 286.096 405.408C285.12 405.456 284.176 405.496 283.264 405.528C282.368 405.544 281.536 405.552 280.768 405.552C280.432 405.552 280.04 405.552 279.592 405.552C279.16 405.536 278.704 405.52 278.224 405.504C277.744 405.472 277.28 405.44 276.832 405.408V403.608ZM295.168 409.416C294.96 409.464 294.728 409.536 294.472 409.632C294.232 409.712 293.984 409.8 293.728 409.896C293.488 409.992 293.256 410.088 293.032 410.184C292.2 410.504 291.232 410.896 290.128 411.36C289.024 411.824 287.896 412.36 286.744 412.968C285.944 413.368 285.24 413.792 284.632 414.24C284.024 414.672 283.544 415.128 283.192 415.608C282.84 416.072 282.664 416.584 282.664 417.144C282.664 417.608 282.768 417.984 282.976 418.272C283.2 418.56 283.512 418.784 283.912 418.944C284.312 419.088 284.768 419.184 285.28 419.232C285.808 419.28 286.384 419.304 287.008 419.304C287.936 419.304 288.992 419.256 290.176 419.16C291.376 419.048 292.504 418.904 293.56 418.728L293.512 420.648C292.904 420.728 292.216 420.8 291.448 420.864C290.696 420.928 289.928 420.976 289.144 421.008C288.376 421.056 287.64 421.08 286.936 421.08C285.8 421.08 284.76 420.976 283.816 420.768C282.888 420.56 282.144 420.192 281.584 419.664C281.024 419.136 280.744 418.384 280.744 417.408C280.744 416.688 280.912 416.032 281.248 415.44C281.584 414.832 282.032 414.28 282.592 413.784C283.168 413.288 283.8 412.832 284.488 412.416C285.176 411.984 285.88 411.592 286.6 411.24C287.368 410.824 288.088 410.464 288.76 410.16C289.448 409.856 290.096 409.576 290.704 409.32C291.312 409.064 291.88 408.808 292.408 408.552C292.76 408.392 293.096 408.24 293.416 408.096C293.736 407.952 294.056 407.792 294.376 407.616L295.168 409.416ZM303.472 401.304H310.264V403.128H303.472V401.304ZM309.352 401.304H311.176C311.176 402.008 311.208 402.84 311.272 403.8C311.336 404.76 311.472 405.792 311.68 406.896C311.888 407.984 312.208 409.12 312.64 410.304C313.072 411.488 313.656 412.672 314.392 413.856C315.128 415.024 316.048 416.16 317.152 417.264C318.272 418.368 319.624 419.384 321.208 420.312C321.08 420.424 320.912 420.568 320.704 420.744C320.512 420.936 320.328 421.128 320.152 421.32C319.992 421.528 319.856 421.704 319.744 421.848C318.144 420.872 316.768 419.8 315.616 418.632C314.48 417.448 313.528 416.216 312.76 414.936C312.008 413.656 311.4 412.376 310.936 411.096C310.488 409.8 310.144 408.552 309.904 407.352C309.68 406.136 309.528 405.008 309.448 403.968C309.384 402.928 309.352 402.04 309.352 401.304ZM308.656 406.008L310.696 406.368C310.12 408.8 309.368 410.992 308.44 412.944C307.528 414.896 306.416 416.616 305.104 418.104C303.808 419.576 302.272 420.832 300.496 421.872C300.4 421.744 300.248 421.592 300.04 421.416C299.848 421.24 299.64 421.056 299.416 420.864C299.208 420.688 299.024 420.544 298.864 420.432C301.536 419.024 303.656 417.12 305.224 414.72C306.792 412.304 307.936 409.4 308.656 406.008ZM323.992 405.072H342.616V406.92H323.992V405.072ZM341.92 405.072H343.768C343.768 405.072 343.768 405.136 343.768 405.264C343.768 405.392 343.76 405.528 343.744 405.672C343.744 405.816 343.736 405.936 343.72 406.032C343.592 408.512 343.456 410.624 343.312 412.368C343.184 414.112 343.032 415.552 342.856 416.688C342.696 417.808 342.512 418.696 342.304 419.352C342.112 419.992 341.88 420.456 341.608 420.744C341.32 421.096 341.016 421.336 340.696 421.464C340.392 421.592 340.008 421.68 339.544 421.728C339.144 421.76 338.584 421.768 337.864 421.752C337.16 421.736 336.44 421.712 335.704 421.68C335.688 421.408 335.624 421.096 335.512 420.744C335.416 420.392 335.272 420.088 335.08 419.832C335.912 419.896 336.672 419.944 337.36 419.976C338.064 419.992 338.568 420 338.872 420C339.128 420 339.336 419.976 339.496 419.928C339.672 419.88 339.832 419.776 339.976 419.616C340.2 419.408 340.4 419 340.576 418.392C340.768 417.768 340.936 416.904 341.08 415.8C341.24 414.68 341.384 413.272 341.512 411.576C341.656 409.88 341.792 407.84 341.92 405.456V405.072ZM331.84 399.888H333.712V404.04C333.712 405.144 333.664 406.312 333.568 407.544C333.472 408.76 333.264 410.008 332.944 411.288C332.624 412.552 332.136 413.816 331.48 415.08C330.824 416.344 329.944 417.568 328.84 418.752C327.736 419.92 326.344 421.008 324.664 422.016C324.568 421.856 324.44 421.688 324.28 421.512C324.12 421.336 323.952 421.16 323.776 420.984C323.6 420.824 323.432 420.696 323.272 420.6C324.872 419.64 326.192 418.616 327.232 417.528C328.288 416.44 329.12 415.32 329.728 414.168C330.352 413 330.808 411.832 331.096 410.664C331.4 409.496 331.6 408.352 331.696 407.232C331.792 406.112 331.84 405.048 331.84 404.04V399.888Z" fill="black" fill-opacity="0.4"/>
</svg>
