<?xml version="1.0" encoding="UTF-8"?><svg id="_13" xmlns="http://www.w3.org/2000/svg" width="309.8" height="309.8" viewBox="0 0 309.8 309.8"><g id="icon13"><g id="satellite3"><circle cx="154.9" cy="154.9" r="154.9" fill="#2287ff"/><circle cx="118.6" cy="152.9" r="36.9" fill="#003dff"/><ellipse cx="255.98" cy="213.22" rx="29" ry="22.1" transform="translate(-76 241.14) rotate(-44.6)" fill="#003dff"/><ellipse cx="68.47" cy="126.81" rx="12.5" ry="10.1" transform="translate(-74.45 145.29) rotate(-69)" fill="#003dff"/><ellipse cx="165.75" cy="197.16" rx="12.4" ry="10.3" transform="translate(-79.29 117.79) rotate(-32)" fill="#003dff"/><ellipse cx="234.79" cy="48.11" rx="10.7" ry="14.3" transform="translate(40.95 189.05) rotate(-47.6)" fill="#003dff"/><circle cx="184.9" cy="160.2" r="7.3" fill="#003dff"/><ellipse cx="175.06" cy="27.26" rx="16" ry="22" transform="translate(121.34 196.09) rotate(-81.2)" fill="#003dff"/><ellipse cx="71.56" cy="241.62" rx="17.5" ry="23" transform="translate(-149.89 121.36) rotate(-45)" fill="#003dff"/><ellipse cx="222.74" cy="259.86" rx="11.4" ry="8.5" transform="translate(-93.24 128.34) rotate(-26.8)" fill="#003dff"/><ellipse cx="232.23" cy="104.37" rx="8.9" ry="10.1" transform="translate(25.73 253.31) rotate(-60)" fill="#003dff"/><ellipse cx="35" cy="88.92" rx="19.4" ry="12.2" transform="translate(-52.62 50.79) rotate(-45)" fill="#003dff"/><ellipse cx="42.42" cy="202.93" rx="6.5" ry="9" transform="translate(-69.91 28.68) rotate(-21)" fill="#003dff"/></g></g></svg>