<?xml version="1.0" encoding="UTF-8"?><svg id="_14" xmlns="http://www.w3.org/2000/svg" width="309.8" height="309.8" viewBox="0 0 309.8 309.8"><g id="icon14"><circle cx="154.9" cy="154.9" r="154.9" fill="#4dff66"/><ellipse cx="71.19" cy="209.23" rx="33.4" ry="38.4" transform="translate(-108.94 81.18) rotate(-35.8)" fill="#00c650"/><circle cx="53.1" cy="91.1" r="6.4" fill="#00c650"/><ellipse cx="218.06" cy="260.86" rx="12.4" ry="10.3" transform="translate(-105.1 155.19) rotate(-32)" fill="#00c650"/><ellipse cx="226.21" cy="50.24" rx="10.7" ry="14.3" transform="translate(36.58 183.41) rotate(-47.6)" fill="#00c650"/><circle cx="184.9" cy="160.2" r="7.3" fill="#00c650"/><ellipse cx="265.78" cy="197.05" rx="29.1" ry="23.3" transform="translate(-23.75 357.18) rotate(-65.5)" fill="#00c650"/><ellipse cx="92.87" cy="53.35" rx="25.5" ry="19" transform="translate(-14.16 57.32) rotate(-32)" fill="#00c650"/><ellipse cx="129.54" cy="268.82" rx="17.5" ry="23" transform="translate(-165.87 311.01) rotate(-72.4)" fill="#00c650"/><ellipse cx="265.83" cy="97.91" rx="8.5" ry="11.4" transform="translate(8.63 216.65) rotate(-45)" fill="#00c650"/><ellipse cx="27.65" cy="155.01" rx="8.9" ry="12.2" transform="translate(-20.52 5.1) rotate(-7.7)" fill="#00c650"/></g></svg>