<svg width="337" height="48" viewBox="0 0 337 48" fill="none" xmlns="http://www.w3.org/2000/svg">
<g filter="url(#filter0_dd_79_573)">
<path d="M0 20C0 8.95431 8.95431 0 20 0H316.952C327.472 0 336 8.52791 336 19.0476C336 30.6193 326.619 40 315.048 40H20C8.95431 40 0 31.0457 0 20Z" fill="white"/>
<path d="M0.25 20C0.25 9.09238 9.09238 0.25 20 0.25H316.952C327.334 0.25 335.75 8.66598 335.75 19.0476C335.75 30.4812 326.481 39.75 315.048 39.75H20C9.09238 39.75 0.25 30.9076 0.25 20Z" stroke="#E2E8F0" stroke-width="0.5"/>
<path d="M24.6293 24.8459L21.8728 22.0894C22.5365 21.2059 22.8947 20.1305 22.8935 19.0255C22.8935 16.203 20.5972 13.9067 17.7748 13.9067C14.9523 13.9067 12.656 16.203 12.656 19.0255C12.656 21.8479 14.9523 24.1442 17.7748 24.1442C18.8797 24.1454 19.9551 23.7872 20.8386 23.1235L23.5952 25.8801C23.7347 26.0048 23.9167 26.0714 24.1038 26.0662C24.2909 26.0609 24.4688 25.9843 24.6012 25.8519C24.7335 25.7196 24.8102 25.5416 24.8154 25.3545C24.8207 25.1674 24.7541 24.9854 24.6293 24.8459ZM14.1185 19.0255C14.1185 18.3023 14.3329 17.5955 14.7347 16.9942C15.1364 16.3929 15.7075 15.9243 16.3756 15.6476C17.0437 15.3708 17.7788 15.2984 18.4881 15.4395C19.1973 15.5806 19.8488 15.9288 20.3601 16.4401C20.8714 16.9515 21.2197 17.6029 21.3607 18.3122C21.5018 19.0214 21.4294 19.7566 21.1527 20.4247C20.876 21.0928 20.4073 21.6638 19.8061 22.0655C19.2048 22.4673 18.4979 22.6817 17.7748 22.6817C16.8054 22.6806 15.8761 22.295 15.1907 21.6096C14.5053 20.9241 14.1197 19.9948 14.1185 19.0255Z" fill="#2D3748"/>
<g clip-path="url(#clip0_79_573)">
<path d="M40.124 16.4851H43.964V17.3371H40.124V16.4851ZM41.816 13.9171H42.656V24.9451H41.816V13.9171ZM41.804 17.0251L42.356 17.2051C42.268 17.6851 42.152 18.1811 42.008 18.6931C41.872 19.2051 41.712 19.7091 41.528 20.2051C41.344 20.7011 41.152 21.1651 40.952 21.5971C40.752 22.0211 40.544 22.3811 40.328 22.6771C40.28 22.5651 40.208 22.4331 40.112 22.2811C40.016 22.1291 39.932 22.0011 39.86 21.8971C40.06 21.6251 40.256 21.3011 40.448 20.9251C40.648 20.5491 40.832 20.1411 41 19.7011C41.176 19.2611 41.332 18.8131 41.468 18.3571C41.604 17.9011 41.716 17.4571 41.804 17.0251ZM42.596 18.1771C42.668 18.2571 42.776 18.3971 42.92 18.5971C43.064 18.7891 43.216 19.0011 43.376 19.2331C43.544 19.4651 43.696 19.6851 43.832 19.8931C43.968 20.0931 44.064 20.2331 44.12 20.3131L43.616 21.0211C43.552 20.8771 43.456 20.6931 43.328 20.4691C43.208 20.2371 43.076 19.9971 42.932 19.7491C42.788 19.5011 42.648 19.2731 42.512 19.0651C42.384 18.8491 42.284 18.6811 42.212 18.5611L42.596 18.1771ZM45.14 16.7491H49.724V17.5171H45.14V16.7491ZM47.408 14.7331C47.184 15.0691 46.9 15.4131 46.556 15.7651C46.212 16.1091 45.832 16.4411 45.416 16.7611C45.008 17.0731 44.58 17.3451 44.132 17.5771C44.092 17.4651 44.024 17.3371 43.928 17.1931C43.84 17.0491 43.76 16.9291 43.688 16.8331C44.136 16.6251 44.568 16.3651 44.984 16.0531C45.4 15.7331 45.776 15.3931 46.112 15.0331C46.456 14.6651 46.736 14.3011 46.952 13.9411H47.78C48.068 14.3331 48.4 14.7131 48.776 15.0811C49.16 15.4411 49.564 15.7651 49.988 16.0531C50.412 16.3411 50.832 16.5771 51.248 16.7611C51.16 16.8651 51.072 16.9931 50.984 17.1451C50.896 17.2891 50.824 17.4211 50.768 17.5411C50.36 17.3331 49.944 17.0771 49.52 16.7731C49.096 16.4691 48.7 16.1411 48.332 15.7891C47.972 15.4371 47.664 15.0851 47.408 14.7331ZM45.164 19.3531V20.9971H49.664V19.3531H45.164ZM44.36 18.6331H50.492V21.7291H44.36V18.6331ZM46.964 17.2171H47.792V20.3971C47.792 20.8211 47.744 21.2531 47.648 21.6931C47.56 22.1251 47.384 22.5451 47.12 22.9531C46.856 23.3531 46.476 23.7291 45.98 24.0811C45.484 24.4331 44.836 24.7451 44.036 25.0171C44.012 24.9451 43.968 24.8651 43.904 24.7771C43.848 24.6971 43.784 24.6131 43.712 24.5251C43.648 24.4451 43.588 24.3811 43.532 24.3331C44.292 24.0931 44.9 23.8211 45.356 23.5171C45.82 23.2131 46.164 22.8891 46.388 22.5451C46.62 22.2011 46.772 21.8451 46.844 21.4771C46.924 21.1091 46.964 20.7411 46.964 20.3731V17.2171ZM47.912 21.2731C48.152 21.8651 48.424 22.3491 48.728 22.7251C49.032 23.1011 49.388 23.4051 49.796 23.6371C50.204 23.8691 50.664 24.0731 51.176 24.2491C51.064 24.3451 50.956 24.4611 50.852 24.5971C50.756 24.7411 50.684 24.8811 50.636 25.0171C50.084 24.8011 49.588 24.5491 49.148 24.2611C48.716 23.9731 48.336 23.6051 48.008 23.1571C47.68 22.7011 47.392 22.1251 47.144 21.4291L47.912 21.2731ZM57.032 21.6451H57.92V24.9811H57.032V21.6451ZM57.02 13.9051H57.92V17.2771H57.02V13.9051ZM56.588 17.4931L57.416 17.8891C57.072 18.2171 56.7 18.5451 56.3 18.8731C55.9 19.2011 55.524 19.4811 55.172 19.7131L54.512 19.3531C54.744 19.1851 54.988 18.9931 55.244 18.7771C55.5 18.5611 55.748 18.3411 55.988 18.1171C56.228 17.8851 56.428 17.6771 56.588 17.4931ZM59.168 18.2611L59.996 18.7051C59.54 19.0731 59.044 19.4531 58.508 19.8451C57.972 20.2291 57.428 20.6011 56.876 20.9611C56.332 21.3131 55.816 21.6291 55.328 21.9091L54.692 21.4651C55.052 21.2571 55.432 21.0251 55.832 20.7691C56.24 20.5051 56.648 20.2291 57.056 19.9411C57.464 19.6531 57.848 19.3651 58.208 19.0771C58.568 18.7891 58.888 18.5171 59.168 18.2611ZM53.6 19.3171L54.2 18.8011C54.496 18.9451 54.808 19.1131 55.136 19.3051C55.472 19.4971 55.788 19.6891 56.084 19.8811C56.388 20.0731 56.636 20.2531 56.828 20.4211L56.192 21.0091C56.016 20.8411 55.78 20.6571 55.484 20.4571C55.196 20.2491 54.884 20.0451 54.548 19.8451C54.22 19.6451 53.904 19.4691 53.6 19.3171ZM59.048 20.2531L59.648 19.7851C60 19.9851 60.368 20.2171 60.752 20.4811C61.144 20.7371 61.512 20.9971 61.856 21.2611C62.2 21.5171 62.48 21.7491 62.696 21.9571L62.072 22.5091C61.856 22.2931 61.58 22.0531 61.244 21.7891C60.908 21.5171 60.548 21.2491 60.164 20.9851C59.78 20.7131 59.408 20.4691 59.048 20.2531ZM59.072 22.8211L59.768 22.3531C60.112 22.5211 60.472 22.7171 60.848 22.9411C61.232 23.1571 61.596 23.3811 61.94 23.6131C62.284 23.8451 62.568 24.0611 62.792 24.2611L62.048 24.8011C61.848 24.6011 61.58 24.3811 61.244 24.1411C60.916 23.9091 60.56 23.6771 60.176 23.4451C59.792 23.2131 59.424 23.0051 59.072 22.8211ZM52.292 21.2731C52.836 21.2731 53.46 21.2731 54.164 21.2731C54.876 21.2651 55.636 21.2571 56.444 21.2491C57.252 21.2331 58.088 21.2211 58.952 21.2131C59.816 21.1971 60.676 21.1811 61.532 21.1651L61.484 21.8731C60.372 21.9051 59.256 21.9371 58.136 21.9691C57.024 22.0011 55.968 22.0291 54.968 22.0531C53.976 22.0771 53.1 22.0971 52.34 22.1131L52.292 21.2731ZM54.98 22.3411L55.832 22.6651C55.56 22.9371 55.248 23.2091 54.896 23.4811C54.552 23.7451 54.192 23.9891 53.816 24.2131C53.448 24.4451 53.092 24.6491 52.748 24.8251C52.7 24.7691 52.632 24.7011 52.544 24.6211C52.456 24.5411 52.368 24.4611 52.28 24.3811C52.192 24.3091 52.108 24.2491 52.028 24.2011C52.564 23.9771 53.1 23.7011 53.636 23.3731C54.172 23.0451 54.62 22.7011 54.98 22.3411ZM52.412 14.9731H62.564V15.7651H52.412V14.9731ZM52.388 16.9171H62.66V19.1851H61.784V17.7091H53.24V19.1851H52.388V16.9171ZM64.3438 23.4229C64.3438 23.2393 64.4004 23.085 64.5137 22.96C64.6309 22.8311 64.7988 22.7666 65.0176 22.7666C65.2363 22.7666 65.4023 22.8311 65.5156 22.96C65.6328 23.085 65.6914 23.2393 65.6914 23.4229C65.6914 23.6025 65.6328 23.7549 65.5156 23.8799C65.4023 24.0049 65.2363 24.0674 65.0176 24.0674C64.7988 24.0674 64.6309 24.0049 64.5137 23.8799C64.4004 23.7549 64.3438 23.6025 64.3438 23.4229ZM67.5078 23.4229C67.5078 23.2393 67.5645 23.085 67.6777 22.96C67.7949 22.8311 67.9629 22.7666 68.1816 22.7666C68.4004 22.7666 68.5664 22.8311 68.6797 22.96C68.7969 23.085 68.8555 23.2393 68.8555 23.4229C68.8555 23.6025 68.7969 23.7549 68.6797 23.8799C68.5664 24.0049 68.4004 24.0674 68.1816 24.0674C67.9629 24.0674 67.7949 24.0049 67.6777 23.8799C67.5645 23.7549 67.5078 23.6025 67.5078 23.4229ZM70.6719 23.4229C70.6719 23.2393 70.7285 23.085 70.8418 22.96C70.959 22.8311 71.127 22.7666 71.3457 22.7666C71.5645 22.7666 71.7305 22.8311 71.8438 22.96C71.9609 23.085 72.0195 23.2393 72.0195 23.4229C72.0195 23.6025 71.9609 23.7549 71.8438 23.8799C71.7305 24.0049 71.5645 24.0674 71.3457 24.0674C71.127 24.0674 70.959 24.0049 70.8418 23.8799C70.7285 23.7549 70.6719 23.6025 70.6719 23.4229Z" fill="#A0AEC0"/>
</g>
</g>
<defs>
<filter id="filter0_dd_79_573" x="0" y="0" width="337" height="48" filterUnits="userSpaceOnUse" color-interpolation-filters="sRGB">
<feFlood flood-opacity="0" result="BackgroundImageFix"/>
<feColorMatrix in="SourceAlpha" type="matrix" values="0 0 0 0 0 0 0 0 0 0 0 0 0 0 0 0 0 0 127 0" result="hardAlpha"/>
<feOffset dx="1" dy="8"/>
<feComposite in2="hardAlpha" operator="out"/>
<feColorMatrix type="matrix" values="0 0 0 0 0.795833 0 0 0 0 0.795833 0 0 0 0 0.795833 0 0 0 1 0"/>
<feBlend mode="normal" in2="BackgroundImageFix" result="effect1_dropShadow_79_573"/>
<feColorMatrix in="SourceAlpha" type="matrix" values="0 0 0 0 0 0 0 0 0 0 0 0 0 0 0 0 0 0 127 0" result="hardAlpha"/>
<feOffset dy="2"/>
<feComposite in2="hardAlpha" operator="out"/>
<feColorMatrix type="matrix" values="0 0 0 0 0 0 0 0 0 0 0 0 0 0 0 0 0 0 1 0"/>
<feBlend mode="normal" in2="effect1_dropShadow_79_573" result="effect2_dropShadow_79_573"/>
<feBlend mode="normal" in="SourceGraphic" in2="effect2_dropShadow_79_573" result="shape"/>
</filter>
<clipPath id="clip0_79_573">
<rect width="148.005" height="18.0053" fill="white" transform="translate(39.5 10.9971)"/>
</clipPath>
</defs>
</svg>
