<?xml version="1.0" encoding="UTF-8"?><svg id="_1" xmlns="http://www.w3.org/2000/svg" width="309.8" height="309.8" viewBox="0 0 309.8 309.8"><g id="icon1"><circle cx="154.9" cy="154.9" r="154.9" fill="#ff0b0b"/><path d="M2.5,182.8c55.3-15.1,109.2-35,161.1-59.5,39.3-18.6,77.3-39.7,113.7-63.3-13.2-17-29.8-31.1-48.9-41.4-29.4,18.2-59.7,34.7-91,49.5C94.4,88.4,49.8,105.4,4.2,118.8,1.4,130.4,0,142.5,0,154.9s.9,18.9,2.5,27.9h0Z" fill="#bc0000"/><path d="M31.5,248.6c15.3,20.2,35.5,36.4,58.8,47.1,46.3-14,91.6-31.4,135.4-52.1,26-12.3,51.5-25.8,76.4-40.3,5-15.2,7.7-31.5,7.7-48.4s-.8-18.1-2.3-26.8c-34.6,22.4-70.6,42.6-107.9,60.2-53.9,25.5-110.2,45.7-168,60.3h-.1Z" fill="#bc0000"/><path d="M31.5,248.6c6.4,8.4,13.7,16.2,21.6,23.1,33.4-9.4,94.2-28.4,158.2-58.3,44.9-21,79.3-41.7,98.3-53.8v-4.7c0-9.1-.8-18.1-2.3-26.8-34.6,22.4-70.6,42.6-107.9,60.2-53.9,25.5-110.2,45.7-168,60.3h.1,0Z" fill="#ff7e3e"/><path d="M144.6,95.3c54.4-25.4,93.4-50.4,108.2-60.3-7.6-6.2-15.8-11.7-24.4-16.4-29.4,18.2-59.7,34.7-91,49.5C94.4,88.4,49.8,105.4,4.2,118.8,1.8,128.7.4,139.1,0,149.7c34.9-10.3,88.4-28.1,144.5-54.4h.1Z" fill="#ff7e3e"/></g></svg>