<?xml version="1.0" encoding="UTF-8"?><svg id="_9" xmlns="http://www.w3.org/2000/svg" width="309.8" height="309.8" xmlns:xlink="http://www.w3.org/1999/xlink" viewBox="0 0 309.8 309.8"><defs><clipPath id="clippath"><circle cx="154.9" cy="154.9" r="154.9" fill="none"/></clipPath></defs><g id="icon9"><circle cx="154.9" cy="154.9" r="154.9" fill="#067dff"/><g clip-path="url(#clippath)"><path d="M81.5-2.6c-1.9,9.4-9.3,53,17.8,89.9,27.3,37.2,70.9,42.2,91.7,44.5,81.6,9.2,142.8-47.2,154.9-58.8-4.7-12.8-13.5-31.5-30.3-49-40.8-42.5-97.4-45.6-126.4-46.3-47.1-1.1-84.8,10.5-107.7,19.6h0v.1Z" fill="#003ce5"/><path d="M54.4,305.4c1.4-5,5.5-16.8,16.9-26.7,3.5-3,17-14.8,32.9-13.4,4.6.4,8,1.8,16,1.8s8.7,0,15.1-1.8c9.8-2.6,15.5-7.8,19.6-10.7,20.8-14.9,50.9-8.6,53.4-8,13.2,2.9,22,9.3,33.8,17.8,12.8,9.3,21.9,18.9,27.6,25.8-10.6,13.3-25.9,28-47.2,38.3-77.3,37.3-161.7-18.7-168.2-23.1h.1Z" fill="#003ce5"/><path d="M25.6,105.4c-7.5-9.4-28.5-.8-34.2,18.3-.3.9-4.6,15.9,1.6,27.4.4.8,4.7,8.4,11.4,9.1,11.8,1.4,23.8-18.7,24.4-37.8.2-4.3.4-12.5-3.3-17.2h0v.2h.1Z" fill="#003ce5"/><path d="M6.7,220.8c.9,7.8-.2,13.9,4.4,19.6,2.8,3.4,3.8,2.4,11.6,8.9,1.6,1.4,2.8,2.4,3.7,3.3,1.9,1.8,3.2,3.1,3.5,3.4,11.3,11.4,23,11.6,23,11.6,3.9,0,6.9-.9,8.5-1.4,8.3-2.7,13.8-8.8,15.6-10.8,1.5-1.7,1.7-2.2,3.2-3.5,3.8-3.5,7.7-4.9,9.7-5.6,4.4-1.6,8.1-1.8,10.1-1.9,1.9,0,2.7.2,4.1.2,7.2-.1,12.7-2.2,15.4-3.3,3.5-1.4,8.1-3.2,12.4-7.2,1.5-1.4,10.4-9.9,9.2-22.2-.1-1.6-1.4-12.9-9.9-17.3-6.6-3.4-14.5-1-16.6-.3-5.8,1.8-7.1,4.3-11.8,4.2-4.1-.1-7.2-2.3-10.1-4.1-5.1-3.1-5.5-5.3-10.6-9.6-2.1-1.8-4-3.3-6.9-5-1.5-.9-5-3-9.3-4.1-8.6-2.3-16.2.4-17.9,1-10.3,3.9-10.2,10.7-16.5,11-7,.4-8.5-7.9-18.2-10.7-8.2-2.4-20.2-.7-23.1,5.3-4.2,8.4,13.8,15.8,16.4,38.3h0v.2h.1Z" fill="#33a8ff"/><path d="M94,89.9c2.6,6.4,8.6,7,15.1,18.7,1.1,2,2.1,4,4.2,6.4,4,4.4,8.7,6.4,12.2,7.9,7,2.9,7.5,1.4,12.5,4,2.1,1.1,9.2,4.9,9.4,10.2,0,2.5-1.5,2.9-2.2,5.8-1.5,6.4,4.2,14.2,10.1,18,4.9,3.2,9.8,3.6,12.6,3.8,17.4,1.2,29-.7,42.3-1.3,18.9-.9,28.4-1.3,35.2,3.6,5.8,4.2,8.4,9.8,18.7,15.1,4.9,2.5,9.1,3.7,11,4.2,15.2,3.9,28.4-.6,32-2,18.3-6.9,26.9-21.7,29.1-25.9-7.6-18.7-15.1-37.4-22.7-56.1-10.9-5.8-20.6-7.7-26.7-8.5-6.2-.7-25.5-3.1-42.7,7.1-7.6,4.5-11,9.1-21.8,12.9-6.6,2.3-12.4,3.1-15,3.4-2.3.2-7.9.7-16.1-.2-11.9-1.4-24-2.7-34.6-11.6-2.6-2.1-7.1-5.9-10.4-12.4-3.4-6.8-2.2-10.2-6.2-18.2-1.8-3.7-3.8-7.9-8-11.1-2.7-2.1-12.5-8.8-22.7-5.3-13.2,4.4-19.1,21.9-15.1,31.6h-.2v-.1Z" fill="#33a8ff"/><path d="M217.3,221.7c-.1,5.4,5.9,9.5,8.9,11.6,12.9,8.8,26.4,5.8,27.6,10.7.8,3.1-4.6,5.1-4.5,8.9.2,5.5,11.5,9.6,23.1,12.5,3.5-.7,49.8-9.9,49.9-23.1,0-6.1-16-12.4-48.1-24.9-23.7-9.3-35.6-12.3-46.3-7.1-1.5.7-10.5,5.1-10.7,11.6h0v-.2h.1Z" fill="#33a8ff"/></g></g></svg>