<?xml version="1.0" encoding="UTF-8"?><svg id="_6" xmlns="http://www.w3.org/2000/svg" width="487.38" height="309.8" viewBox="0 0 487.38 309.8"><g id="icon6"><path d="M70.54,252.5c-8.8.5-16.8.6-24,.1-21.3-1.3-35.5-6.9-42.3-16.7-6.8-9.8-4.8-21.7,6-35.5,8.5-10.9,22.4-23,41.5-36,37.7-25.8,92.3-53.2,153.7-77.2,61.4-24,122.7-41.8,172.5-50.1,25.2-4.2,46.5-5.8,63.2-4.8,21.3,1.3,35.5,6.9,42.3,16.7h0c6.8,9.8,4.8,21.7-6,35.5-8.5,10.9-22.4,23-41.5,36-37.7,25.8-92.3,53.2-153.7,77.2-61.4,24-122.7,41.8-172.6,50.1-14.4,2.4-27.5,4-39.2,4.7h.1ZM418.64,55.8c-9.3.6-20.7,1.8-34.7,4.2-47,7.9-105.4,24.9-164.3,47.9-58.9,23-110.9,49.1-146.5,73.4-39.2,26.8-42.3,40.5-40.2,43.5s18.8,8.9,70.6.2c47-7.9,105.4-24.9,164.3-47.9,58.9-23,110.9-49.1,146.5-73.4,39.1-26.8,42.3-40.5,40.2-43.5-1.5-2.2-10.9-5.9-35.9-4.4h0Z" fill="#3300a3"/><circle cx="243.84" cy="154.9" r="154.9" fill="#9b00ff"/><path d="M483.44,48.9c-6.8-9.8-21-15.3-42.3-16.7-14.3-.9-31.9.2-52.4,3.1l9.2,22.5c7.9-1.1,14.8-1.7,20.8-2.1,25-1.5,34.4,2.2,35.9,4.4,2.1,3-1.1,16.7-40.2,43.5-35.6,24.4-87.6,50.4-146.5,73.4-58.9,23-117.2,40-164.3,47.9-51.8,8.7-68.5,2.8-70.6-.2s1.1-16.7,40.2-43.5h0l-6.6-26.6c-5.3,3.3-10.4,6.6-15.2,9.9-19.1,13.1-33,25.2-41.5,36-10.8,13.8-12.8,25.8-6,35.5,6.8,9.8,21,15.4,42.3,16.7,7.2.4,15.2.4,24-.1,11.7-.7,24.8-2.3,39.2-4.7,49.8-8.4,111.1-26.1,172.5-50.1,61.4-24,116-51.4,153.7-77.2,19.1-13.1,33-25.2,41.5-36,10.8-13.8,12.8-25.8,6-35.5h0l.2-.2h.1Z" fill="#3300a3"/></g></svg>