<?xml version="1.0" encoding="UTF-8"?><svg id="_8" xmlns="http://www.w3.org/2000/svg" width="309.8" height="309.8" xmlns:xlink="http://www.w3.org/1999/xlink" viewBox="0 0 309.8 309.8"><defs><clipPath id="clippath"><circle cx="154.9" cy="154.9" r="154.9" fill="none"/></clipPath></defs><g id="icon8"><g id="planet8"><circle cx="154.9" cy="154.9" r="154.9" fill="#ffc215"/><g clip-path="url(#clippath)"><path d="M-9.4,203.7c34.5,1.5,61.2-1.9,79.2-5.3,19.6-3.7,29.3-5.5,41.8-9.8,22.6-7.7,28.5-13.8,40.1-11.6,12.4,2.4,16.4,11.6,31.2,25.8,18.7,18,31.6,21.8,47.2,32,18.2,12,41.6,33.9,62.3,77.4-18.1,6.2-36.2,12.5-54.3,18.7-7-17.9-18.1-39.1-35.6-59.6-4.9-5.7-20.3-23.1-44.5-38.3-16.6-10.4-25.9-12.6-32.1-13.4-12.7-1.6-24.3.9-28.7,2-8.2,1.9-13.9,4.4-15.8,5.2-33.1,13.9-90.7,16.3-90.8,24,0,1.6,2.5,4,15.1,7.1-5-18.1-10.1-36.2-15.1-54.3h0v.1Z" fill="#ed9200"/><path d="M70.2,293.7c-.6-1.2-7.5-15.8,0-27.6,6-9.4,17.1-11,23.3-11.9,12.4-1.8,23.8,2.3,33.5,5.9,3.1,1.1,5.3,2.1,8.1,3.3,3.5,1.5,15.9,7,26.7,14.3,14.7,10,26.2,23.2,25.1,24.6-.9,1.1-8.2-5.3-23.6-12.9-18.1-9-31.4-11.9-34.4-12.6-12.4-2.6-30.6-6.5-36.5,1.8-2.8,3.9-2,9.2-.9,16.9,1.3,9.1,4.6,16.1,7.1,20.5l-28.5-22.2h0l.1-.1Z" fill="#ed9200"/><path d="M-30.7,162.2c63,5.4,97.3-5.7,117.1-17.5,6.6-3.9,20.7-12.8,40.4-14.1,16.6-1.1,29.7,4.4,45.1,10.9,3.4,1.5,7.6,3.3,36.9,20.5,19.1,11.2,25.6,15.2,37.7,22.3,27.3,16,34.3,18.9,43,24.2,16.6,10.1,38.5,28.4,58.9,63.8,9.8-22.9,19.6-45.8,29.4-68.7-31.4-22.1-58.8-34.7-78.2-42.1-24.9-9.5-34-9.4-60-22-9.1-4.4-23.6-12.3-52.7-28.1-25.1-13.6-27.8-15.3-34.3-16.9-25.5-6.3-58.1,7.4-58.1,7.4-16.8,7.2-47.3,12.9-107.9,6.1-5.8,18-11.6,35.9-17.4,53.9h0v.3h.1Z" fill="#ed9200"/><path d="M-14.2,50.8c16,2.6,45.4,7.4,77.4,11.6,7.7,1,16.6,2.1,28.5,1.1,3-.2,5.5-.6,7.8-1,9.1-1.6,19.1-4.6,26.1-6.3,4.3-1,14.1-3.4,26.7-3.3,5.1,0,14.3.5,25,3.3,12.9,3.5,14.2,6.8,29.4,13.4,17.1,7.4,19.9,5.1,47.2,15.1,10.5,3.8,15.7,5.8,21.4,8.9,12,6.7,19.5,14,29.4,24,7,7.1,16.2,17.1,25.8,30.3,4.8-1.3,13-4.5,16-11.6,4.8-11.1-4.2-29.7-25.8-40.1-8.9-7.6-23.1-18.1-42.7-25.8-22.4-8.9-26-3.9-45.4-13.4-20.9-10.2-26-20.4-47.2-24.9-7.8-1.7-14-1.7-21.4-1.8-23.4-.2-41,5-45.4,6.2-16.3,4.4-45.3,5.9-100.6-8-10.7,7.4-21.4,14.8-32.1,22.3h-.1Z" fill="#ed9200"/></g></g></g></svg>