<?xml version="1.0" encoding="UTF-8"?><svg id="_16" xmlns="http://www.w3.org/2000/svg" width="320.9" height="441.6" xmlns:xlink="http://www.w3.org/1999/xlink" viewBox="0 0 320.9 441.6"><defs><clipPath id="clippath"><path d="M256.5,225.9c-3.8-40.8-7.1-75.9-23.9-118.5-12.2-31.1-27.5-55.6-40-72.8-9.1-12.6-18.3-23.3-26.6-32.2C164.4.7,162.4,0,160.4,0s-4,.7-5.6,2.4c-8.4,8.9-17.5,19.6-26.6,32.2-12.5,17.2-27.7,41.7-40,72.8-16.8,42.6-20.1,77.7-23.9,118.5-2.7,29.2-3.1,53.4-2.9,69.9.3,35.1.6,70.3.9,105.4,0,4.1,3.4,7.4,7.5,7.4h181.2c4.1,0,7.4-3.3,7.5-7.4.3-35.1.6-70.3.9-105.4.2-16.5-.1-40.7-2.9-69.9h0Z" fill="none"/></clipPath></defs><g id="icon16"><path d="M80,212c-25.1,14.1-50.3,28.3-75.5,42.4-.7.4-1.5.9-2.3,1.7-2,2.1-2.2,4.7-2.2,5.6v76.7h0v.2h0v.6c.2.4.7.6,1.3.6h90.3c-3.9-42.6-7.8-85.2-11.6-127.8h.1-.1Z" fill="#ff4e4a"/><path d="M240.8,212c25.1,14.1,50.3,28.3,75.5,42.4.7.4,1.5.9,2.3,1.7,2,2.1,2.2,4.7,2.2,5.6,0,2.2,0,4.4.1,6.5v70.2h0v.2h0v.6c-.2.4-.7.6-1.3.6h-90.3c3.9-42.6,7.8-85.2,11.6-127.8h-.1Z" fill="#ff4e4a"/><path d="M256.5,225.9c-3.8-40.8-7.1-75.9-23.9-118.5-12.2-31.1-27.5-55.6-40-72.8-9.1-12.6-18.3-23.3-26.6-32.2-1.6-1.7-3.6-2.4-5.6-2.4s-4,.7-5.6,2.4c-8.4,8.9-17.5,19.6-26.6,32.2-12.5,17.2-27.7,41.7-40,72.8-16.8,42.6-20.1,77.7-23.9,118.5-2.7,29.2-3.1,53.4-2.9,69.9.3,35.1.6,70.3.9,105.4,0,4.1,3.4,7.4,7.5,7.4h181.2c4.1,0,7.4-3.3,7.5-7.4.3-35.1.6-70.3.9-105.4.2-16.5-.1-40.7-2.9-69.9Z" fill="#fff9f5"/><g clip-path="url(#clippath)"><ellipse cx="160.4" cy="35.1" rx="167.7" ry="72" fill="#ff4e4a"/><rect x="22.9" y="381.1" width="281.7" height="60.5" fill="#9b9b9b"/></g><path d="M243.8,403.8c-.4-3.2-2.3-5.5-4.5-5.5H81.6c-2.2,0-4.1,2.3-4.5,5.5l-3.9,29.5c-.6,4.3,1.6,8.3,4.5,8.3h165.6c2.9,0,5.1-4,4.5-8.3l-3.9-29.5h-.1Z" fill="#9b9b9b"/><circle cx="160.4" cy="189.1" r="52.7" fill="#939393"/><circle cx="160.4" cy="189.1" r="44.4" fill="#85d3ff"/><circle cx="142.7" cy="176.6" r="14.9" fill="#d7f3ff"/></g></svg>