<?xml version="1.0" encoding="UTF-8"?><svg id="_15" xmlns="http://www.w3.org/2000/svg" width="309.8" height="309.8" viewBox="0 0 309.8 309.8"><g id="icon15"><circle cx="154.9" cy="154.9" r="154.9" fill="#ffcc4d"/><ellipse cx="111.22" cy="60.95" rx="44.6" ry="38.4" transform="translate(-15.25 51.39) rotate(-24.4)" fill="#f2a02a"/><circle cx="43.8" cy="100.5" r="12.1" fill="#f2a02a"/><circle cx="79.2" cy="136.3" r="6.4" fill="#f2a02a"/><ellipse cx="55.89" cy="221.5" rx="20.9" ry="26.5" transform="translate(-126.7 84.22) rotate(-38.9)" fill="#f2a02a"/><circle cx="204.8" cy="188.4" r="6.8" fill="#f2a02a"/><ellipse cx="180.94" cy="279.06" rx="12.4" ry="10.3" transform="translate(-120.38 138.29) rotate(-32)" fill="#f2a02a"/><ellipse cx="92.03" cy="265.92" rx="10.7" ry="14.3" transform="translate(-166.4 154.57) rotate(-47.6)" fill="#f2a02a"/><circle cx="177.6" cy="31.6" r="7.3" fill="#f2a02a"/><ellipse cx="233.72" cy="245.93" rx="25" ry="19.8" transform="translate(-105.45 237.3) rotate(-45)" fill="#f2a02a"/><ellipse cx="271.74" cy="175.18" rx="25.5" ry="22" transform="translate(36.42 396.88) rotate(-76.1)" fill="#f2a02a"/><ellipse cx="249.86" cy="112.81" rx="9.5" ry="7.9" transform="translate(18.4 259.71) rotate(-56.7)" fill="#f2a02a"/><ellipse cx="99.17" cy="212.61" rx="8.9" ry="12.2" transform="translate(-72.7 52.93) rotate(-22.1)" fill="#f2a02a"/></g></svg>